<?xml version="1.0" encoding="utf-8"?>
<!-- Generator: Adobe Illustrator 16.0.0, SVG Export Plug-In . SVG Version: 6.00 Build 0)  -->
<!DOCTYPE svg PUBLIC "-//W3C//DTD SVG 1.1//EN" "http://www.w3.org/Graphics/SVG/1.1/DTD/svg11.dtd">
<svg version="1.1" id="Layer_1" xmlns="http://www.w3.org/2000/svg" xmlns:xlink="http://www.w3.org/1999/xlink" x="0px" y="0px"
	 width="63.036px" height="63.051px" viewBox="0 0 63.036 63.051" enable-background="new 0 0 63.036 63.051" xml:space="preserve">
<g>
	<path fill="#214260" stroke="#FFFFFF" stroke-width="0.5" stroke-miterlimit="10" d="M-19.407,52.487
		c-6.452,0-10.291-1.678-14.004-3.301c-3.54-1.547-7.2-3.147-12.864-3.147c-4.893,0-9.584,1.918-13.723,3.611
		c-3.567,1.459-6.937,2.837-9.922,2.837h-3.271c1.91-0.851,4.089-1.916,6.473-3.081c9.073-4.434,20.365-9.95,29.041-9.95
		c10.609,0,17.598,5.121,17.668,5.173c0.445,0.334,1.076,0.242,1.409-0.201c0.334-0.447,0.243-1.078-0.202-1.411
		c-0.253-0.19-5.336-3.934-13.568-5.178v-1.706c1.849-0.367,3.225-1.719,3.225-3.326c0-0.788-0.384-2.718-1.003-4.465
		c-0.904-2.555-1.961-3.798-3.229-3.798c-0.885,0-1.668,0.607-2.368,1.844c-0.206-1.237-0.613-2.911-1.164-4.48
		c-1.153-3.288-2.459-4.886-3.99-4.886c-1.533,0-2.839,1.598-3.991,4.886c-0.813,2.318-1.316,4.866-1.316,5.896
		c0,2.075,1.854,3.808,4.299,4.188v4.866c-5.836-3.017-11.699-4.292-17.448-3.789c-4.646,0.406-8.232,1.902-10.472,3.127
		c-2.976-1.143-6.205-1.978-9.763-1.978c-0.557,0-1.007,0.451-1.007,1.008c0,0.556,0.451,1.007,1.007,1.007
		c5.832,0,10.88,2.509,15.335,4.722c1.96,0.974,3.754,1.864,5.446,2.467c-3.05,1.371-6.021,2.822-8.791,4.176
		c-5.149,2.516-10.011,4.892-11.991,4.892c-0.557,0-1.007,0.451-1.007,1.008s0.451,1.008,1.007,1.008h9.673
		c3.382,0,6.929-1.451,10.685-2.987c4.161-1.701,8.464-3.462,12.96-3.462c5.243,0,8.554,1.447,12.057,2.979
		c3.903,1.705,7.938,3.47,14.812,3.47c0.557,0,1.009-0.451,1.009-1.008S-18.85,52.487-19.407,52.487L-19.407,52.487z
		 M-37.677,37.441c-0.725,0-1.464,0.035-2.217,0.103V31.99c0.968-0.15,1.843-0.511,2.546-1.022c-0.169,0.784-0.262,1.45-0.262,1.839
		c0,1.607,1.376,2.959,3.225,3.326v1.461C-35.44,37.496-36.538,37.441-37.677,37.441z M-34.8,29.285
		c0.629-1.877,1.207-2.562,1.422-2.707c0.216,0.145,0.794,0.83,1.423,2.707c0.512,1.522,0.794,3.049,0.794,3.522
		c0,0.523-0.503,1.001-1.209,1.243v-0.976c0-0.556-0.451-1.007-1.008-1.007c-0.556,0-1.007,0.451-1.007,1.007v0.976
		c-0.706-0.242-1.21-0.72-1.21-1.243C-35.595,32.334-35.312,30.807-34.8,29.285z M-44.193,27.803c0-0.751,0.458-3.104,1.202-5.229
		c1.03-2.938,1.91-3.538,2.09-3.538c0.179,0,1.058,0.601,2.089,3.538c0.745,2.125,1.202,4.477,1.202,5.229
		c0,0.98-0.975,1.838-2.284,2.138v-2.239c0-0.557-0.451-1.008-1.007-1.008c-0.558,0-1.009,0.451-1.009,1.008v2.239
		C-43.217,29.641-44.193,28.783-44.193,27.803z M-63.361,39.148c-1.289-0.641-2.624-1.304-4.016-1.929
		c2.035-0.93,4.809-1.849,8.195-2.145c5.038-0.44,10.19,0.594,15.352,3.074c-3.879,0.82-7.97,2.276-11.996,3.971
		C-57.985,41.816-60.483,40.578-63.361,39.148L-63.361,39.148z"/>
	<path fill="#214260" stroke="#FFFFFF" stroke-width="0.5" stroke-miterlimit="10" d="M-70.995,19.036h2.313
		c0.139,0.715,0.419,1.38,0.814,1.962l-1.637,1.637c-0.393,0.393-0.393,1.032,0,1.425c0.197,0.197,0.455,0.295,0.713,0.295
		s0.516-0.099,0.712-0.295l1.637-1.637c0.583,0.395,1.247,0.676,1.963,0.814v2.314c0,0.556,0.451,1.007,1.008,1.007
		c0.556,0,1.007-0.451,1.007-1.007v-2.314c0.715-0.138,1.38-0.419,1.963-0.814l1.637,1.637c0.196,0.197,0.455,0.295,0.712,0.295
		s0.516-0.099,0.712-0.295c0.393-0.393,0.393-1.032,0-1.425l-1.637-1.637c0.395-0.582,0.676-1.247,0.814-1.962h2.314
		c0.557,0,1.007-0.451,1.007-1.008c0-0.556-0.451-1.007-1.007-1.007h-2.314c-0.138-0.715-0.419-1.38-0.814-1.963l1.637-1.637
		c0.393-0.394,0.393-1.031,0-1.425c-0.394-0.394-1.032-0.394-1.425,0l-1.637,1.637c-0.583-0.395-1.248-0.676-1.963-0.814v-2.314
		c0-0.556-0.451-1.007-1.007-1.007c-0.557,0-1.008,0.451-1.008,1.007v2.314c-0.716,0.138-1.38,0.419-1.963,0.814l-1.637-1.637
		c-0.394-0.394-1.031-0.394-1.425,0c-0.393,0.394-0.393,1.031,0,1.425l1.637,1.637c-0.395,0.583-0.676,1.248-0.814,1.963h-2.313
		c-0.557,0-1.008,0.451-1.008,1.007C-72.002,18.584-71.551,19.036-70.995,19.036z M-63.471,14.736c1.814,0,3.292,1.477,3.292,3.292
		c0,1.815-1.477,3.292-3.292,3.292c-1.815,0-3.292-1.477-3.292-3.292C-66.763,16.213-65.286,14.736-63.471,14.736z"/>
</g>
<g transform="translate(-1)">
	<g>
		<g>
			<path fill="#214260" stroke="#FFFFFF" stroke-width="0.5" stroke-miterlimit="10" d="M205.698,51.105
				c0.53,0,0.962-0.43,0.962-0.961s-0.432-0.963-0.962-0.963h-0.962c0-0.531-0.431-0.961-0.961-0.961
				c-0.532,0-0.963,0.43-0.963,0.961h-15.387c0-0.531-0.431-0.961-0.961-0.961c-0.531,0-0.963,0.43-0.963,0.961h-0.961
				c-0.531,0-0.962,0.432-0.962,0.963s0.431,0.961,0.962,0.961h0.961v2.885h-0.961c-0.531,0-0.962,0.432-0.962,0.963
				s0.431,0.961,0.962,0.961h0.961v0.961h-0.961c-0.531,0-0.962,0.432-0.962,0.963s0.431,0.961,0.962,0.961h0.961v2.885h-16.348
				v-7.955c1.422,0.801,3.027,1.223,4.66,1.225c5.461-0.078,9.828-4.562,9.765-10.025c0.03-3.797-2.091-7.283-5.476-9.004
				c1.113-1.518,1.711-3.354,1.703-5.236c0.033-4.154-2.881-7.75-6.952-8.577c1.03-2.272,0.853-4.909-0.472-7.022
				c-1.324-2.114-3.62-3.423-6.114-3.486c-0.028,0-0.056,0.004-0.085,0.004c-0.512-3.31-3.379-5.739-6.728-5.7
				c-3.349,0.039-6.159,2.535-6.595,5.855c-2.435,0.467-4.115,2.708-3.881,5.177c0.234,2.468,2.307,4.354,4.786,4.354h5.606
				c0.086,0.277,0.189,0.548,0.308,0.813c-4.071,0.831-6.983,4.428-6.95,8.583c-0.008,1.881,0.59,3.717,1.703,5.235
				c-3.385,1.721-5.505,5.207-5.475,9.004c-0.065,5.463,4.303,9.947,9.764,10.025c1.633-0.002,3.238-0.424,4.661-1.225v7.955
				h-13.464c-0.531,0-0.961,0.432-0.961,0.963s0.43,0.961,0.961,0.961h55.778c0.53,0,0.962-0.43,0.962-0.961
				s-0.432-0.963-0.962-0.963h-0.962v-2.885h0.962c0.53,0,0.962-0.43,0.962-0.961s-0.432-0.963-0.962-0.963h-0.962v-0.961h0.962
				c0.53,0,0.962-0.43,0.962-0.961s-0.432-0.963-0.962-0.963h-0.962v-2.885H205.698L205.698,51.105z M159.018,19.038
				c0,0.111,0.013,0.221,0.019,0.333h-5.271c-1.593,0-2.885-1.292-2.885-2.885s1.292-2.885,2.885-2.885
				c0.255,0,0.5-0.101,0.681-0.281c0.18-0.181,0.281-0.426,0.281-0.681c-0.005-2.509,1.925-4.599,4.428-4.793
				c2.502-0.195,4.73,1.572,5.114,4.052C161.133,12.854,158.998,15.758,159.018,19.038z M167.23,61.684h-1.924v-9.369
				c0.346-0.32,0.666-0.666,0.962-1.033c0.296,0.367,0.617,0.713,0.962,1.033V61.684L167.23,61.684z M167.347,49.463l6.333-6.332
				c0.37-0.377,0.367-0.98-0.006-1.354c-0.374-0.373-0.978-0.377-1.354-0.006l-5.09,5.09v-9.783l4.527-4.525
				c0.371-0.377,0.369-0.983-0.005-1.356c-0.374-0.374-0.979-0.377-1.355-0.004l-3.167,3.167v-4.411
				c0-0.531-0.431-0.962-0.962-0.962s-0.962,0.431-0.962,0.962v4.411l-3.166-3.167c-0.377-0.373-0.982-0.37-1.355,0.004
				c-0.374,0.373-0.376,0.979-0.005,1.356l4.526,4.525v9.783l-5.09-5.09c-0.376-0.373-0.982-0.371-1.355,0.004
				c-0.374,0.373-0.376,0.979-0.004,1.355l6.332,6.332c-1.407,2.213-3.844,3.557-6.467,3.566c-4.399-0.078-7.906-3.701-7.841-8.102
				c-0.041-3.479,2.158-6.59,5.452-7.713c0.317-0.105,0.559-0.367,0.635-0.695c0.076-0.326-0.023-0.668-0.262-0.902
				c-1.322-1.299-2.063-3.076-2.053-4.928c-0.062-3.67,2.839-6.707,6.508-6.811c0.396,0.035,0.776-0.17,0.964-0.521
				c0.164-0.324,0.132-0.711-0.083-1.003c-0.713-0.959-1.099-2.122-1.101-3.316c-0.047-2.991,2.335-5.457,5.326-5.512
				c2.991,0.056,5.373,2.521,5.326,5.512c-0.002,1.195-0.388,2.357-1.101,3.316c-0.211,0.294-0.236,0.682-0.068,1.001
				c0.17,0.325,0.507,0.528,0.873,0.527c3.695,0.066,6.641,3.11,6.584,6.807c0.01,1.852-0.73,3.629-2.052,4.928
				c-0.239,0.234-0.339,0.576-0.263,0.902c0.076,0.328,0.317,0.59,0.636,0.695c3.693,1.293,5.944,5.029,5.36,8.898
				c-0.584,3.867-3.84,6.773-7.75,6.916C171.191,53.02,168.754,51.676,167.347,49.463z M202.812,61.684h-15.387v-2.885h15.387
				V61.684z M202.812,56.875h-15.387v-0.961h15.387V56.875z M202.812,53.99h-15.387v-2.885h15.387V53.99z"/>
			<path fill="#214260" stroke="#FFFFFF" stroke-width="0.5" stroke-miterlimit="10" d="M190.31,29.949h11.54
				c2.479,0,4.554-1.886,4.788-4.354c0.234-2.468-1.447-4.71-3.883-5.177c-0.439-3.351-3.295-5.855-6.675-5.855
				c-3.379,0-6.235,2.504-6.675,5.855c-2.436,0.467-4.116,2.709-3.882,5.177C185.757,28.063,187.831,29.949,190.31,29.949z
				 M190.31,22.255c0.256,0,0.5-0.102,0.681-0.282s0.282-0.425,0.282-0.68c0-2.655,2.152-4.808,4.808-4.808s4.809,2.153,4.809,4.808
				c0,0.255,0.102,0.5,0.282,0.68c0.18,0.181,0.424,0.282,0.68,0.282c1.594,0,2.885,1.291,2.885,2.885s-1.291,2.885-2.885,2.885
				H190.31c-1.593,0-2.885-1.291-2.885-2.885S188.717,22.255,190.31,22.255z"/>
		</g>
	</g>
</g>
<g>
	<g>
		<path fill="#214260" stroke="#FFFFFF" stroke-width="0.5" stroke-miterlimit="10" d="M-3.64,118.214v-8.242
			c0-1.497-1.219-2.717-2.717-2.717h-25.355c-1.499,0-2.717,1.22-2.717,2.717v8.242c-2.063,0.42-3.622,2.249-3.622,4.436v5.434
			v9.055c0,0.5,0.406,0.905,0.905,0.905h3.623c0.499,0,0.905-0.405,0.905-0.905v-2.717h27.166v2.717c0,0.5,0.405,0.905,0.905,0.905
			h3.622c0.501,0,0.905-0.405,0.905-0.905v-9.055v-5.434C-0.019,120.463-1.578,118.634-3.64,118.214z M-32.618,109.972
			c0-0.499,0.406-0.905,0.906-0.905h25.355c0.498,0,0.905,0.406,0.905,0.905v8.151h-1.811v-3.624c0-1.497-1.22-2.716-2.717-2.716
			h-5.434c-1.498,0-2.716,1.219-2.716,2.716v3.624h-1.811v-3.624c0-1.497-1.219-2.716-2.717-2.716h-5.433
			c-1.498,0-2.716,1.219-2.716,2.716v3.624h-1.811V109.972z M-9.074,114.499v3.624h-7.244v-3.624c0-0.498,0.406-0.905,0.905-0.905
			h5.434C-9.481,113.594-9.074,114.001-9.074,114.499z M-21.752,114.499v3.624h-7.244v-3.624c0-0.498,0.406-0.905,0.905-0.905h5.433
			C-22.158,113.594-21.752,114.001-21.752,114.499z M-1.83,136.232H-3.64v-2.717c0-0.5-0.405-0.905-0.906-0.905h-28.977
			c-0.5,0-0.906,0.405-0.906,0.905v2.717h-1.811v-7.244H-1.83V136.232z M-1.83,127.178H-36.24v-4.528
			c0-1.498,1.219-2.717,2.717-2.717h3.622h9.055h3.623h9.056h3.621c1.498,0,2.717,1.219,2.717,2.717V127.178z"/>
	</g>
</g>
<g>
	<g>
		<path fill="#214260" stroke="#FFFFFF" stroke-width="0.5" stroke-miterlimit="10" d="M15.376,118.123H2.699
			c-0.5,0-0.906,0.405-0.906,0.904v7.244v6.339h1.811v-5.433h10.868v5.433h1.811v-6.339v-7.244
			C16.282,118.528,15.875,118.123,15.376,118.123z M14.471,125.366H3.603v-5.434h10.868V125.366z"/>
	</g>
</g>
<g>
	<g>
		
			<rect x="7.226" y="121.743" fill="#214260" stroke="#FFFFFF" stroke-width="0.5" stroke-miterlimit="10" width="3.622" height="1.812"/>
	</g>
</g>
<g>
	<g>
		<path fill="#214260" stroke="#FFFFFF" stroke-width="0.5" stroke-miterlimit="10" d="M13.519,110.59l-1.812-5.434
			c-0.124-0.369-0.469-0.617-0.859-0.617H7.226c-0.391,0-0.735,0.248-0.859,0.619l-1.811,5.434
			c-0.093,0.275-0.046,0.578,0.124,0.814c0.171,0.237,0.444,0.377,0.735,0.377h2.716v2.716H6.321v1.812h5.434v-1.812H9.943v-2.716
			h2.716c0.292,0,0.564-0.14,0.735-0.377C13.563,111.168,13.61,110.867,13.519,110.59z M6.671,109.972l1.207-3.622h2.317
			l1.207,3.622H6.671z"/>
	</g>
</g>
<g>
	<g>
		<path fill="#214260" stroke="#FFFFFF" stroke-width="0.5" stroke-miterlimit="10" d="M15.747,95.562l-26.261-11.772
			c-0.237-0.104-0.505-0.104-0.741,0l-26.26,11.772c-0.327,0.147-0.536,0.47-0.536,0.827v10.866h1.811v-10.28l25.356-11.365
			l25.355,11.365v10.28h1.811V96.389C16.282,96.031,16.073,95.709,15.747,95.562z"/>
	</g>
</g>
<g>
	<g>
		<path fill="#214260" stroke="#FFFFFF" stroke-width="0.5" stroke-miterlimit="10" d="M-4.634,96.238l-1.787,0.3
			c0.044,0.248,0.064,0.501,0.064,0.756c0,2.496-2.031,4.528-4.527,4.528c-2.497,0-4.528-2.032-4.528-4.528
			c0-2.497,2.031-4.528,4.528-4.528c0.517,0,1.026,0.088,1.51,0.259l0.604-1.708c-0.679-0.24-1.39-0.361-2.113-0.361
			c-3.496,0-6.339,2.844-6.339,6.339s2.844,6.339,6.339,6.339c3.495,0,6.338-2.844,6.338-6.339
			C-4.546,96.939-4.576,96.584-4.634,96.238z"/>
	</g>
</g>
<g>
	<g>
		<path fill="#214260" stroke="#FFFFFF" stroke-width="0.5" stroke-miterlimit="10" d="M-5.187,91.221l-5.697,5.699l-1.172-1.172
			l-1.28,1.28l1.811,1.812c0.177,0.178,0.408,0.266,0.641,0.266c0.231,0,0.463-0.088,0.64-0.266l6.339-6.339L-5.187,91.221z"/>
	</g>
</g>
<g>
	<path fill="#214260" stroke="#FFFFFF" stroke-width="0.6" stroke-miterlimit="10" d="M119.73,103.354
		c0-1.245-0.801-2.329-1.991-2.694c-0.009-0.003-0.019-0.006-0.028-0.008l-24.484-6.695c-2.365-0.724-4.86-0.724-7.226,0
		l-24.484,6.695c-0.01,0.002-0.02,0.005-0.029,0.008c-1.19,0.365-1.99,1.449-1.99,2.694c0,0.086,0.014,0.169,0.035,0.247
		c-0.021,0.08-0.035,0.162-0.035,0.248v0.94c0,1.559,1.267,2.823,2.824,2.823h13.176c0.723,0,1.382-0.271,1.882-0.721
		c0.5,0.449,1.16,0.721,1.882,0.721h9.412v17.881H79.26c-0.52,0-0.94,0.422-0.94,0.941c0,0.521,0.421,0.941,0.94,0.941h7.529v0.941
		c0,1.227,0.787,2.273,1.883,2.662v4.963c-2.146,0.436-3.765,2.338-3.765,4.609c0,0.521,0.421,0.941,0.94,0.941
		c0.521,0,0.941-0.42,0.941-0.941c0-1.227,0.787-2.271,1.883-2.66v2.66c0,0.521,0.421,0.941,0.941,0.941
		c0.52,0,0.94-0.42,0.94-0.941v-2.66c1.096,0.389,1.883,1.434,1.883,2.66c0,0.521,0.422,0.941,0.941,0.941s0.941-0.42,0.941-0.941
		c0-2.271-1.62-4.174-3.766-4.609v-4.963c1.096-0.389,1.883-1.436,1.883-2.662v-0.941h7.529c0.52,0,0.941-0.42,0.941-0.941
		c0-0.52-0.422-0.941-0.941-0.941h-9.412v-17.881h9.412c0.722,0,1.382-0.271,1.882-0.721c0.499,0.449,1.161,0.721,1.883,0.721
		h13.176c1.556,0,2.823-1.265,2.823-2.823v-0.94c0-0.086-0.014-0.168-0.035-0.248C119.716,103.523,119.73,103.44,119.73,103.354z
		 M90.554,128.318c0,0.52-0.422,0.941-0.94,0.941c-0.52,0-0.941-0.422-0.941-0.941v-0.941h1.882V128.318z M77.107,101.025h-9.824
		l16.872-4.611C81.413,98.302,78.009,100.459,77.107,101.025z M88.027,95.922c0.934-0.748,2.241-0.746,3.179,0.004
		c0.019,0.016,0.04,0.031,0.062,0.045l7.501,5.055H80.609C82.988,99.492,86.313,97.293,88.027,95.922z M75.497,105.731H62.321
		c-0.52,0-0.941-0.422-0.941-0.941v-0.94c0-0.086-0.012-0.168-0.034-0.248c0.022-0.078,0.034-0.161,0.034-0.247
		c0-0.161,0.041-0.312,0.112-0.446h14.946v1.882C76.438,105.31,76.015,105.731,75.497,105.731z M99.966,105.731H79.26
		c-0.519,0-0.94-0.422-0.94-0.941v-1.882h22.588v1.882C100.908,105.31,100.484,105.731,99.966,105.731z M117.847,104.79
		c0,0.52-0.423,0.941-0.94,0.941h-13.176c-0.52,0-0.941-0.422-0.941-0.941v-1.882h0.941c0.519,0,0.94-0.421,0.94-0.941
		c0-0.52-0.422-0.941-0.94-0.941h-1.596l-6.694-4.512l16.503,4.512h-4.448c-0.52,0-0.941,0.422-0.941,0.941
		c0,0.521,0.422,0.941,0.941,0.941h10.239c0.071,0.135,0.112,0.285,0.112,0.446c0,0.086,0.014,0.169,0.034,0.247
		c-0.021,0.08-0.034,0.162-0.034,0.248V104.79z"/>
	<path fill="#214260" stroke="#FFFFFF" stroke-width="0.6" stroke-miterlimit="10" d="M78.32,134.828v-4.393
		c0-0.648-0.528-1.176-1.177-1.176h-9.176v-6.588c0-1.557-1.267-2.824-2.823-2.824c-0.521,0-0.941,0.422-0.941,0.941
		c0,0.521,0.421,0.941,0.941,0.941c0.519,0,0.94,0.422,0.94,0.941v7.527v4.629l-0.928,5.57c-0.086,0.514,0.261,0.998,0.773,1.084
		c0.053,0.008,0.104,0.012,0.156,0.012c0.451,0,0.85-0.326,0.927-0.787l0.81-4.859h8.759l0.81,4.859
		c0.077,0.461,0.476,0.787,0.927,0.787c0.052,0,0.104-0.004,0.157-0.012c0.512-0.086,0.858-0.57,0.772-1.084L78.32,134.828z
		 M76.438,133.965h-8.471v-2.824h8.471V133.965z"/>
	<path fill="#214260" stroke="#FFFFFF" stroke-width="0.6" stroke-miterlimit="10" d="M114.083,119.848
		c-1.559,0-2.824,1.268-2.824,2.824v6.588h-9.177c-0.648,0-1.175,0.527-1.175,1.176v4.393l-0.929,5.57
		c-0.086,0.514,0.261,0.998,0.772,1.084c0.053,0.008,0.105,0.012,0.156,0.012c0.451,0,0.851-0.326,0.928-0.787l0.81-4.859h8.757
		l0.812,4.859c0.076,0.461,0.474,0.787,0.926,0.787c0.053,0,0.104-0.004,0.157-0.012c0.512-0.086,0.858-0.57,0.772-1.084
		l-0.928-5.57v-4.629v-7.527c0-0.52,0.422-0.941,0.941-0.941c0.519,0,0.94-0.42,0.94-0.941
		C115.024,120.27,114.602,119.848,114.083,119.848z M102.79,131.141h8.47v2.824h-8.47V131.141z"/>
</g>
<g>
	<path fill="#214260" stroke="#FFFFFF" stroke-width="0.5" stroke-miterlimit="10" d="M60.037,16.898l-9.066-2.866
		c-0.464-0.147-0.96,0.11-1.106,0.574c-0.146,0.465,0.11,0.959,0.575,1.107l9.065,2.866c0.118,0.039,0.198,0.147,0.198,0.272v33.859
		c0,0.308-0.25,0.559-0.557,0.559h-4.481V21.457c0-1.069-0.87-1.939-1.939-1.939H10.087c-1.069,0-1.938,0.87-1.938,1.939V53.27H3.89
		c-0.307,0-0.557-0.251-0.557-0.559V18.852c0-0.125,0.079-0.233,0.198-0.272L31.148,9.84c0.242-0.078,0.499-0.078,0.739,0
		l14.744,4.667c0.464,0.148,0.959-0.109,1.106-0.574c0.147-0.464-0.11-0.96-0.574-1.107l-14.744-4.67
		c-0.589-0.185-1.213-0.185-1.803,0L3,16.899c-0.856,0.271-1.432,1.055-1.432,1.953v33.859c0,1.28,1.042,2.321,2.321,2.321h55.256
		c1.279,0,2.32-1.041,2.32-2.321V18.852C61.466,17.954,60.891,17.17,60.037,16.898z M17.776,39.83h15.081
		c0.486,0,0.881-0.395,0.881-0.882s-0.395-0.881-0.881-0.881H20.214l0.839-3.595c0.242-1.037,1.154-1.761,2.22-1.761h16.079
		c1.064,0,1.977,0.724,2.219,1.761l0.839,3.595h-5.477c-0.487,0-0.882,0.394-0.882,0.881s0.395,0.882,0.882,0.882h8.032
		c0.422,0,0.765,0.343,0.765,0.764v8.426c0,0.42-0.343,0.765-0.765,0.765H17.776c-0.485,0-0.882-0.397-0.882-0.883v-8.189
		C16.894,40.226,17.291,39.83,17.776,39.83z M42.214,53.261h-1.989c-0.194,0-0.354-0.159-0.354-0.353v-1.361h2.753v1.302
		C42.625,53.076,42.44,53.261,42.214,53.261z M19.999,51.547h2.754v1.302c0,0.228-0.185,0.412-0.412,0.412h-1.989
		c-0.194,0-0.353-0.159-0.353-0.353V51.547z M24.516,52.849v-1.302h13.593v1.361c0,0.123,0.012,0.243,0.033,0.361H24.475
		C24.501,53.133,24.516,52.993,24.516,52.849z M44.347,53.27c0.027-0.137,0.042-0.276,0.042-0.421v-1.302h0.576
		c1.395,0,2.528-1.134,2.528-2.527v-8.426c0-1.178-0.812-2.169-1.906-2.446h1.738c0.487,0,0.882-0.396,0.882-0.882
		c0-0.487-0.395-0.882-0.882-0.882h-3.498l-0.539-2.312c-0.431-1.839-2.049-3.123-3.937-3.123H23.273
		c-1.888,0-3.508,1.284-3.937,3.123l-0.541,2.312h-3.496c-0.487,0-0.883,0.395-0.883,0.882c0,0.486,0.396,0.882,0.883,0.882h1.828
		c-1.146,0.289-1.996,1.329-1.996,2.563v8.19c0,1.458,1.187,2.646,2.645,2.646h0.459v1.361c0,0.123,0.013,0.243,0.033,0.361H9.912
		V28.526h8.258c0.487,0,0.882-0.395,0.882-0.882c0-0.487-0.395-0.882-0.882-0.882H9.912v-5.305c0-0.097,0.079-0.175,0.176-0.175
		h42.637c0.098,0,0.177,0.079,0.177,0.175v5.305H22.372c-0.486,0-0.882,0.395-0.882,0.882c0,0.487,0.396,0.882,0.882,0.882h30.529
		V53.27H44.347z"/>
	<path fill="#214260" stroke="#FFFFFF" stroke-width="0.5" stroke-miterlimit="10" d="M21.043,47.196
		c1.725,0,3.128-1.402,3.128-3.128c0-1.724-1.403-3.127-3.128-3.127s-3.128,1.403-3.128,3.127
		C17.916,45.794,19.319,47.196,21.043,47.196z M21.043,42.704c0.753,0,1.364,0.612,1.364,1.364c0,0.753-0.611,1.364-1.364,1.364
		c-0.752,0-1.363-0.611-1.363-1.364C19.68,43.316,20.292,42.704,21.043,42.704z"/>
	<path fill="#214260" stroke="#FFFFFF" stroke-width="0.5" stroke-miterlimit="10" d="M41.581,47.196
		c1.726,0,3.128-1.402,3.128-3.128c0-1.724-1.403-3.127-3.128-3.127s-3.128,1.403-3.128,3.127
		C38.453,45.794,39.856,47.196,41.581,47.196z M41.581,42.704c0.752,0,1.364,0.612,1.364,1.364c0,0.753-0.612,1.364-1.364,1.364
		s-1.364-0.611-1.364-1.364C40.216,43.316,40.829,42.704,41.581,42.704z"/>
	<path fill="#214260" stroke="#FFFFFF" stroke-width="0.5" stroke-miterlimit="10" d="M26.395,48.615h9.834
		c0.681,0,1.234-0.553,1.234-1.234V45.25c0-0.681-0.554-1.235-1.234-1.235h-9.834c-0.681,0-1.234,0.555-1.234,1.235v2.131
		C25.161,48.062,25.714,48.615,26.395,48.615z M26.924,45.778h8.776v1.073h-8.776V45.778z"/>
</g>
</svg>
