<?xml version="1.0" encoding="utf-8"?>
<!-- Generator: Adobe Illustrator 16.0.0, SVG Export Plug-In . SVG Version: 6.00 Build 0)  -->
<!DOCTYPE svg PUBLIC "-//W3C//DTD SVG 1.1//EN" "http://www.w3.org/Graphics/SVG/1.1/DTD/svg11.dtd">
<svg version="1.1" id="Layer_1" xmlns="http://www.w3.org/2000/svg" xmlns:xlink="http://www.w3.org/1999/xlink" x="0px" y="0px"
	 width="63.036px" height="63.051px" viewBox="0 0 63.036 63.051" enable-background="new 0 0 63.036 63.051" xml:space="preserve">
<g id="_x39_MoMZW_1_">
	<g>
		<path fill-rule="evenodd" clip-rule="evenodd" fill="#214260" stroke="#FFFFFF" stroke-miterlimit="10" d="M4.248,14.029
			c0.413-0.774,0.942-1.048,1.55-0.78c0.539,0.236,0.699,0.691,0.697,1.247c-0.006,2.341-0.002,4.681-0.002,7.021
			c0,0.19,0,0.38,0,0.642c0.23,0,0.417,0,0.603,0c1.601,0,3.203-0.002,4.803,0.001c3.432,0.007,5.853,2.421,5.864,5.843
			c0.001,0.279,0,0.559,0,0.914c0.248,0,0.468,0,0.689,0c12.738,0,25.479,0,38.219,0c1.292,0,1.637,0.34,1.637,1.615
			c0.001,4.205,0.002,8.41-0.001,12.616c-0.001,0.21-0.001,0.425-0.045,0.628c-0.125,0.574-0.577,0.912-1.142,0.885
			c-0.557-0.028-1.004-0.42-1.029-1.005c-0.041-0.913-0.021-1.829-0.027-2.744c-0.001-0.223,0-0.446,0-0.696
			c-16.547,0-33.025,0-49.57,0c0,0.902,0,1.777,0,2.652c0,0.123,0.002,0.246,0.002,0.369c-0.002,0.811-0.278,1.267-0.846,1.399
			c-0.597,0.139-1.016-0.11-1.401-0.832C4.248,33.88,4.248,23.955,4.248,14.029z M56.03,31.203c-16.533,0-33.01,0-49.503,0
			c0,2.248,0,4.456,0,6.688c16.513,0,32.992,0,49.503,0C56.03,35.655,56.03,33.448,56.03,31.203z M6.499,28.883
			c3.043,0,6.008,0,9.017,0c0-0.364,0.015-0.695-0.002-1.025c-0.105-2.008-1.342-3.337-3.349-3.429
			c-1.772-0.082-3.551-0.023-5.328-0.007c-0.113,0.001-0.322,0.177-0.324,0.273C6.492,26.081,6.499,27.466,6.499,28.883z"/>
	</g>
</g>
<g>
	<g>
		<g>
			<path fill="#214260" stroke="#FFFFFF" stroke-width="0.5" stroke-miterlimit="10" d="M142.879,21.187
				c-0.164-0.168-0.39-0.258-0.623-0.258c-0.23,0-0.456,0.09-0.621,0.258c-0.165,0.162-0.26,0.392-0.26,0.621
				c0,0.23,0.095,0.457,0.26,0.623c0.165,0.166,0.391,0.258,0.621,0.258c0.233,0,0.459-0.092,0.623-0.258
				c0.165-0.166,0.26-0.392,0.26-0.623C143.139,21.579,143.044,21.348,142.879,21.187z"/>
		</g>
	</g>
	<g>
		<g>
			<path fill="#214260" stroke="#FFFFFF" stroke-width="0.5" stroke-miterlimit="10" d="M113.796,24.007
				c-0.164-0.164-0.392-0.258-0.622-0.258c-0.232,0-0.458,0.094-0.624,0.258c-0.164,0.164-0.258,0.39-0.258,0.623
				s0.094,0.46,0.258,0.624c0.166,0.166,0.392,0.258,0.624,0.258c0.23,0,0.458-0.092,0.622-0.258
				c0.164-0.164,0.258-0.391,0.258-0.624S113.96,24.171,113.796,24.007z"/>
		</g>
	</g>
	<g>
		<g>
			<path fill="#214260" stroke="#FFFFFF" stroke-width="0.5" stroke-miterlimit="10" d="M144.131,0.39
				c-2.154-3.776-5.781-6.602-9.953-7.758c-0.47-0.129-0.956,0.146-1.086,0.614c-0.129,0.47,0.146,0.956,0.615,1.085
				c3.728,1.033,6.968,3.559,8.891,6.933c0.163,0.283,0.462,0.443,0.767,0.443c0.149,0,0.3-0.036,0.437-0.116
				C144.224,1.352,144.372,0.813,144.131,0.39z"/>
		</g>
	</g>
	<g>
		<g>
			<path fill="#214260" stroke="#FFFFFF" stroke-width="0.5" stroke-miterlimit="10" d="M129.848-7.966h-0.094
				c-0.487,0-0.882,0.395-0.882,0.881c0,0.487,0.395,0.882,0.882,0.882h0.084c0.002,0,0.004,0,0.004,0
				c0.485,0,0.879-0.393,0.881-0.878C130.728-7.564,130.334-7.964,129.848-7.966z"/>
		</g>
	</g>
	<g>
		<g>
			<path fill="#214260" stroke="#FFFFFF" stroke-width="0.5" stroke-miterlimit="10" d="M151.684,9.205
				c0-0.486-0.396-0.883-0.882-0.883h-1.076c-0.218-5.175-2.336-10.011-6.022-13.699c-2.997-3-6.756-4.958-10.842-5.702v-0.476
				c0-2.064-1.678-3.739-3.739-3.739c-2.061,0-3.735,1.675-3.735,3.739v0.476c-4.087,0.743-7.848,2.702-10.845,5.702
				c-3.687,3.688-5.806,8.524-6.021,13.699h-1.076c-0.486,0-0.882,0.397-0.882,0.883c0,2.593,1.762,4.783,4.15,5.44l-3.653,1.769
				c-0.438,0.212-0.619,0.736-0.408,1.177c0.212,0.438,0.739,0.62,1.178,0.41l4.441-2.15L117.188,26l-4.441,2.152
				c-0.438,0.212-0.621,0.738-0.411,1.175c0.154,0.316,0.468,0.5,0.796,0.5c0.129,0,0.258-0.03,0.382-0.088l5.236-2.537
				c0.21-0.101,0.37-0.284,0.448-0.505c0.077-0.221,0.062-0.463-0.039-0.671l-0.418-0.86l12.639,2.568
				c0.591,0.121,1.188,0.18,1.785,0.18c2.178,0,4.321-0.785,5.981-2.232l1.65-1.441c0.368-0.32,0.405-0.876,0.083-1.243
				c-0.318-0.367-0.875-0.402-1.24-0.083l-1.651,1.441c-1.703,1.483-4.042,2.102-6.257,1.652l-13.955-2.837l-2.641-5.449
				l6.112-2.458c1.317-0.531,2.775-0.544,4.104-0.038l6.297,2.4c0.34,0.127,0.598,0.383,0.733,0.72
				c0.136,0.335,0.122,0.701-0.033,1.026c-0.271,0.57-0.91,0.855-1.516,0.676l-5.094-1.492c-0.466-0.137-0.956,0.13-1.095,0.598
				c-0.137,0.466,0.132,0.955,0.6,1.095l5.092,1.495c0.289,0.082,0.58,0.124,0.865,0.124c0.861,0,1.678-0.367,2.254-1.007
				l0.309,0.019c0.214,0.013,0.426,0.019,0.639,0.019c2.227,0,4.402-0.72,6.192-2.062l4.638-3.472
				c0.374-0.281,0.903-0.262,1.259,0.044c0.224,0.19,0.349,0.462,0.35,0.759c0.001,0.296-0.122,0.567-0.345,0.761l-2.569,2.239
				c-0.367,0.323-0.404,0.879-0.084,1.246c0.319,0.367,0.876,0.407,1.243,0.084l2.567-2.24c0.606-0.53,0.954-1.292,0.95-2.096
				c-0.003-0.615-0.208-1.203-0.574-1.682C150.162,13.677,151.684,11.618,151.684,9.205z M127.148-11.555L127.148-11.555
				c0-1.09,0.886-1.976,1.975-1.976s1.977,0.885,1.977,1.976v0.231c-0.653-0.06-1.312-0.093-1.977-0.093
				c-0.663,0-1.322,0.033-1.975,0.093V-11.555L127.148-11.555z M129.123-9.654c10.104,0,18.377,7.986,18.838,17.976h-37.675
				C110.747-1.667,119.021-9.654,129.123-9.654z M114.366,16.133l-0.623-1.288h3.824L114.366,16.133z M139.541,17.428
				c-1.533,1.147-3.412,1.749-5.321,1.707c0.049-0.484-0.015-0.981-0.201-1.442c-0.313-0.789-0.949-1.413-1.74-1.713l-2.976-1.133
				h13.685L139.541,17.428z M146.044,13.081h-33.841c-1.835,0-3.376-1.28-3.777-2.994h41.394
				C149.42,11.801,147.878,13.081,146.044,13.081z"/>
		</g>
	</g>
	<g>
		<g>
			<path fill="#214260" stroke="#FFFFFF" stroke-width="0.5" stroke-miterlimit="10" d="M130.777-3.001
				c-0.587,0-1.16,0.173-1.654,0.483c-0.491-0.31-1.067-0.483-1.653-0.483c-1.739,0-3.156,1.458-3.156,3.246
				c0,2.598,3.88,5.257,4.321,5.552c0.147,0.098,0.319,0.147,0.488,0.147c0.171,0,0.343-0.049,0.489-0.147
				c0.443-0.295,4.322-2.954,4.322-5.552C133.934-1.544,132.518-3.001,130.777-3.001z M129.125,3.984
				c-1.23-0.92-3.051-2.599-3.051-3.74c0-0.814,0.628-1.48,1.396-1.48c0.383,0,0.737,0.159,1.002,0.449
				c0.169,0.185,0.404,0.29,0.651,0.29c0.249,0,0.485-0.104,0.651-0.29c0.266-0.291,0.622-0.449,1.004-0.449
				c0.77,0,1.393,0.666,1.393,1.48C132.17,1.306,130.522,2.946,129.125,3.984z"/>
		</g>
	</g>
</g>
<g id="Bl9309_1_">
	<g>
		<path fill-rule="evenodd" clip-rule="evenodd" fill="#214260" stroke="#FFFFFF" stroke-width="0.5" stroke-miterlimit="10" d="
			M275.85,25.805c-0.771-0.241-1.477-0.579-2.045-1.188c-1.771-1.898-1.486-5.213,0.613-6.542c0.532-0.337,1.158-0.534,1.752-0.764
			c1.915-0.743,3.834-1.471,5.752-2.206c0.088-0.033,0.173-0.073,0.328-0.138c-1.004-0.384-1.948-0.746-2.894-1.107
			c-1.333-0.511-2.649-1.073-4.003-1.521c-2.827-0.934-3.253-3.832-2.163-5.903c0.884-1.677,2.24-2.33,4.296-2.086
			c-0.032-0.662-0.081-1.321-0.094-1.981c-0.021-1.228,0.25-2.396,0.706-3.536c0.378-0.944,0.715-1.909,1.017-2.878
			c0.197-0.635,0.069-1.294-0.208-1.874c-0.749-1.568-1.551-3.11-2.329-4.665c-0.194-0.386-0.438-0.76-0.558-1.169
			c-0.159-0.547,0.092-0.965,0.578-1.265c1.796-1.106,3.649-0.976,5.531-0.278c0.851,0.315,1.6,0.803,2.287,1.396
			c0.38,0.328,0.778,0.643,1.199,0.914c0.577,0.371,0.812,0.304,1.165-0.267c2.32-3.757,2.816-7.722,1.279-11.885
			c-0.479-1.299-1.091-2.549-1.623-3.829c-0.161-0.387-0.297-0.792-0.382-1.202c-0.183-0.882,0.211-1.514,1.068-1.792
			c0.061-0.019,0.116-0.056,0.174-0.083c0.49,0,0.98,0,1.472,0c0.759,0.188,1.539,0.318,2.273,0.576
			c4.006,1.401,6.836,4.15,8.841,7.82c0.241,0.442,0.107,0.917-0.278,1.141c-0.423,0.245-0.904,0.108-1.176-0.379
			c-0.777-1.402-1.686-2.706-2.841-3.822c-2.047-1.981-4.388-3.387-7.292-3.667c-0.187-0.018-0.376-0.002-0.63-0.002
			c0.096,0.26,0.172,0.487,0.262,0.708c0.664,1.637,1.443,3.237,1.974,4.917c1.391,4.402,0.658,8.551-1.766,12.433
			c-0.797,1.276-1.957,1.566-3.26,0.802c-0.548-0.321-1.051-0.729-1.538-1.139c-1.3-1.096-2.771-1.659-4.48-1.472
			c-0.355,0.039-0.7,0.187-1.112,0.303c0.117,0.189,0.189,0.312,0.268,0.432c1.006,1.547,1.752,3.224,2.445,4.926
			c0.543,1.337,0.429,2.665-0.062,3.983c-0.247,0.664-0.506,1.321-0.782,1.973c-0.739,1.742-0.711,3.524-0.301,5.328
			c0.026,0.112,0.131,0.253,0.232,0.293c1.693,0.66,3.394,1.307,5.06,1.944c-0.053-0.973-0.146-1.934-0.146-2.895
			c-0.001-0.984,0.147-1.957,0.543-2.87c0.14-0.321,0.312-0.638,0.525-0.916c0.62-0.811,1.525-0.956,2.387-0.404
			c0.733,0.47,1.107,1.216,1.497,1.954c0.26,0.491,0.485,1.012,0.821,1.448c0.695,0.901,1.575,0.847,2.045-0.185
			c0.372-0.817,0.593-1.721,0.766-2.608c0.323-1.66,0.354-3.329-0.191-4.964c-0.099-0.296-0.237-0.578-0.356-0.866
			c-0.072-0.177-0.153-0.351-0.213-0.531c-0.266-0.807-0.378-1.616,0.247-2.312c0.627-0.699,1.46-0.725,2.307-0.566
			c1.281,0.239,2.289,0.974,3.216,1.841c1.589,1.487,2.772,3.244,3.476,5.31c0.077,0.228,0.088,0.518,0.021,0.745
			c-0.097,0.323-0.382,0.489-0.73,0.485c-0.381-0.004-0.614-0.212-0.781-0.552c-0.472-0.961-0.909-1.947-1.464-2.86
			c-0.64-1.055-1.53-1.913-2.521-2.65c-0.564-0.42-1.186-0.71-1.912-0.741c-0.371-0.015-0.463,0.152-0.383,0.47
			c0.05,0.197,0.103,0.398,0.192,0.579c1.089,2.185,1.136,4.488,0.739,6.824c-0.153,0.907-0.388,1.813-0.704,2.676
			c-0.427,1.162-1.21,2.008-2.525,2.162c-0.81,0.095-1.542-0.176-2.069-0.766c-0.491-0.55-0.873-1.201-1.275-1.826
			c-0.24-0.376-0.409-0.799-0.643-1.181c-0.131-0.213-0.328-0.385-0.585-0.679c-0.196,0.44-0.39,0.765-0.487,1.118
			c-0.494,1.768-0.364,3.531,0.115,5.28c0.035,0.127,0.181,0.27,0.309,0.32c2.231,0.866,4.467,1.722,6.707,2.565
			c0.158,0.06,0.379,0.055,0.54-0.005c1.834-0.686,3.664-1.384,5.489-2.095c0.137-0.054,0.282-0.215,0.326-0.357
			c0.539-1.712,0.825-3.465,0.766-5.266c-0.02-0.58,0.295-0.967,0.799-0.981c0.515-0.014,0.83,0.329,0.851,0.93
			c0.053,1.534-0.132,3.043-0.48,4.534c-0.018,0.077-0.032,0.154-0.062,0.301c0.53-0.199,1.005-0.376,1.479-0.558
			c1.601-0.612,3.197-1.234,4.805-1.831c0.309-0.115,0.484-0.28,0.598-0.589c0.998-2.709,1.358-5.517,1.297-8.386
			c-0.042-1.927-0.278-3.829-0.971-5.646c-0.135-0.355-0.297-0.701-0.476-1.037c-0.097-0.181-0.252-0.33-0.445-0.574
			c-0.21,0.706-0.382,1.301-0.562,1.894c-0.401,1.318-1.178,2.301-2.534,2.71c-1.397,0.42-2.784-0.258-3.525-1.673
			c-0.508-0.967-0.643-2.015-0.673-3.083c-0.06-2.077-0.326-4.122-0.906-6.122c-0.165-0.572,0.06-1.012,0.546-1.143
			c0.485-0.13,0.88,0.138,1.047,0.711c0.637,2.184,0.88,4.423,0.991,6.688c0.034,0.707,0.171,1.444,0.434,2.097
			c0.486,1.213,1.755,1.348,2.543,0.296c0.284-0.379,0.434-0.869,0.603-1.323c0.188-0.509,0.301-1.047,0.496-1.553
			c0.452-1.167,1.542-1.503,2.53-0.736c0.405,0.314,0.757,0.755,0.998,1.21c0.914,1.722,1.296,3.604,1.464,5.527
			c0.284,3.275,0.004,6.5-0.957,9.653c-0.02,0.063-0.019,0.132-0.026,0.193c0.426,0.032,0.856,0.009,1.257,0.104
			c1.725,0.417,2.666,1.621,3.063,3.269c0.517,2.145-0.452,3.903-2.511,4.688c-2.198,0.837-4.396,1.678-6.594,2.518
			c-0.101,0.039-0.201,0.08-0.361,0.143c0.169,0.078,0.289,0.141,0.416,0.189c2.133,0.817,4.244,1.702,6.407,2.43
			c2.345,0.789,3.234,3.333,2.525,5.415c-0.479,1.407-1.38,2.388-2.874,2.739c-0.035,0.007-0.063,0.044-0.096,0.067
			c-0.354,0-0.708,0-1.062,0c-0.252-0.093-0.506-0.184-0.757-0.28c-5.247-2.001-10.493-4.005-15.745-5.993
			c-0.217-0.083-0.516-0.093-0.73-0.012c-5.516,2.085-11.027,4.187-16.538,6.285C276.559,25.805,276.205,25.805,275.85,25.805z
			 M309.284,18.265c-0.228-0.091-0.39-0.158-0.554-0.221c-7.849-3.001-15.697-6.002-23.546-9.003
			c-2.528-0.967-5.057-1.93-7.582-2.901c-0.578-0.224-1.158-0.316-1.75-0.087c-0.907,0.352-1.564,1.469-1.559,2.619
			c0.004,1.055,0.465,1.67,1.557,2.087c10.023,3.827,20.047,7.654,30.07,11.48c0.604,0.23,1.207,0.458,1.861,0.708
			C307.426,21.094,307.879,19.549,309.284,18.265z M296.145,11.438c0.096,0.053,0.129,0.077,0.167,0.091
			c2.158,0.828,4.315,1.659,6.478,2.474c0.145,0.054,0.35,0.031,0.5-0.026c2.836-1.072,5.668-2.154,8.501-3.236
			c1.127-0.431,1.571-1.119,1.51-2.322c-0.097-1.89-1.626-2.912-3.387-2.245c-3.038,1.154-6.071,2.32-9.106,3.48
			C299.272,10.242,297.736,10.829,296.145,11.438z M291.455,18.506c-0.102-0.051-0.144-0.076-0.188-0.094
			c-2.157-0.827-4.312-1.656-6.475-2.469c-0.144-0.054-0.348-0.021-0.5,0.036c-1.704,0.64-3.404,1.293-5.104,1.943
			c-0.274,0.105-0.548,0.214-0.871,0.34c1.403,1.284,1.854,2.841,1.504,4.687C283.714,21.461,287.557,19.994,291.455,18.506z
			 M274.291,21.557c0.011,0.812,0.279,1.561,0.937,2.136c0.773,0.676,1.793,0.601,2.471-0.17c0.996-1.133,0.699-3.238-0.572-4.053
			c-0.723-0.465-1.56-0.369-2.156,0.254C274.492,20.223,274.3,20.833,274.291,21.557z M313.401,21.516
			c-0.158-0.469-0.249-0.977-0.486-1.401c-0.615-1.102-1.892-1.245-2.792-0.358c-0.893,0.878-1.084,2.399-0.437,3.471
			c0.651,1.077,1.911,1.237,2.805,0.353C313.055,23.022,313.289,22.329,313.401,21.516z"/>
	</g>
</g>
<g>
	<path fill="#214260" stroke="#FFFFFF" stroke-width="0.5" stroke-miterlimit="10" d="M-150.287,155.982
		c0.486,0,0.883-0.395,0.883-0.881c0-0.487-0.396-0.881-0.883-0.881s-0.881,0.394-0.881,0.881
		C-151.167,155.588-150.773,155.982-150.287,155.982z"/>
	<path fill="#214260" stroke="#FFFFFF" stroke-width="0.5" stroke-miterlimit="10" d="M-159.099,155.982
		c0.486,0,0.881-0.395,0.881-0.881c0-0.487-0.395-0.881-0.881-0.881c-0.488,0-0.88,0.394-0.88,0.881
		C-159.979,155.588-159.587,155.982-159.099,155.982z"/>
	<path fill="#214260" stroke="#FFFFFF" stroke-width="0.5" stroke-miterlimit="10" d="M-157.049,162.039
		c0.739,0.35,1.534,0.526,2.356,0.526c0.806,0,1.583-0.17,2.31-0.505c0.444-0.203,0.637-0.727,0.433-1.17
		c-0.204-0.441-0.728-0.635-1.168-0.432c-0.497,0.227-1.026,0.344-1.575,0.344c-0.562,0-1.102-0.121-1.604-0.356
		c-0.44-0.21-0.966-0.021-1.173,0.421C-157.678,161.305-157.49,161.832-157.049,162.039z"/>
	<path fill="#214260" stroke="#FFFFFF" stroke-width="0.5" stroke-miterlimit="10" d="M-135.257,175.877
		c0-4.845-5.519-8.646-10.251-8.827l-2.414-2.167c2.94-2.145,4.725-5.592,4.725-9.252v-5.817c0-5.345-4.361-9.694-9.724-9.694
		h-3.526c-5.354,0-9.663,4.334-9.663,9.694v5.817c0,3.656,1.761,7.096,4.663,9.236l-2.432,2.183
		c-4.721,0.182-10.251,3.974-10.251,8.827v8.479c0,0.49,0.396,0.885,0.882,0.885h37.108c0.487,0,0.882-0.395,0.882-0.885V175.877z
		 M-156.646,179.424h3.9l0.924,4.053h-5.775L-156.646,179.424z M-152.669,177.66h-4.032l-0.677-2.105l2.686-1.344l2.743,1.373
		L-152.669,177.66z M-154.693,171.565l-3.062-4.899c0.994,0.275,2.028,0.42,3.07,0.42c1.034,0,2.061-0.145,3.05-0.414
		L-154.693,171.565z M-153.433,172.871l4.232-6.77l2.283,2.051l-2.904,6.526L-153.433,172.871z M-156.447,141.883h3.526
		c4.39,0,7.96,3.557,7.96,7.931v0.729l-1.654-2.385c-0.148-0.215-0.387-0.352-0.649-0.376c-0.263-0.022-0.521,0.075-0.703,0.261
		c-1.791,1.834-3.866,2.652-6.726,2.652c-2.858,0-4.934-0.818-6.727-2.652c-0.184-0.188-0.443-0.283-0.707-0.261
		c-0.262,0.024-0.5,0.164-0.649,0.382l-1.571,2.302v-0.652C-164.347,145.439-160.802,141.883-156.447,141.883z M-164.347,155.631
		v-2.039l2.447-3.588c1.962,1.668,4.279,2.453,7.207,2.453c2.932,0,5.25-0.785,7.212-2.457l2.521,3.632v1.999
		c0,5.275-4.312,9.691-9.725,9.691C-160.078,165.322-164.347,160.92-164.347,155.631z M-160.185,166.104l4.232,6.768l-3.61,1.808
		l-2.904-6.526L-160.185,166.104z M-172.366,175.877c0-3.629,4.412-6.764,8.27-7.048l3.296,7.407
		c0.098,0.219,0.282,0.389,0.51,0.471c0.226,0.082,0.475,0.066,0.691-0.039l0.627-0.316l0.714,2.228l-1.148,4.897h-12.96V175.877z
		 M-137.021,183.477h-12.994l-1.113-4.883l0.768-2.217l0.574,0.291c0.218,0.107,0.469,0.121,0.69,0.039
		c0.229-0.082,0.412-0.252,0.511-0.471l3.296-7.407c3.858,0.284,8.269,3.419,8.269,7.048V183.477z"/>
	<path fill="#214260" stroke="#FFFFFF" stroke-width="0.5" stroke-miterlimit="10" d="M-143.237,179.424h-3.524
		c-0.486,0-0.881,0.395-0.881,0.881s0.395,0.881,0.881,0.881h3.524c0.486,0,0.883-0.395,0.883-0.881
		S-142.75,179.424-143.237,179.424z"/>
	<path fill="#214260" stroke="#FFFFFF" stroke-width="0.5" stroke-miterlimit="10" d="M-139.76,179.424
		c0.486,0,0.883,0.395,0.883,0.881c0,0.484-0.396,0.881-0.883,0.881s-0.881-0.396-0.881-0.881
		C-140.641,179.818-140.247,179.424-139.76,179.424z"/>
</g>
<g>
	<g>
		<g>
			<path fill="#214260" stroke="#FFFFFF" stroke-width="0.5" stroke-miterlimit="10" d="M63.104,176.738
				c1.033,0.902,2.545,0.922,3.602,0.045l2.582-2.154l-1.116,10.611h1.858l1.247-11.855h9.424l1.247,11.855h1.859l-0.965-9.145
				l1.516,2.271l0.377,1.877c0.182,0.906,0.75,1.678,1.562,2.119c0.461,0.249,0.964,0.373,1.473,0.373
				c0.389,0,0.78-0.072,1.152-0.222c0.802-0.319,1.438-0.968,1.746-1.774c0.305-0.809,0.263-1.713-0.127-2.488l-0.788-1.582
				l-0.013-0.016c-0.002-0.004-0.002-0.011-0.004-0.014l-5.543-10.166c-0.104-0.188-0.271-0.334-0.47-0.416l-2.505-1.002
				c1.879-1.526,3.086-3.854,3.086-6.457c0-1.391-0.367-2.764-1.042-3.99l-0.478-4.771c1.488-0.629,2.443-1.865,2.443-3.252
				c0-1.987-1.975-3.617-4.439-3.69c-0.982-1.703-2.803-2.776-4.803-2.776c-1.996,0-3.818,1.073-4.801,2.776
				c-2.463,0.073-4.438,1.703-4.438,3.69c0,1.387,0.953,2.623,2.441,3.252l-0.476,4.771c-0.677,1.227-1.042,2.6-1.042,3.99
				c0,2.604,1.203,4.931,3.084,6.457l-2.505,1.002c-0.146,0.059-0.277,0.157-0.376,0.281l-3.121,3.898l-3.767-3.014l-1.007-1.676
				c-0.169-0.287-0.389-0.531-0.623-0.75v-2.501c0-1.204-0.776-2.22-1.85-2.602v-3.867h0.926c1.525,0,2.771-1.245,2.771-2.774
				v-5.543c0-1.527-1.246-2.771-2.771-2.771h-3.697c-1.529,0-2.772,1.244-2.772,2.771v5.543c0,1.529,1.243,2.774,2.772,2.774h0.924
				v3.867c-1.074,0.382-1.849,1.397-1.849,2.602v3.7c-0.229,0.548-0.334,1.148-0.26,1.762c0.134,1.069,0.737,2,1.659,2.556
				l1.749,1.049L63.104,176.738z M55.658,153.982h-0.924c-0.509,0-0.924-0.416-0.924-0.928v-5.543c0-0.51,0.415-0.926,0.924-0.926
				h0.924V153.982z M71.642,171.539l1.364-5.182c0.035,0.014,0.073,0.024,0.109,0.037c0.186,0.07,0.374,0.137,0.564,0.189
				c0.074,0.023,0.148,0.039,0.22,0.057c0.178,0.047,0.354,0.094,0.535,0.125c0.089,0.018,0.181,0.027,0.271,0.041
				c0.167,0.025,0.334,0.056,0.506,0.07c0.118,0.01,0.238,0.014,0.356,0.02c0.14,0.006,0.279,0.021,0.419,0.021
				c0.144,0,0.281-0.016,0.421-0.021c0.12-0.006,0.238-0.01,0.359-0.02c0.169-0.015,0.336-0.043,0.503-0.07
				c0.091-0.014,0.182-0.023,0.272-0.041c0.18-0.031,0.357-0.08,0.532-0.125c0.074-0.02,0.148-0.033,0.221-0.057
				c0.192-0.053,0.381-0.119,0.564-0.189c0.036-0.014,0.074-0.023,0.109-0.037l1.364,5.182H71.642z M88.891,179.079
				c0.158,0.316,0.173,0.673,0.051,1.003c-0.127,0.331-0.377,0.584-0.706,0.717c-0.343,0.139-0.731,0.115-1.058-0.062
				c-0.327-0.18-0.561-0.488-0.632-0.854l-0.239-1.192l2.123-0.531L88.891,179.079z M82.731,167.652l4.812,8.822l-1.905,0.475
				l-3.249-4.871l-1.343-5.099L82.731,167.652z M68.596,146.586c0-0.999,1.269-1.846,2.771-1.846c0.053,0,0.105,0.005,0.156,0.012
				l0.148,0.014c0.391,0.023,0.763-0.193,0.919-0.557c0.586-1.362,1.92-2.242,3.396-2.242c1.479,0,2.813,0.88,3.399,2.242
				c0.154,0.363,0.534,0.586,0.917,0.557l0.15-0.014c0.051-0.007,0.102-0.012,0.156-0.012c1.501,0,2.77,0.847,2.77,1.846
				c0,0.74-0.746,1.447-1.816,1.719c-0.441,0.113-0.735,0.533-0.688,0.988l0.562,5.611H70.541l0.561-5.611
				c0.047-0.453-0.247-0.873-0.692-0.988C69.342,148.033,68.596,147.326,68.596,146.586z M69.52,158.6
				c0-0.627,0.093-1.248,0.272-1.848h12.391c0.18,0.6,0.274,1.221,0.274,1.848c0,2.566-1.507,4.781-3.676,5.828
				c-0.209,0.1-0.426,0.188-0.643,0.264c-0.009,0.007-0.02,0.008-0.03,0.012c-1.376,0.482-2.868,0.482-4.245,0
				c-0.01-0.004-0.019-0.005-0.029-0.012c-0.216-0.076-0.432-0.164-0.643-0.264C71.025,163.381,69.52,161.166,69.52,158.6z
				 M60.347,169.081l3.974,3.177c0.396,0.32,0.979,0.257,1.299-0.143l3.543-4.43l1.768-0.705l-1.307,4.961l-4.104,3.421
				c-0.351,0.292-0.856,0.288-1.201-0.015l-5.46-4.779L60.347,169.081z M57.505,146.586h0.924c0.512,0,0.927,0.416,0.927,0.926
				v5.543c0,0.512-0.415,0.928-0.927,0.928h-0.924V146.586z M55.658,162.298c0-0.511,0.417-0.925,0.924-0.925
				c0.51,0,0.924,0.414,0.924,0.925v1.604c-0.004,0-0.011,0-0.017-0.002c-0.021-0.002-0.04-0.012-0.063-0.014
				c-0.051-0.007-0.102,0.002-0.152-0.002c-0.158-0.014-0.319-0.018-0.479-0.008c-0.078,0.005-0.159,0.005-0.237,0.016
				c-0.19,0.025-0.376,0.068-0.56,0.125c-0.078,0.021-0.154,0.049-0.232,0.076c-0.034,0.014-0.07,0.021-0.106,0.036V162.298z
				 M55.385,167.533c-0.04-0.326,0.027-0.646,0.174-0.928c0.002-0.009,0.008-0.012,0.012-0.02c0.041-0.078,0.078-0.143,0.121-0.201
				c0.049-0.068,0.098-0.141,0.158-0.199c0.129-0.133,0.279-0.23,0.439-0.306c0.011-0.007,0.023-0.017,0.039-0.024
				c0.156-0.068,0.325-0.113,0.496-0.131c0.013,0,0.025-0.004,0.04-0.004c0.165-0.016,0.334,0,0.503,0.037
				c0.016,0.006,0.034,0.01,0.051,0.014c0.172,0.047,0.341,0.117,0.495,0.225c0,0,0.009,0.004,0.015,0.004
				c0.184,0.132,0.347,0.298,0.468,0.499l0.72,1.2l-1.75,1.752l-1.2-0.722C55.73,168.471,55.447,168.033,55.385,167.533z"/>
		</g>
	</g>
	<g>
		<g>
			<path fill="#214260" stroke="#FFFFFF" stroke-width="0.5" stroke-miterlimit="10" d="M78.76,177.084h-5.543
				c-0.51,0-0.926,0.41-0.926,0.922v2.771c0,2.039,1.657,3.695,3.695,3.695c2.04,0,3.699-1.656,3.699-3.695v-2.771
				C79.686,177.494,79.27,177.084,78.76,177.084z M77.836,180.777c0,1.021-0.828,1.85-1.85,1.85c-1.02,0-1.848-0.829-1.848-1.85
				v-1.848h3.697V180.777z"/>
		</g>
	</g>
</g>
<g>
	<g>
		<g>
			<path fill="#214260" stroke="#FFFFFF" stroke-width="0.5" stroke-miterlimit="10" d="M314.066,175.074h-2.281
				c-0.474,0-0.854,0.381-0.854,0.854c0,0.47,0.381,0.85,0.854,0.85h1.997v0.505H290.42v-0.505h8.69
				c0.782,0,1.419-0.637,1.419-1.418v-6.334h3.141v6.334c0,0.781,0.639,1.418,1.423,1.418h2.71c0.472,0,0.853-0.38,0.853-0.85
				c0-0.473-0.381-0.854-0.853-0.854h-2.427v-6.332c0-0.506-0.264-0.947-0.661-1.201v-13.004c0-0.471-0.381-0.852-0.852-0.852
				c-0.472,0-0.853,0.381-0.853,0.852v12.783h-1.82v-14.805h1.82v-1.844c0,0.469,0.381,0.854,0.853,0.854
				c0.471,0,0.852-0.385,0.852-0.854v0.991v-5.053v-4.466c0-1.115-0.909-2.025-2.025-2.025h-1.176c-1.12,0-2.029,0.91-2.029,2.025
				v4.466v5.053v15.878c-0.396,0.254-0.659,0.695-0.659,1.201v6.332h-3.29l0.045-0.674c1.481-0.242,2.615-1.535,2.615-3.084v-5.893
				c0.429-0.367,0.699-0.908,0.699-1.511v-0.243c0-1.098-0.893-1.99-1.989-1.99h-1.241c-0.109-1.714-1.541-3.08-3.283-3.08
				c-0.224,0-0.447,0.023-0.666,0.068c-0.509-1.533-1.959-2.645-3.654-2.645c-0.045,0-0.085,0.002-0.129,0.002
				c-0.626-0.861-1.641-1.394-2.726-1.394c-1.205,0-2.3,0.65-2.894,1.653c-0.193-0.035-0.392-0.053-0.59-0.053
				c-1.29,0-2.451,0.717-3.036,1.832c-1.917,0.355-3.461,1.785-4.011,3.615h-1.448c-1.099,0-1.991,0.893-1.991,1.99v0.243
				c0,0.61,0.277,1.159,0.715,1.522c-0.011,0.049-0.015,0.102-0.015,0.152v5.729c0,1.549,1.133,2.842,2.614,3.084l0.588,9.281
				c0.055,0.875,0.785,1.559,1.66,1.559h37.267c0.784,0,1.421-0.639,1.421-1.424v-2.205v-2.908v-2.207
				C315.487,175.711,314.85,175.074,314.066,175.074z M301.191,142.145c0-0.172,0.147-0.319,0.323-0.319h1.176
				c0.174,0,0.321,0.147,0.321,0.319v8.664h-1.82V142.145z M296.492,171.316c0,0.557-0.326,1.041-0.795,1.274l0.421-6.69h0.374
				V171.316z M279.346,159.693c0.341-0.028,0.635-0.256,0.74-0.579c0.236-0.704,0.895-1.175,1.637-1.175
				c0.247,0,0.486,0.053,0.712,0.154c0.227,0.103,0.488,0.103,0.715-0.004c0.226-0.104,0.396-0.301,0.461-0.543
				c0.198-0.711,0.854-1.211,1.596-1.211c0.639,0,1.229,0.375,1.501,0.957c0.165,0.357,0.55,0.555,0.937,0.477
				c0.138-0.027,0.279-0.04,0.417-0.04c1.173,0,2.133,0.954,2.144,2.124c0.002,0.312,0.175,0.596,0.448,0.746
				c0.272,0.145,0.604,0.131,0.866-0.039c0.258-0.164,0.556-0.252,0.862-0.252c0.802,0,1.465,0.598,1.569,1.371h-17.454
				C277.014,160.59,278.083,159.796,279.346,159.693z M273.641,171.316V165.9h0.374l0.423,6.69
				C273.968,172.357,273.641,171.873,273.641,171.316z M275.723,165.9h13.09c0.472,0,0.853-0.379,0.853-0.852
				c0-0.471-0.381-0.853-0.853-0.853h-15.585c-0.154,0-0.285-0.131-0.285-0.283v-0.243c0-0.154,0.131-0.285,0.285-0.285h23.678
				c0.152,0,0.283,0.131,0.283,0.285v0.243c0,0.152-0.131,0.283-0.283,0.283h-4.112c-0.471,0-0.852,0.382-0.852,0.853
				c0,0.473,0.381,0.852,0.852,0.852h1.615l-0.433,6.838h-3.47c-0.203-0.881-0.996-1.542-1.937-1.542h-7.008
				c-0.94,0-1.733,0.661-1.937,1.542h-3.469L275.723,165.9z M288.853,173.188v0.427c0,0.155-0.129,0.284-0.283,0.284h-7.008
				c-0.152,0-0.283-0.129-0.283-0.284v-0.427c0-0.154,0.131-0.285,0.283-0.285h7.008
				C288.724,172.902,288.853,173.033,288.853,173.188z M288.716,183.533h-11.877l-0.056-0.879h11.933V183.533z M288.716,176.494
				v2.209v2.246h-12.042l-0.41-6.506h3.49c0.315,0.684,1.006,1.162,1.808,1.162h7.008c0.183,0,0.357-0.026,0.524-0.072
				C288.86,175.785,288.716,176.123,288.716,176.494z M289.893,175.1c0.203-0.184,0.37-0.41,0.484-0.656h3.492l-0.04,0.631h-3.692
				C290.052,175.074,289.974,175.084,289.893,175.1z M313.782,183.533H290.42v-4.545h23.361V183.533z"/>
		</g>
	</g>
	<g>
		<g>
			<path fill="#214260" stroke="#FFFFFF" stroke-width="0.5" stroke-miterlimit="10" d="M289.303,159.516
				c-0.483-0.822-1.376-1.332-2.329-1.332c-0.951,0-1.846,0.51-2.33,1.332c-0.238,0.404-0.105,0.926,0.301,1.166
				c0.137,0.082,0.287,0.121,0.433,0.121c0.292,0,0.575-0.15,0.736-0.42c0.18-0.309,0.503-0.492,0.86-0.492
				c0.354,0,0.679,0.184,0.86,0.492c0.241,0.404,0.764,0.539,1.169,0.299C289.407,160.441,289.542,159.92,289.303,159.516z"/>
		</g>
	</g>
	<g>
		<g>
			<path fill="#214260" stroke="#FFFFFF" stroke-width="0.5" stroke-miterlimit="10" d="M283.762,159.984
				c-0.389-0.662-1.111-1.074-1.879-1.074c-0.77,0-1.49,0.412-1.882,1.074c-0.238,0.406-0.104,0.929,0.301,1.166
				c0.135,0.082,0.285,0.119,0.433,0.119c0.292,0,0.578-0.15,0.736-0.418c0.087-0.146,0.241-0.234,0.412-0.234
				c0.169,0,0.323,0.088,0.412,0.234c0.239,0.406,0.762,0.541,1.167,0.299C283.869,160.913,284.003,160.391,283.762,159.984z"/>
		</g>
	</g>
</g>
</svg>
