<?xml version="1.0" encoding="utf-8"?>
<!-- Generator: Adobe Illustrator 16.0.0, SVG Export Plug-In . SVG Version: 6.00 Build 0)  -->
<!DOCTYPE svg PUBLIC "-//W3C//DTD SVG 1.1//EN" "http://www.w3.org/Graphics/SVG/1.1/DTD/svg11.dtd">
<svg version="1.1" id="Layer_1" xmlns="http://www.w3.org/2000/svg" xmlns:xlink="http://www.w3.org/1999/xlink" x="0px" y="0px"
	 width="31.155px" height="31.155px" viewBox="0 0 31.155 31.155" enable-background="new 0 0 31.155 31.155" xml:space="preserve">
<g>
	<path fill="#FFFFFF" stroke="#231F20" stroke-width="0.1" stroke-miterlimit="10" d="M16.721,24.13h-2.739
		c-0.457,0-0.83-0.371-0.83-0.828v-6.18h-1.599c-0.458,0-0.829-0.371-0.829-0.83v-2.646c0-0.457,0.371-0.83,0.829-0.83h1.599v-1.326
		c0-1.314,0.413-2.433,1.193-3.234c0.784-0.805,1.881-1.229,3.17-1.229l2.09,0.002c0.457,0.002,0.828,0.374,0.828,0.831v2.458
		c0,0.458-0.373,0.829-0.83,0.829l-1.405,0.002c-0.43,0-0.54,0.085-0.562,0.111c-0.038,0.045-0.084,0.168-0.084,0.508v1.049h1.946
		c0.146,0,0.289,0.035,0.41,0.104c0.263,0.146,0.428,0.424,0.428,0.726v2.646c0,0.459-0.374,0.83-0.832,0.83h-1.953v6.18
		C17.551,23.759,17.179,24.13,16.721,24.13z M14.153,23.127h2.395v-6.454c0-0.306,0.248-0.553,0.553-0.553h2.23v-2.303h-2.23
		c-0.305,0-0.553-0.248-0.553-0.554v-1.497c0-0.391,0.04-0.836,0.334-1.172c0.358-0.404,0.921-0.451,1.315-0.451h1.233V8.03
		l-1.917-0.002c-2.072,0-3.36,1.326-3.36,3.461v1.774c0,0.306-0.249,0.554-0.553,0.554h-1.875v2.303h1.875
		c0.304,0,0.553,0.247,0.553,0.553V23.127z M19.603,8.03L19.603,8.03L19.603,8.03z"/>
	<circle fill="none" stroke="#FFFFFF" stroke-miterlimit="10" cx="15.578" cy="15.577" r="15.078"/>
</g>
</svg>
