<?xml version="1.0" encoding="utf-8"?>
<!-- Generator: Adobe Illustrator 16.0.0, SVG Export Plug-In . SVG Version: 6.00 Build 0)  -->
<!DOCTYPE svg PUBLIC "-//W3C//DTD SVG 1.1//EN" "http://www.w3.org/Graphics/SVG/1.1/DTD/svg11.dtd">
<svg version="1.1" id="Layer_1" xmlns="http://www.w3.org/2000/svg" xmlns:xlink="http://www.w3.org/1999/xlink" x="0px" y="0px"
	 width="63.036px" height="63.051px" viewBox="0 0 63.036 63.051" enable-background="new 0 0 63.036 63.051" xml:space="preserve">
<g id="anpLLp.tif_2_">
	<g>
		<path fill-rule="evenodd" clip-rule="evenodd" fill="#214260" stroke="#FFFFFF" stroke-width="0.4" stroke-miterlimit="10" d="
			M25.856,60.182c-0.179-0.062-0.365-0.113-0.54-0.185c-1.307-0.548-2.055-1.862-1.814-3.182c0.27-1.448,1.38-2.4,2.878-2.436
			c0.945-0.021,1.889-0.003,2.863-0.003c0-9.597,0-19.177,0-28.854c-1.259,0.265-2.506,0.491-3.733,0.803
			c-0.838,0.212-1.659,0.52-2.474,0.832c-0.53,0.201-0.939,0.122-1.35-0.27c-2.943-2.805-6.449-4.299-10.519-4.314
			c-1.396-0.005-2.795,0.243-4.186,0.408c-0.843,0.098-1.679,0.245-2.512,0.393c-0.504,0.09-0.899-0.067-1.232-0.431
			c0-0.342,0-0.679,0-1.018c0.24-0.177,0.469-0.374,0.724-0.531c8.957-5.562,17.917-11.122,26.88-16.673
			c0.247-0.154,0.39-0.3,0.377-0.619c-0.021-0.628,0.011-1.258,0.02-1.888c0.63,0,1.26,0,1.889,0
			c0.005,0.643,0.017,1.285,0.004,1.927c-0.007,0.246,0.07,0.39,0.284,0.523c8.688,5.382,17.37,10.771,26.056,16.157
			c0.411,0.255,0.824,0.508,1.233,0.768c0.433,0.279,0.598,0.725,0.444,1.158c-0.159,0.442-0.551,0.707-1.06,0.635
			c-1.368-0.19-2.73-0.415-4.095-0.617c-5.06-0.75-9.504,0.541-13.256,4.053c-0.483,0.454-0.925,0.543-1.536,0.29
			c-1.946-0.803-3.987-1.25-6.095-1.526c0,9.596,0,19.166,0,28.792c0.14,0,0.278-0.003,0.42,0c0.958,0.015,1.918-0.028,2.868,0.058
			c1.399,0.129,2.417,1.332,2.489,2.82c0.061,1.305-0.96,2.587-2.279,2.863c-0.059,0.013-0.11,0.043-0.167,0.065
			C34.245,60.182,30.052,60.182,25.856,60.182z M40.044,24.676c-2.643-5.815-5.242-11.53-7.869-17.312
			c-2.639,5.797-5.237,11.51-7.877,17.312c2.614-0.802,5.21-1.205,7.862-1.206C34.812,23.468,37.407,23.873,40.044,24.676z
			 M8.766,20.688c2.419-0.243,4.781-0.064,7.097,0.614c2.327,0.684,4.422,1.81,6.301,3.409c2.6-5.72,5.179-11.393,7.756-17.069
			c-0.021-0.012-0.045-0.026-0.068-0.04C22.823,11.963,15.793,16.327,8.766,20.688z M34.488,7.596
			c-0.02,0.016-0.039,0.033-0.057,0.049c2.578,5.677,5.155,11.354,7.74,17.049c3.914-3.216,8.378-4.497,13.396-4.016
			C48.542,16.315,41.514,11.956,34.488,7.596z M33.119,54.354c0-9.653,0-19.271,0-28.903c-0.641,0-1.261,0-1.886,0
			c0,9.652,0,19.269,0,28.903C31.867,54.354,32.479,54.354,33.119,54.354z M32.189,56.316L32.189,56.316
			c-1.938,0-3.875-0.004-5.812,0.004c-0.565,0-0.951,0.389-0.965,0.919c-0.016,0.57,0.337,0.955,0.916,1.004
			c0.121,0.01,0.244,0.01,0.365,0.01c3.657,0,7.312,0,10.969-0.002c0.157,0,0.318-0.002,0.471-0.022
			c0.418-0.058,0.73-0.369,0.802-0.779c0.108-0.609-0.343-1.131-1.007-1.133C36.015,56.312,34.103,56.316,32.189,56.316z"/>
		<path fill-rule="evenodd" clip-rule="evenodd" fill="#214260" stroke="#FFFFFF" stroke-width="0.4" stroke-miterlimit="10" d="
			M44.476,60.182c-0.533-0.257-0.714-0.687-0.693-1.268c0.033-0.846,0.007-1.694,0.007-2.599c-0.298,0-0.57,0.003-0.844-0.002
			c-0.726-0.011-1.089-0.377-1.091-1.107c-0.002-1.842-0.002-3.685,0-5.525c0.002-0.724,0.364-1.09,1.1-1.098
			c0.776-0.009,1.55-0.001,2.326-0.001c0.13,0,0.261,0,0.439,0c0-0.176,0-0.317,0-0.461c0-2.348,0-4.701,0-7.051
			c0-0.848,0.341-1.191,1.187-1.191c3.077-0.002,6.156-0.002,9.234,0c0.861,0,1.202,0.345,1.202,1.218c0,2.34,0,4.678,0,7.016
			c0,0.145,0,0.286,0,0.47c0.399,0,0.759,0,1.119,0c0.547,0,1.093-0.008,1.637,0.001c0.747,0.008,1.105,0.375,1.107,1.129
			c0.004,1.843,0.004,3.685-0.002,5.528c-0.001,0.675-0.376,1.057-1.052,1.071c-0.277,0.009-0.554,0.001-0.881,0.001
			c0,0.388,0,0.749,0,1.107c0,0.486-0.025,0.972,0.005,1.456c0.036,0.589-0.142,1.039-0.692,1.306
			C53.882,60.182,49.18,60.182,44.476,60.182z M55.373,51.452c0-3.234,0-6.427,0-9.636c-2.572,0-5.121,0-7.679,0
			c0,3.226,0,6.426,0,9.636C50.265,51.452,52.804,51.452,55.373,51.452z M57.32,58.232c0-0.659,0-1.271,0-1.889
			c-3.873,0-7.727,0-11.58,0c0,0.643,0,1.254,0,1.889C49.606,58.232,53.45,58.232,57.32,58.232z M43.816,50.52
			c0,1.295,0,2.558,0,3.826c0.647,0,1.267,0,1.874,0c0-1.295,0-2.558,0-3.826C45.059,50.52,44.456,50.52,43.816,50.52z
			 M57.354,54.354c0.649,0,1.262,0,1.894,0c0-1.283,0-2.545,0-3.823c-0.639,0-1.26,0-1.894,0
			C57.354,51.811,57.354,53.066,57.354,54.354z M47.69,53.431c0,0.327,0,0.623,0,0.919c2.576,0,5.125,0,7.68,0
			c0-0.319,0-0.613,0-0.919C52.804,53.431,50.263,53.431,47.69,53.431z"/>
		<path fill-rule="evenodd" clip-rule="evenodd" fill="#214260" stroke="#FFFFFF" stroke-width="0.4" stroke-miterlimit="10" d="
			M3.239,49.054c0.305-0.384,0.711-0.489,1.187-0.48c0.846,0.022,1.694,0.008,2.591,0.008c0-0.174,0-0.312,0-0.456
			c0-2.363,0-4.726,0-7.09c0-0.813,0.338-1.158,1.14-1.158c3.103-0.002,6.207-0.002,9.309,0c0.819,0,1.164,0.348,1.164,1.184
			c0.002,2.341,0,4.679,0,7.018c0,0.146,0,0.289,0,0.476c0.15,0.009,0.276,0.022,0.404,0.022c0.789,0.004,1.576-0.005,2.364,0.004
			c0.727,0.008,1.101,0.377,1.103,1.101c0.007,1.843,0.007,3.686,0,5.529c-0.002,0.715-0.386,1.09-1.106,1.101
			c-0.265,0.005-0.529,0-0.838,0c0,0.563,0,1.093,0,1.623c0,0.339-0.021,0.679,0.005,1.017c0.043,0.593-0.179,1.008-0.739,1.229
			c-4.68,0-9.359,0-14.039,0c-0.539-0.243-0.748-0.667-0.718-1.249c0.024-0.481,0.006-0.966,0.006-1.448c0-0.381,0-0.764,0-1.157
			c-0.679-0.054-1.384,0.153-1.833-0.511C3.239,53.563,3.239,51.308,3.239,49.054z M16.676,41.817c-2.59,0-5.14,0-7.695,0
			c0,3.224,0,6.425,0,9.625c2.583,0,5.132,0,7.695,0C16.676,48.226,16.676,45.035,16.676,41.817z M7.033,58.254
			c0.151,0,0.27,0,0.39,0c3.598,0,7.197,0,10.793,0c0.073,0,0.16,0.022,0.215-0.009c0.078-0.043,0.187-0.127,0.189-0.195
			c0.016-0.565,0.01-1.132,0.01-1.714c-3.888,0-7.733,0-11.597,0C7.033,56.969,7.033,57.583,7.033,58.254z M5.101,50.522
			c0,1.305,0,2.567,0,3.824c0.65,0,1.273,0,1.888,0c0-1.293,0-2.558,0-3.824C6.348,50.522,5.734,50.522,5.101,50.522z
			 M18.651,54.349c0.639,0,1.26,0,1.879,0c0-1.288,0-2.551,0-3.823c-0.633,0-1.246,0-1.879,0
			C18.651,51.807,18.651,53.07,18.651,54.349z M16.676,53.443c-2.587,0-5.145,0-7.708,0c0,0.314,0,0.601,0,0.909
			c2.575,0,5.133,0,7.708,0C16.676,54.045,16.676,53.758,16.676,53.443z"/>
	</g>
</g>
</svg>
