<?xml version="1.0" encoding="utf-8"?>
<!-- Generator: Adobe Illustrator 16.0.0, SVG Export Plug-In . SVG Version: 6.00 Build 0)  -->
<!DOCTYPE svg PUBLIC "-//W3C//DTD SVG 1.1//EN" "http://www.w3.org/Graphics/SVG/1.1/DTD/svg11.dtd">
<svg version="1.1" id="Layer_1" xmlns="http://www.w3.org/2000/svg" xmlns:xlink="http://www.w3.org/1999/xlink" x="0px" y="0px"
	 width="63.036px" height="63.051px" viewBox="0 0 63.036 63.051" enable-background="new 0 0 63.036 63.051" xml:space="preserve">
<g id="MDc380.tif_2_">
	<g>
		<path fill="#214260" stroke="#FFFFFF" stroke-width="0.4" stroke-miterlimit="10" d="M18.987,17.05
			c0.474,0.989,0.821,1.916,1.357,2.717c0.182,0.27,0.844,0.219,1.284,0.312c0.076-0.434,0.364-1.021,0.185-1.275
			c-1.133-1.596-0.587-2.854,0.469-4.232c1.141-1.488,1.084-3.547-0.03-4.887c-0.32-0.384-0.996-0.469-1.508-0.692
			c-0.041,0.524-0.308,1.188-0.083,1.547c0.832,1.343,0.548,2.403-0.337,3.601C19.725,14.952,19.45,16.005,18.987,17.05z
			 M44.102,12.103c-0.467-0.982-0.8-1.93-1.354-2.721c-0.197-0.284-0.929-0.192-1.418-0.273c-0.014,0.44-0.216,1.016-0.012,1.301
			c1.04,1.449,0.637,2.613-0.375,3.889c-1.262,1.59-1.269,3.887-0.071,5.196c0.331,0.359,1.017,0.392,1.54,0.573
			c0.025-0.488,0.252-1.098,0.043-1.441c-0.855-1.401-0.564-2.537,0.374-3.779C43.403,14.085,43.661,13.083,44.102,12.103z"/>
		<path fill-rule="evenodd" clip-rule="evenodd" fill="#214260" stroke="#FFFFFF" stroke-width="0.4" stroke-miterlimit="10" d="
			M3.168,45.318c1.119-1.065,2.271-2.099,3.341-3.211c0.445-0.465,0.885-1.059,1.038-1.667c2.433-9.557,8.436-15.629,17.861-18.332
			c1.034-0.297,1.343-0.777,1.523-1.764c0.411-2.272,2.289-3.748,4.524-3.756c2.242-0.009,4.153,1.447,4.558,3.713
			c0.197,1.105,0.636,1.465,1.711,1.78c9.187,2.685,15.041,8.683,17.619,17.925c0.257,0.92,1.089,1.68,1.672,2.5
			c0.104,0.145,0.303,0.221,0.45,0.338c3.232,2.555,3.031,5.039-0.635,6.943c-4.475,2.326-9.354,3.224-14.298,3.824
			c-2.422,0.295-4.853,0.512-7.28,0.764c-2.515,0-5.033,0-7.548,0c-0.796-0.113-1.593-0.218-2.387-0.344
			c-4.801-0.764-9.643-1.347-14.391-2.365c-2.957-0.635-5.838-1.822-7.759-4.462C3.168,46.577,3.168,45.946,3.168,45.318z
			 M8.938,45.019c15.071,3.43,30.053,3.438,45.032,0.005c0.065-9.676-7.812-21.333-22.154-21.874
			C19.907,22.699,8.814,33.249,8.938,45.019z M6.888,44.456c-2.259,1.264-2.38,2.243-0.297,3.41
			c1.518,0.852,3.176,1.547,4.855,1.998c11.353,3.045,22.848,3.385,34.37,1.248c3.541-0.658,7.036-1.83,10.38-3.188
			c2.323-0.943,2.164-2.164-0.102-3.426c-0.26,0.894,0.348,2.028-1.35,2.388c-13.046,2.761-26.146,3.47-39.348,1.351
			c-2.823-0.454-5.617-1.086-8.393-1.629C6.957,45.716,6.924,45.105,6.888,44.456z M34.133,21.281
			c-0.246-2.09-1.284-2.983-3.052-2.774c-1.517,0.18-2.255,1.16-2.071,2.774C30.669,21.281,32.329,21.281,34.133,21.281z"/>
		<path fill-rule="evenodd" clip-rule="evenodd" fill="#214260" stroke="#FFFFFF" stroke-width="0.4" stroke-miterlimit="10" d="
			M31.855,3.042c2.053,2.437,2.15,3.922,0.307,6.551c-0.784,1.117-0.852,2.131-0.13,3.311c0.224,0.363,0.038,0.979,0.039,1.479
			c-0.532-0.159-1.238-0.156-1.565-0.509c-1.251-1.338-1.251-3.556,0.045-5.21c1.008-1.286,1.355-2.449,0.394-3.932
			c-0.241-0.372,0.088-1.116,0.156-1.69C31.353,3.042,31.604,3.042,31.855,3.042z"/>
		<path fill-rule="evenodd" clip-rule="evenodd" fill="#214260" stroke="#FFFFFF" stroke-width="0.4" stroke-miterlimit="10" d="
			M18.987,17.05c0.462-1.045,0.737-2.098,1.337-2.91c0.885-1.197,1.168-2.258,0.337-3.601c-0.225-0.359,0.042-1.022,0.083-1.547
			c0.513,0.224,1.188,0.309,1.508,0.692c1.114,1.34,1.171,3.398,0.03,4.887c-1.056,1.378-1.602,2.637-0.469,4.232
			c0.179,0.254-0.109,0.842-0.185,1.275c-0.44-0.094-1.102-0.043-1.284-0.312C19.809,18.966,19.461,18.039,18.987,17.05z"/>
		<path fill-rule="evenodd" clip-rule="evenodd" fill="#214260" stroke="#FFFFFF" stroke-width="0.4" stroke-miterlimit="10" d="
			M44.102,12.103c-0.44,0.98-0.698,1.982-1.273,2.744c-0.938,1.242-1.229,2.378-0.374,3.779c0.209,0.344-0.018,0.953-0.043,1.441
			c-0.522-0.182-1.209-0.214-1.54-0.573c-1.198-1.31-1.191-3.606,0.071-5.196c1.012-1.275,1.415-2.439,0.375-3.889
			c-0.204-0.285-0.002-0.86,0.012-1.301c0.489,0.081,1.221-0.011,1.418,0.273C43.302,10.173,43.635,11.12,44.102,12.103z"/>
		<path fill-rule="evenodd" clip-rule="evenodd" fill="#214260" stroke="#FFFFFF" stroke-width="0.4" stroke-miterlimit="10" d="
			M11.685,41.91c0.804-4.073,2.408-7.441,4.987-10.268c1.212-1.327,2.686-2.432,4.127-3.523c0.36-0.272,1.054-0.106,1.594-0.143
			c-0.155,0.524-0.14,1.293-0.488,1.533c-4.384,3.022-7.146,7.091-8.294,12.292c-0.095,0.422-0.704,0.73-1.075,1.09
			C12.215,42.522,11.894,42.151,11.685,41.91z"/>
		<path fill-rule="evenodd" clip-rule="evenodd" fill="#214260" stroke="#FFFFFF" stroke-width="0.4" stroke-miterlimit="10" d="
			M30.952,24.919c0.31,0.227,0.84,0.617,1.371,1.008c-0.571,0.332-1.104,0.815-1.718,0.964c-1.031,0.252-2.11,0.362-3.172,0.381
			c-0.4,0.006-0.806-0.407-1.209-0.628c0.312-0.396,0.561-1.034,0.952-1.141C28.259,25.21,29.4,25.138,30.952,24.919z"/>
	</g>
</g>
</svg>
