<?xml version="1.0" encoding="utf-8"?>
<!-- Generator: Adobe Illustrator 16.0.0, SVG Export Plug-In . SVG Version: 6.00 Build 0)  -->
<!DOCTYPE svg PUBLIC "-//W3C//DTD SVG 1.1//EN" "http://www.w3.org/Graphics/SVG/1.1/DTD/svg11.dtd">
<svg version="1.1" id="Layer_1" xmlns="http://www.w3.org/2000/svg" xmlns:xlink="http://www.w3.org/1999/xlink" x="0px" y="0px"
	 width="189.986px" height="103.476px" viewBox="0 0 189.986 103.476" enable-background="new 0 0 189.986 103.476"
	 xml:space="preserve">
<g>
	<g>
		<path fill="#FFFFFF" d="M2.074,86.157c0.514,0,0.892-0.089,1.135-0.268c0.243-0.179,0.563-0.495,0.964-0.949l7.624-8.229
			l-6.725-7.3c-0.4-0.453-0.749-0.769-1.049-0.948c-0.301-0.179-0.65-0.268-1.051-0.268v-0.429h6.426v0.429
			c-0.429,0-0.643,0.131-0.643,0.393c0,0.215,0.171,0.489,0.514,0.823l4.541,5.081l4.754-5.081c0.428-0.429,0.642-0.703,0.642-0.823
			c0-0.262-0.257-0.393-0.771-0.393v-0.429h6.125v0.429c-0.429,0-0.742,0.071-0.942,0.214c-0.2,0.144-0.542,0.478-1.028,1.002
			l-6.724,7.156l7.666,8.372c0.457,0.501,0.8,0.83,1.028,0.984c0.229,0.155,0.557,0.232,0.984,0.232v0.43h-6.424v-0.43
			c0.343,0,0.578-0.018,0.706-0.053c0.129-0.036,0.193-0.113,0.193-0.232c0-0.167-0.157-0.405-0.472-0.716l-5.738-6.297
			l-5.911,6.297c-0.314,0.263-0.472,0.513-0.472,0.751c0,0.168,0.229,0.25,0.686,0.25v0.43H2.074V86.157z"/>
		<path fill="#FFFFFF" d="M27.871,86.082c0.536,0,0.897-0.098,1.082-0.294c0.184-0.195,0.36-0.447,0.528-0.756l7.948-15.215
			c0.168-0.336,0.254-0.574,0.254-0.715c0-0.139-0.094-0.266-0.277-0.378c-0.186-0.111-0.512-0.182-0.981-0.21v-0.42h8.151v0.504
			c-0.27,0-0.528,0.036-0.779,0.105c-0.252,0.07-0.378,0.204-0.378,0.399c0,0.141,0.041,0.281,0.126,0.421
			c0.083,0.14,0.158,0.28,0.227,0.42l8.604,15.3c0.101,0.196,0.251,0.385,0.452,0.567c0.202,0.183,0.57,0.273,1.107,0.273v0.505
			h-6.34v-0.505c0.604,0,1.007-0.042,1.208-0.126s0.302-0.21,0.302-0.378c0-0.195-0.033-0.364-0.101-0.504
			c-0.067-0.14-0.135-0.279-0.201-0.42l-2.062-3.53H34.513l-1.71,3.194c-0.135,0.252-0.277,0.491-0.428,0.714
			c-0.152,0.225-0.228,0.406-0.228,0.546c0,0.168,0.102,0.294,0.303,0.378s0.554,0.126,1.057,0.126v0.505h-5.636V86.082z
			 M35.67,78.768h9.812l-5.083-8.826L35.67,78.768z"/>
		<path fill="#FFFFFF" d="M59.52,86.082c0.535,0,0.897-0.077,1.082-0.231c0.184-0.153,0.276-0.469,0.276-0.946V69.774
			c0-0.476-0.093-0.791-0.276-0.946c-0.185-0.154-0.547-0.231-1.082-0.231v-0.504h7.347v0.504c-0.537,0-0.898,0.036-1.082,0.105
			c-0.186,0.07-0.276,0.162-0.276,0.273c0,0.084,0.184,0.323,0.553,0.715l13.636,13.072V69.774c0-0.476-0.093-0.791-0.277-0.946
			c-0.185-0.154-0.545-0.231-1.081-0.231v-0.504h5.534v0.504c-0.536,0-0.898,0.078-1.081,0.231c-0.186,0.155-0.278,0.47-0.278,0.946
			v15.131c0,0.477,0.093,0.792,0.278,0.946c0.183,0.154,0.545,0.231,1.081,0.231v0.505H77.13v-0.505
			c0.671,0,1.072-0.028,1.208-0.084c0.132-0.056,0.201-0.153,0.201-0.294c0-0.14-0.059-0.259-0.177-0.357s-0.26-0.231-0.428-0.399
			L63.695,71.371v13.534c0,0.477,0.093,0.792,0.277,0.946c0.185,0.154,0.545,0.231,1.081,0.231v0.505H59.52V86.082z"/>
		<path fill="#FFFFFF" d="M89.406,86.082c0.537,0,0.897-0.098,1.082-0.294c0.185-0.195,0.359-0.447,0.528-0.756l7.949-15.215
			c0.168-0.336,0.252-0.574,0.252-0.715c0-0.139-0.093-0.266-0.276-0.378c-0.185-0.111-0.513-0.182-0.98-0.21v-0.42h8.15v0.504
			c-0.269,0-0.528,0.036-0.78,0.105c-0.251,0.07-0.377,0.204-0.377,0.399c0,0.141,0.041,0.281,0.126,0.421
			c0.083,0.14,0.158,0.28,0.226,0.42l8.604,15.3c0.101,0.196,0.252,0.385,0.453,0.567c0.201,0.183,0.57,0.273,1.106,0.273v0.505
			h-6.34v-0.505c0.604,0,1.007-0.042,1.208-0.126s0.301-0.21,0.301-0.378c0-0.195-0.032-0.364-0.1-0.504
			c-0.068-0.14-0.135-0.279-0.201-0.42l-2.063-3.53H96.048l-1.71,3.194c-0.135,0.252-0.276,0.491-0.429,0.714
			c-0.15,0.225-0.226,0.406-0.226,0.546c0,0.168,0.101,0.294,0.302,0.378s0.554,0.126,1.058,0.126v0.505h-5.637V86.082z
			 M97.205,78.768h9.812l-5.083-8.826L97.205,78.768z"/>
		<path fill="#FFFFFF" d="M121.885,68.828c-0.15-0.154-0.496-0.231-1.031-0.231v-0.504h12.177c1.979,0,3.688,0.238,5.132,0.715
			c1.442,0.477,2.624,1.128,3.547,1.954c0.923,0.827,1.602,1.801,2.038,2.922c0.436,1.121,0.654,2.34,0.654,3.656
			c0,1.289-0.219,2.501-0.654,3.636c-0.437,1.135-1.115,2.116-2.038,2.942c-0.923,0.828-2.104,1.478-3.547,1.955
			c-1.443,0.477-3.153,0.715-5.132,0.715h-12.177v-0.505c0.535,0,0.881-0.077,1.031-0.231c0.151-0.153,0.227-0.469,0.227-0.946
			V69.774C122.111,69.298,122.036,68.983,121.885,68.828z M132.426,84.233c1.576,0,2.91-0.182,4-0.547
			c1.089-0.364,1.979-0.861,2.667-1.492c0.688-0.631,1.19-1.359,1.51-2.186c0.318-0.825,0.478-1.716,0.478-2.669
			c0-0.952-0.159-1.842-0.478-2.669c-0.319-0.826-0.822-1.555-1.51-2.186c-0.688-0.63-1.578-1.126-2.667-1.492
			c-1.09-0.364-2.424-0.547-4-0.547h-7.194v13.787H132.426z"/>
		<path fill="#FFFFFF" d="M174.036,83.644c-0.671,0.785-1.543,1.409-2.616,1.871c-1.074,0.462-2.265,0.777-3.574,0.945
			c-1.307,0.168-2.598,0.252-3.873,0.252c-1.274,0-2.565-0.084-3.875-0.252c-1.308-0.168-2.498-0.483-3.571-0.945
			c-1.073-0.462-1.945-1.086-2.616-1.871c-0.672-0.784-1.006-1.766-1.006-2.942V69.774c0-0.476-0.067-0.791-0.202-0.946
			c-0.134-0.154-0.419-0.231-0.855-0.231v-0.504h5.233v0.504c-0.437,0-0.722,0.078-0.855,0.231c-0.135,0.155-0.201,0.47-0.201,0.946
			v10.382c0,1.597,0.722,2.718,2.164,3.362c1.441,0.645,3.369,0.967,5.785,0.967c2.414,0,4.345-0.322,5.787-0.967
			c1.441-0.644,2.163-1.766,2.163-3.362V69.774c0-0.476-0.067-0.791-0.202-0.946c-0.134-0.154-0.419-0.231-0.854-0.231v-0.504h5.231
			v0.504c-0.436,0-0.721,0.078-0.854,0.231c-0.135,0.155-0.202,0.47-0.202,0.946v10.928
			C175.042,81.878,174.707,82.86,174.036,83.644z"/>
	</g>
	<g>
		<path fill="#FFFFFF" d="M161.132,37.558c0,0-20.772,6.039-22.808,6.623c0,0-13.456,3.885-17.469,1.938
			c0,0,6.931,4.682,18.388,0.559c0,0,17.479-2.435,24.392-5.877L161.132,37.558z"/>
		<path fill="#FFFFFF" d="M164.407,34.44c2.709-0.867,12.848-15.746,15.486-17.916c0,0,9.216-9.982,10.005-16.524
			c0,0,1.411,9.269-7.067,17.19c0,0-8.281,13.538-15.334,20.078l3.071,0.883c0,0-4.212,6.175-9.918,7.222l0.903-3.148
			C161.554,42.225,161.694,35.307,164.407,34.44z"/>
		<path fill="#FFFFFF" d="M159.586,38.062c0,0,1.718-4.436,6.938-3.905C166.524,34.157,166.046,39.94,159.586,38.062z"/>
	</g>
	<g>
		<path fill="#FFFFFF" d="M42.135,103.115c-0.479,0.187-1.248,0.351-2.206,0.351c-2.143,0-3.44-1.172-3.44-3.057
			c0-1.392,0.643-2.718,1.814-3.562c0.87-0.646,1.954-0.998,3.202-0.998c0.945,0,1.613,0.209,1.84,0.362l-0.34,0.733
			c-0.314-0.164-0.92-0.307-1.677-0.307c-0.882,0-1.777,0.295-2.433,0.833c-0.794,0.646-1.299,1.688-1.299,2.805
			c0,1.326,0.693,2.411,2.584,2.411c0.644,0,1.35-0.11,1.816-0.317L42.135,103.115z"/>
		<path fill="#FFFFFF" d="M43.268,103.356l1.702-7.78h1.047l-0.757,3.419h0.025c0.518-0.647,1.261-1.063,2.181-1.063
			c0.693,0,1.513,0.373,1.513,1.425c0,0.284-0.038,0.624-0.101,0.898l-0.681,3.101h-1.046l0.681-3.057
			c0.038-0.198,0.075-0.438,0.075-0.734c0-0.494-0.265-0.877-0.945-0.877c-0.807,0-1.828,0.822-2.08,2.016l-0.567,2.652H43.268z"/>
		<path fill="#FFFFFF" d="M54.448,103.049c-0.454,0.23-1.197,0.417-2.018,0.417c-1.613,0-2.318-0.954-2.318-2.126
			c0-1.6,1.36-3.408,3.327-3.408c1.159,0,1.791,0.603,1.791,1.359c0,1.393-1.804,1.764-4.06,1.731
			c-0.051,0.23-0.013,0.723,0.126,1.008c0.239,0.471,0.731,0.712,1.361,0.712c0.719,0,1.261-0.198,1.639-0.373L54.448,103.049z
			 M53.288,98.644c-0.995,0-1.739,0.843-1.991,1.676c1.639,0.012,2.923-0.175,2.923-0.997C54.22,98.885,53.844,98.644,53.288,98.644
			z"/>
		<path fill="#FFFFFF" d="M60.006,103.147c-0.314,0.131-0.946,0.318-1.765,0.318c-1.576,0-2.345-0.92-2.345-2.049
			c0-1.808,1.538-3.473,3.731-3.473c0.567,0,1.084,0.142,1.272,0.23l-0.304,0.723c-0.238-0.099-0.578-0.197-1.031-0.197
			c-1.589,0-2.585,1.359-2.585,2.608c0,0.854,0.517,1.413,1.513,1.413c0.618,0,1.097-0.165,1.412-0.295L60.006,103.147z"/>
		<path fill="#FFFFFF" d="M61.202,103.356l1.689-7.78h1.046l-1.071,4.877h0.025c0.188-0.187,0.415-0.384,0.567-0.537l2.155-1.863
			h1.285l-2.659,2.182l1.828,3.122h-1.16l-1.462-2.619l-0.77,0.603l-0.44,2.017H61.202z"/>
		<path fill="#FFFFFF" d="M69.331,103.356l1.173-5.304h1.046l-1.173,5.304H69.331z M70.692,96.573c0-0.35,0.315-0.614,0.693-0.614
			c0.377,0,0.617,0.241,0.617,0.57c-0.012,0.362-0.303,0.614-0.705,0.614C70.931,97.143,70.692,96.902,70.692,96.573z"/>
		<path fill="#FFFFFF" d="M72.268,103.356l0.819-3.758c0.139-0.592,0.214-1.107,0.289-1.545h0.934l-0.151,1.041h0.025
			c0.542-0.745,1.361-1.162,2.257-1.162c0.73,0,1.55,0.362,1.55,1.479c0,0.23-0.05,0.57-0.113,0.855l-0.681,3.09h-1.047l0.669-3.057
			c0.05-0.208,0.088-0.46,0.088-0.68c0-0.537-0.239-0.931-0.958-0.931c-0.744,0-1.803,0.778-2.08,2.093l-0.555,2.575H72.268z"/>
		<path fill="#FFFFFF" d="M78.96,102.83c0-0.405,0.328-0.733,0.794-0.733c0.427,0,0.705,0.274,0.705,0.657
			c0,0.395-0.327,0.723-0.806,0.723C79.237,103.476,78.96,103.192,78.96,102.83z"/>
		<path fill="#FFFFFF" d="M85.728,96.069c0.517-0.087,1.134-0.153,1.827-0.153c0.87,0,1.5,0.164,1.954,0.515
			c0.392,0.274,0.618,0.668,0.618,1.151c0,0.931-0.87,1.621-1.84,1.84v0.022c0.768,0.197,1.411,0.756,1.398,1.644
			c0,0.756-0.466,1.348-1.021,1.709c-0.668,0.439-1.6,0.603-2.747,0.603c-0.731,0-1.363-0.033-1.766-0.099L85.728,96.069z
			 M85.324,102.622c0.265,0.033,0.58,0.043,0.869,0.043c1.235,0.011,2.396-0.438,2.396-1.622c0-0.866-0.845-1.249-1.803-1.249
			h-0.844L85.324,102.622z M86.105,99.104h0.781c1.21,0,2.156-0.547,2.156-1.445c0-0.713-0.618-1.02-1.538-1.02
			c-0.391,0-0.706,0.033-0.87,0.077L86.105,99.104z"/>
		<path fill="#FFFFFF" d="M90.692,103.356l0.744-3.419c0.151-0.69,0.252-1.392,0.315-1.885h0.92c-0.05,0.373-0.101,0.745-0.164,1.15
			h0.038c0.391-0.723,1.046-1.271,1.866-1.271c0.088,0,0.214,0.011,0.29,0.022L94.5,98.853c-0.062-0.011-0.164-0.022-0.277-0.022
			c-0.908,0-1.715,0.953-1.979,2.191l-0.504,2.334H90.692z"/>
		<path fill="#FFFFFF" d="M99.074,103.049c-0.453,0.23-1.196,0.417-2.018,0.417c-1.612,0-2.318-0.954-2.318-2.126
			c0-1.6,1.362-3.408,3.328-3.408c1.159,0,1.79,0.603,1.79,1.359c0,1.393-1.803,1.764-4.059,1.731
			c-0.051,0.23-0.013,0.723,0.126,1.008c0.239,0.471,0.73,0.712,1.36,0.712c0.719,0,1.262-0.198,1.64-0.373L99.074,103.049z
			 M97.916,98.644c-0.997,0-1.74,0.843-1.992,1.676c1.639,0.012,2.923-0.175,2.923-0.997C98.847,98.885,98.47,98.644,97.916,98.644z
			"/>
		<path fill="#FFFFFF" d="M104.481,103.356c0-0.317,0.062-0.821,0.139-1.37h-0.025c-0.668,1.096-1.5,1.49-2.37,1.49
			c-1.071,0-1.752-0.744-1.752-1.753c0-1.841,1.563-3.792,4.223-3.792c0.58,0,1.224,0.088,1.639,0.208l-0.617,2.761
			c-0.203,0.921-0.29,1.863-0.265,2.455H104.481z M105.162,98.732c-0.151-0.033-0.378-0.077-0.731-0.077
			c-1.575,0-2.861,1.435-2.875,2.904c0,0.591,0.24,1.173,1.048,1.173c0.869,0,1.903-0.987,2.205-2.4L105.162,98.732z"/>
		<path fill="#FFFFFF" d="M109.8,96.627l-0.315,1.425h1.462l-0.163,0.713h-1.463l-0.567,2.574c-0.062,0.296-0.113,0.57-0.113,0.855
			c0,0.317,0.177,0.504,0.58,0.504c0.177,0,0.353-0.011,0.491-0.033l-0.05,0.712c-0.19,0.066-0.504,0.099-0.807,0.099
			c-0.933,0-1.286-0.493-1.286-1.03c0-0.307,0.038-0.613,0.126-0.997l0.604-2.684h-0.882l0.164-0.713h0.869l0.266-1.194
			L109.8,96.627z"/>
		<path fill="#FFFFFF" d="M111.06,103.356l1.701-7.78h1.045l-0.755,3.419h0.025c0.517-0.647,1.261-1.063,2.181-1.063
			c0.693,0,1.513,0.373,1.513,1.425c0,0.284-0.037,0.624-0.101,0.898l-0.681,3.101h-1.046l0.68-3.057
			c0.038-0.198,0.076-0.438,0.076-0.734c0-0.494-0.265-0.877-0.945-0.877c-0.807,0-1.828,0.822-2.08,2.016l-0.567,2.652H111.06z"/>
		<path fill="#FFFFFF" d="M122.239,103.049c-0.454,0.23-1.197,0.417-2.017,0.417c-1.613,0-2.32-0.954-2.32-2.126
			c0-1.6,1.361-3.408,3.328-3.408c1.159,0,1.79,0.603,1.79,1.359c0,1.393-1.803,1.764-4.059,1.731
			c-0.051,0.23-0.013,0.723,0.126,1.008c0.239,0.471,0.731,0.712,1.361,0.712c0.719,0,1.261-0.198,1.639-0.373L122.239,103.049z
			 M121.08,98.644c-0.996,0-1.74,0.843-1.992,1.676c1.639,0.012,2.924-0.175,2.924-0.997
			C122.012,98.885,121.634,98.644,121.08,98.644z"/>
		<path fill="#FFFFFF" d="M131.792,100.146c0,1.633-1.336,3.331-3.378,3.331c-1.526,0-2.383-0.985-2.383-2.18
			c0-1.742,1.398-3.364,3.378-3.364C131.062,97.932,131.792,99.017,131.792,100.146z M127.115,101.263
			c0,0.866,0.542,1.49,1.438,1.49c1.235,0,2.167-1.381,2.167-2.619c0-0.613-0.327-1.479-1.424-1.479
			C127.985,98.655,127.103,100.046,127.115,101.263z"/>
		<path fill="#FFFFFF" d="M138.521,98.052l-0.818,3.758c-0.127,0.592-0.215,1.107-0.277,1.545h-0.945l0.164-0.997h-0.025
			c-0.543,0.69-1.349,1.117-2.156,1.117c-0.782,0-1.601-0.329-1.601-1.534c0-0.252,0.037-0.538,0.113-0.888l0.655-3.002h1.047
			l-0.643,2.958c-0.076,0.296-0.114,0.548-0.114,0.778c0,0.548,0.265,0.92,0.983,0.92c0.757,0,1.727-0.767,1.979-1.939l0.593-2.718
			H138.521z"/>
		<path fill="#FFFFFF" d="M141.987,96.627l-0.315,1.425h1.463l-0.165,0.713h-1.462l-0.567,2.574
			c-0.062,0.296-0.113,0.57-0.113,0.855c0,0.317,0.177,0.504,0.58,0.504c0.177,0,0.353-0.011,0.492-0.033l-0.052,0.712
			c-0.188,0.066-0.503,0.099-0.806,0.099c-0.934,0-1.286-0.493-1.286-1.03c0-0.307,0.038-0.613,0.126-0.997l0.605-2.684h-0.883
			l0.164-0.713h0.869l0.266-1.194L141.987,96.627z"/>
		<path fill="#FFFFFF" d="M143.159,102.83c0-0.405,0.327-0.733,0.794-0.733c0.429,0,0.706,0.274,0.706,0.657
			c0,0.395-0.328,0.723-0.807,0.723C143.437,103.476,143.159,103.192,143.159,102.83z"/>
	</g>
	<g>
		<g>
			<path fill="#FFFFFF" d="M5.144,61.312v0.214H2.846v-0.214c0.071,0,0.134-0.018,0.188-0.054c0.054-0.036,0.081-0.089,0.081-0.16
				v-4.742h-2.46c-0.089,0-0.176,0.02-0.26,0.059c-0.085,0.04-0.127,0.115-0.127,0.227H0v-1.668h0.269
				c0,0.111,0.042,0.187,0.127,0.227c0.084,0.04,0.171,0.06,0.26,0.06h6.62c0.089,0,0.177-0.02,0.261-0.06s0.127-0.115,0.127-0.227
				h0.268v1.668H7.663c0-0.112-0.043-0.187-0.127-0.227c-0.084-0.039-0.172-0.059-0.261-0.059h-2.46v4.742
				C4.815,61.24,4.925,61.312,5.144,61.312z"/>
			<path fill="#FFFFFF" d="M11.554,61.132c0,0.064,0.022,0.109,0.066,0.137c0.046,0.028,0.098,0.042,0.157,0.042v0.214H9.898v-0.214
				c0.06,0,0.112-0.014,0.156-0.042c0.044-0.028,0.068-0.073,0.068-0.137v-4.456c0-0.063-0.024-0.109-0.068-0.137
				c-0.044-0.028-0.097-0.042-0.156-0.042v-0.214h1.879v0.214c-0.06,0-0.111,0.014-0.157,0.042
				c-0.044,0.028-0.066,0.074-0.066,0.137v1.68h3.995v-1.68c0-0.063-0.021-0.109-0.067-0.137c-0.044-0.028-0.097-0.042-0.156-0.042
				v-0.214h1.878v0.214c-0.059,0-0.111,0.014-0.156,0.042c-0.044,0.028-0.066,0.074-0.066,0.137v4.456
				c0,0.064,0.022,0.109,0.066,0.137c0.045,0.028,0.098,0.042,0.156,0.042v0.214h-1.878v-0.214c0.06,0,0.112-0.014,0.156-0.042
				c0.046-0.028,0.067-0.073,0.067-0.137v-1.799h-3.995V61.132z"/>
			<path fill="#FFFFFF" d="M25.567,57.392c0-0.15-0.155-0.226-0.462-0.226h-3.638v1.191h2.295c0.17,0,0.293-0.01,0.373-0.03
				s0.119-0.073,0.119-0.161h0.269v1.263h-0.298c0.029-0.086-0.01-0.141-0.119-0.161s-0.264-0.03-0.462-0.03h-2.177v1.406h3.816
				c0.119,0,0.218-0.021,0.298-0.065s0.119-0.102,0.119-0.173h0.269v1.251h-0.269c0-0.071-0.039-0.111-0.119-0.12
				c-0.08-0.008-0.179-0.011-0.298-0.011h-5.472v-0.214c0.05,0,0.1-0.014,0.149-0.042c0.049-0.028,0.074-0.073,0.074-0.137v-4.456
				c0-0.063-0.025-0.109-0.074-0.137c-0.05-0.028-0.1-0.042-0.149-0.042v-0.214h5.293c0.307,0,0.462-0.072,0.462-0.214h0.269v1.322
				H25.567z"/>
		</g>
	</g>
</g>
</svg>
