<?xml version="1.0" encoding="utf-8"?>
<!-- Generator: Adobe Illustrator 16.0.0, SVG Export Plug-In . SVG Version: 6.00 Build 0)  -->
<!DOCTYPE svg PUBLIC "-//W3C//DTD SVG 1.1//EN" "http://www.w3.org/Graphics/SVG/1.1/DTD/svg11.dtd">
<svg version="1.1" id="Layer_1" xmlns="http://www.w3.org/2000/svg" xmlns:xlink="http://www.w3.org/1999/xlink" x="0px" y="0px"
	 width="51.494px" height="51.495px" viewBox="0 0 51.494 51.495" enable-background="new 0 0 51.494 51.495" xml:space="preserve">
<g id="nXvmt0.tif_2_">
	<g>
		<path fill-rule="evenodd" clip-rule="evenodd" fill="#214260" stroke="#FFFFFF" stroke-miterlimit="10" d="M0.857,39.74
			c0.189-0.631,0.322-1.285,0.576-1.887c0.888-2.099,2.499-3.371,4.682-3.941c0.938-0.246,1.883-0.469,2.83-0.679
			c0.276-0.061,0.341-0.179,0.371-0.451c0.059-0.541-0.135-0.857-0.583-1.186c-1.387-1.014-2.266-2.416-2.357-4.128
			c-0.106-1.982-0.134-3.989,0.048-5.965c0.258-2.769,2.863-4.988,5.641-5.107c1.808-0.077,3.483,0.218,4.903,1.428
			c0.099,0.085,0.192,0.174,0.288,0.26c0.093,0.085,0.187,0.169,0.29,0.26c1.493-3.766,4.183-5.962,8.265-5.941
			c4.021,0.022,6.653,2.231,8.127,5.901c0.426-0.328,0.832-0.7,1.291-0.984c3.047-1.885,8.565-1.195,9.797,3.794
			c0.05,0.203,0.104,0.412,0.108,0.619c0.047,2.134,0.251,4.279-0.13,6.395c-0.276,1.532-1.161,2.719-2.426,3.619
			c-0.327,0.234-0.558,0.991-0.365,1.312c0.053,0.089,0.207,0.137,0.322,0.165c0.927,0.23,1.856,0.445,2.783,0.674
			c3.239,0.801,5.303,3.431,5.315,6.772c0.005,0.858,0.008,1.716,0,2.575c-0.008,0.793-0.373,1.158-1.169,1.159
			c-2.366,0.007-4.73,0.003-7.096,0.006c-0.174,0-0.347,0-0.495,0c0,1.442,0,2.831,0,4.274c0.221,0,0.394,0,0.565,0
			c1.701-0.001,3.401-0.009,5.102,0.002c0.83,0.004,1.362,0.616,1.06,1.262c-0.13,0.277-0.479,0.473-0.765,0.648
			c-0.132,0.08-0.348,0.032-0.525,0.032c-14.368,0-28.738,0-43.107-0.001c-0.209,0-0.425,0.001-0.627-0.043
			c-0.455-0.098-0.769-0.502-0.764-0.94c0.004-0.438,0.331-0.833,0.785-0.927c0.156-0.031,0.321-0.031,0.483-0.031
			c1.652-0.003,3.304-0.003,4.957-0.002c0.174,0,0.349,0,0.582,0c0-1.429,0-2.816,0-4.277c-0.121,0-0.292,0-0.461,0
			c-2.332,0-4.666-0.011-6.999,0.005c-0.617,0.006-1.072-0.181-1.298-0.784C0.857,42.333,0.857,41.037,0.857,39.74z M32.356,23.123
			c-2.084,0.083-3.62-0.741-4.693-2.445c-2.551,1.856-5.395,2.593-8.444,2.443c0,1.318-0.118,2.59,0.025,3.829
			c0.327,2.863,2.631,5.104,5.557,5.569c2.717,0.433,5.554-1.064,6.833-3.543C32.598,27.115,32.306,25.136,32.356,23.123z
			 M11.544,48.652c3.959,0,7.846,0,11.723,0c-2.938-2.931-5.864-5.852-8.801-8.781c-1.083,0.709-2.082,2.079-2.529,3.401
			C11.346,45.025,11.625,46.829,11.544,48.652z M37.116,39.917c-2.968,2.964-5.888,5.881-8.737,8.728c3.764,0,7.654,0,11.542,0
			c0-1.188,0.055-2.34-0.012-3.484C39.778,42.953,38.791,41.183,37.116,39.917z M19.156,21.159c2.07,0.114,4.022-0.197,5.857-1.131
			c1.332-0.677,2.448-1.617,3.427-2.741c0.43-0.494,1.001-0.528,1.418-0.163c0.445,0.391,0.448,0.936,0.003,1.467
			c-0.225,0.269-0.462,0.53-0.684,0.783c0.672,1.374,2.074,2.026,3.163,1.725c0.152-3.667-2.933-6.828-6.622-6.787
			C21.992,14.354,18.972,17.478,19.156,21.159z M17.234,24.805c-1.116-0.255-2.186-0.338-3.105-0.753
			c-1.014-0.459-1.836-0.427-2.839,0.007c-0.928,0.401-1.986,0.497-3.076,0.746c0.038,0.863-0.003,1.827,0.15,2.758
			c0.1,0.596,0.406,1.202,0.763,1.7c1.131,1.588,3.124,1.954,5.037,1.458c1.538-0.401,2.548-1.448,2.873-2.986
			C17.245,26.754,17.182,25.715,17.234,24.805z M34.327,24.662c0,0.855-0.027,1.648,0.007,2.438c0.037,0.793,0.331,1.51,0.811,2.147
			c1.187,1.58,3.097,1.946,5.043,1.485c1.182-0.279,2.03-1.028,2.594-2.103c0.664-1.262,0.412-2.614,0.458-3.968
			c-1.541-0.059-2.959-0.396-4.288-1.096c-0.104-0.055-0.291-0.037-0.402,0.02C37.235,24.27,35.834,24.613,34.327,24.662z
			 M48.672,42.463c0-0.799,0.049-1.528-0.01-2.251c-0.157-1.917-1.099-3.374-2.879-4.094c-1.214-0.492-2.537-0.713-3.848-1.065
			c-0.397,1.545-0.751,3.021-1.16,4.479c-0.208,0.737-0.371,1.43,0.19,2.086c0.1,0.117,0.155,0.287,0.193,0.441
			c0.086,0.349,0.305,0.414,0.638,0.409c1.602-0.016,3.203-0.006,4.805-0.006C47.278,42.463,47.955,42.463,48.672,42.463z
			 M10.133,42.445c0.225-0.454,0.469-0.877,0.639-1.327c0.1-0.264,0.146-0.583,0.101-0.855c-0.095-0.573-0.264-1.133-0.408-1.697
			c-0.297-1.151-0.598-2.304-0.902-3.472c-0.297,0.065-0.55,0.114-0.798,0.181c-1.058,0.286-2.182,0.437-3.161,0.896
			c-2.676,1.257-3.031,3.616-2.729,6.275C5.3,42.445,7.725,42.445,10.133,42.445z M28.152,34.177
			c-1.628,0.458-3.211,0.442-4.881-0.013c0.051,0.867-0.018,1.697,0.165,2.466c0.67,2.832,1.423,5.644,2.146,8.462
			c0.038,0.146,0.095,0.285,0.183,0.538c0.081-0.286,0.132-0.45,0.176-0.617c0.636-2.473,1.242-4.956,1.919-7.417
			C28.166,36.484,28.225,35.375,28.152,34.177z M8.257,22.706c1.154-0.031,2.258-0.205,3.19-0.807
			c0.896-0.577,1.68-0.663,2.515,0.017c0.013,0.011,0.028,0.016,0.044,0.023c0.996,0.485,2.041,0.754,3.182,0.754
			c-0.016-1.636-0.609-2.946-2.011-3.731c-1.695-0.952-3.469-0.931-5.115,0.118C8.787,19.891,8.237,21.159,8.257,22.706z
			 M34.314,22.702c1.157-0.022,2.261-0.204,3.192-0.805c0.899-0.577,1.68-0.66,2.516,0.021c0.012,0.011,0.028,0.015,0.042,0.022
			c0.996,0.483,2.04,0.755,3.153,0.751c0.085-1.576-0.714-3.086-2.07-3.784c-1.694-0.873-3.424-0.862-5.035,0.171
			C34.842,19.897,34.29,21.161,34.314,22.702z M23.885,46.297c-0.747-2.909-1.491-5.811-2.244-8.743
			c-1.782,0.429-3.501,0.846-5.205,1.258C18.932,41.32,21.393,43.792,23.885,46.297z M27.656,46.157
			c2.449-2.447,4.896-4.891,7.362-7.354c-1.673-0.4-3.394-0.813-5.158-1.238C29.112,40.476,28.375,43.345,27.656,46.157z
			 M18.28,30.137c-0.68,0.604-1.372,1.141-1.95,1.78c-0.208,0.228-0.172,0.704-0.177,1.067c-0.002,0.085,0.273,0.212,0.439,0.257
			c1.2,0.326,2.411,0.618,3.608,0.958c0.393,0.111,0.754,0.327,1.173,0.513c0-0.421,0.018-0.778-0.011-1.132
			c-0.01-0.136-0.095-0.318-0.204-0.39C19.924,32.387,18.956,31.34,18.28,30.137z M30.124,34.556
			c1.764-0.499,3.481-0.984,5.207-1.473c0.104-0.606,0.137-1.192-0.594-1.51c-0.199-0.087-0.365-0.271-0.516-0.436
			c-0.323-0.35-0.627-0.715-0.918-1.047c-0.442,0.58-0.829,1.188-1.318,1.695c-0.501,0.519-1.11,0.934-1.66,1.408
			c-0.097,0.083-0.185,0.228-0.193,0.351C30.108,33.91,30.124,34.281,30.124,34.556z M37.299,32.805
			c0.021,0.385-0.017,0.811,0.077,1.208c0.33,1.4,0.695,2.791,1.07,4.178c0.065,0.24,0.25,0.447,0.379,0.669
			c0.043-0.013,0.086-0.026,0.131-0.04c0.425-1.668,0.865-3.334,1.265-5.009c0.079-0.329,0.013-0.694,0.013-1.005
			C39.235,32.805,38.301,32.805,37.299,32.805z M12.534,38.917c0.199-0.211,0.407-0.328,0.443-0.485
			c0.421-1.875,1.172-3.685,1.231-5.628c-1.022,0-1.966,0-2.997,0C11.293,34.887,12.138,36.802,12.534,38.917z M32.044,35.956
			c0.003,0.039,0.006,0.076,0.009,0.113c1.353,0.344,2.705,0.689,4.102,1.045c-0.188-0.717-0.359-1.367-0.536-2.039
			C34.396,35.375,33.22,35.666,32.044,35.956z M15.869,35.076c-0.178,0.701-0.345,1.35-0.52,2.033
			c1.409-0.361,2.758-0.706,4.106-1.052c0-0.036,0-0.072-0.001-0.108C18.28,35.663,17.106,35.377,15.869,35.076z"/>
		<path fill-rule="evenodd" clip-rule="evenodd" fill="#214260" stroke="#FFFFFF" stroke-miterlimit="10" d="M26.038,0.852
			c0.542,0.301,0.705,0.77,0.689,1.375c-0.031,1.18-0.005,2.361-0.011,3.543c-0.003,0.731-0.405,1.201-0.994,1.182
			c-0.575-0.019-0.943-0.47-0.947-1.183c-0.004-1.182,0.02-2.362-0.01-3.542c-0.015-0.605,0.146-1.075,0.69-1.375
			C25.649,0.852,25.843,0.852,26.038,0.852z"/>
		<path fill-rule="evenodd" clip-rule="evenodd" fill="#214260" stroke="#FFFFFF" stroke-miterlimit="10" d="M37.746,5.756
			c-0.216,0.363-0.325,0.659-0.527,0.867c-1.187,1.215-2.392,2.415-3.6,3.608c-0.484,0.478-1.058,0.512-1.465,0.117
			c-0.407-0.395-0.391-0.99,0.076-1.464c1.205-1.221,2.421-2.429,3.637-3.642c0.322-0.321,0.728-0.51,1.135-0.276
			C37.291,5.13,37.482,5.465,37.746,5.756z"/>
		<path fill-rule="evenodd" clip-rule="evenodd" fill="#214260" stroke="#FFFFFF" stroke-miterlimit="10" d="M14.939,4.895
			c0.348,0.208,0.628,0.315,0.823,0.506c1.146,1.119,2.277,2.253,3.404,3.391c0.472,0.478,0.507,1.064,0.115,1.466
			c-0.413,0.425-0.991,0.394-1.5-0.111c-1.127-1.116-2.244-2.241-3.364-3.362c-0.339-0.337-0.53-0.754-0.285-1.176
			C14.297,5.324,14.645,5.146,14.939,4.895z"/>
		<path fill-rule="evenodd" clip-rule="evenodd" fill="#214260" stroke="#FFFFFF" stroke-miterlimit="10" d="M25.761,8.413
			c0.527,0.007,0.959,0.449,0.95,0.968s-0.461,0.95-0.982,0.941c-0.521-0.011-0.963-0.461-0.95-0.974
			C24.789,8.824,25.229,8.405,25.761,8.413z"/>
	</g>
</g>
</svg>
