<?xml version="1.0" encoding="utf-8"?>
<!-- Generator: Adobe Illustrator 16.0.0, SVG Export Plug-In . SVG Version: 6.00 Build 0)  -->
<!DOCTYPE svg PUBLIC "-//W3C//DTD SVG 1.1//EN" "http://www.w3.org/Graphics/SVG/1.1/DTD/svg11.dtd">
<svg version="1.1" id="Layer_1" xmlns="http://www.w3.org/2000/svg" xmlns:xlink="http://www.w3.org/1999/xlink" x="0px" y="0px"
	 width="63.036px" height="63.051px" viewBox="0 0 63.036 63.051" enable-background="new 0 0 63.036 63.051" xml:space="preserve">
<g id="nXvmt0.tif">
	<g>
		<path fill-rule="evenodd" clip-rule="evenodd" fill="#214260" stroke="#EDEDED" stroke-miterlimit="10" d="M0.5,48.964
			c0.235-0.787,0.401-1.602,0.718-2.352c1.106-2.615,3.114-4.201,5.835-4.912c1.169-0.307,2.347-0.584,3.527-0.846
			c0.344-0.075,0.425-0.223,0.462-0.562c0.073-0.674-0.168-1.068-0.728-1.478c-1.729-1.263-2.824-3.011-2.938-5.144
			c-0.133-2.471-0.167-4.972,0.06-7.434c0.321-3.451,3.568-6.217,7.029-6.365c2.253-0.096,4.341,0.271,6.11,1.779
			c0.123,0.105,0.239,0.217,0.359,0.324c0.116,0.106,0.233,0.211,0.361,0.324c1.861-4.693,5.213-7.43,10.299-7.404
			c5.011,0.027,8.291,2.781,10.128,7.354c0.53-0.409,1.036-0.872,1.608-1.227c3.798-2.35,10.675-1.489,12.21,4.728
			c0.062,0.253,0.129,0.514,0.135,0.771c0.059,2.659,0.313,5.332-0.162,7.97c-0.345,1.909-1.447,3.388-3.023,4.51
			c-0.408,0.292-0.696,1.235-0.455,1.635c0.066,0.11,0.258,0.171,0.401,0.206c1.155,0.286,2.313,0.555,3.468,0.84
			c4.036,0.999,6.608,4.275,6.624,8.439c0.006,1.069,0.01,2.139-0.001,3.209c-0.01,0.988-0.465,1.443-1.457,1.445
			c-2.948,0.008-5.896,0.004-8.844,0.007c-0.217,0-0.433,0-0.617,0c0,1.798,0,3.528,0,5.327c0.276,0,0.491,0,0.705,0
			c2.12-0.001,4.239-0.012,6.358,0.002c1.034,0.005,1.697,0.769,1.32,1.572c-0.162,0.346-0.598,0.59-0.953,0.809
			c-0.165,0.1-0.434,0.04-0.655,0.04c-17.906,0-35.814,0-53.721-0.001c-0.261,0-0.53,0.001-0.782-0.054
			c-0.566-0.122-0.958-0.626-0.952-1.172c0.005-0.546,0.412-1.038,0.979-1.155c0.194-0.039,0.4-0.039,0.602-0.039
			c2.06-0.003,4.118-0.003,6.178-0.002c0.217,0,0.435,0,0.726,0c0-1.781,0-3.51,0-5.33c-0.15,0-0.363,0-0.575,0
			c-2.906,0-5.814-0.014-8.722,0.007C1.35,54.794,0.782,54.562,0.5,53.81C0.5,52.194,0.5,50.579,0.5,48.964z M39.755,28.255
			c-2.598,0.104-4.512-0.924-5.848-3.047c-3.18,2.313-6.723,3.231-10.523,3.044c0,1.644-0.147,3.228,0.031,4.772
			c0.407,3.568,3.279,6.361,6.926,6.94c3.386,0.539,6.921-1.326,8.516-4.415C40.055,33.229,39.692,30.763,39.755,28.255z
			 M13.818,60.069c4.934,0,9.778,0,14.609,0c-3.662-3.652-7.309-7.293-10.969-10.943c-1.35,0.884-2.595,2.591-3.151,4.238
			C13.571,55.55,13.919,57.798,13.818,60.069z M45.687,49.185c-3.698,3.693-7.338,7.329-10.889,10.877c4.69,0,9.539,0,14.385,0
			c0-1.479,0.068-2.916-0.015-4.342C49.004,52.968,47.773,50.761,45.687,49.185z M23.304,25.808c2.58,0.142,5.013-0.246,7.299-1.409
			c1.66-0.844,3.051-2.016,4.271-3.417c0.536-0.615,1.248-0.658,1.767-0.203c0.554,0.487,0.558,1.167,0.004,1.828
			c-0.28,0.335-0.576,0.661-0.853,0.977c0.838,1.712,2.585,2.525,3.941,2.149c0.189-4.569-3.655-8.509-8.253-8.458
			C26.839,17.327,23.074,21.22,23.304,25.808z M20.909,30.351c-1.391-0.318-2.724-0.421-3.869-0.938
			c-1.264-0.572-2.288-0.532-3.538,0.009c-1.157,0.5-2.476,0.619-3.833,0.93c0.047,1.076-0.004,2.277,0.188,3.438
			c0.124,0.742,0.506,1.497,0.95,2.118c1.41,1.979,3.893,2.435,6.277,1.817c1.917-0.499,3.176-1.804,3.58-3.721
			C20.922,32.78,20.844,31.485,20.909,30.351z M42.21,30.173c0,1.065-0.034,2.055,0.009,3.039c0.045,0.988,0.413,1.881,1.01,2.676
			c1.479,1.969,3.859,2.426,6.285,1.852c1.473-0.348,2.529-1.282,3.232-2.621c0.827-1.572,0.514-3.258,0.571-4.945
			c-1.92-0.073-3.688-0.494-5.343-1.365c-0.129-0.068-0.363-0.046-0.5,0.024C45.835,29.684,44.089,30.112,42.21,30.173z
			 M60.088,52.356c0-0.995,0.062-1.904-0.012-2.805c-0.196-2.389-1.369-4.205-3.588-5.103c-1.513-0.613-3.162-0.888-4.796-1.327
			c-0.495,1.926-0.937,3.765-1.445,5.582c-0.259,0.919-0.462,1.782,0.237,2.6c0.125,0.146,0.193,0.357,0.241,0.55
			c0.108,0.435,0.38,0.517,0.795,0.511c1.996-0.02,3.992-0.008,5.988-0.008C58.351,52.356,59.194,52.356,60.088,52.356z
			 M12.059,52.335c0.28-0.566,0.584-1.094,0.796-1.654c0.125-0.328,0.182-0.727,0.126-1.066c-0.118-0.714-0.328-1.412-0.508-2.115
			c-0.37-1.435-0.745-2.87-1.124-4.326c-0.37,0.082-0.686,0.143-0.995,0.226c-1.318,0.356-2.719,0.544-3.939,1.116
			c-3.335,1.566-3.777,4.506-3.4,7.82C6.036,52.335,9.058,52.335,12.059,52.335z M34.516,42.03c-2.029,0.57-4.002,0.551-6.083-0.016
			c0.064,1.08-0.021,2.114,0.206,3.073c0.834,3.529,1.773,7.033,2.673,10.546c0.047,0.182,0.119,0.355,0.228,0.671
			c0.101-0.356,0.165-0.562,0.22-0.769c0.793-3.082,1.548-6.176,2.393-9.244C34.532,44.905,34.606,43.523,34.516,42.03z
			 M9.722,27.735c1.438-0.039,2.814-0.256,3.975-1.006c1.117-0.719,2.094-0.826,3.134,0.021c0.016,0.014,0.035,0.02,0.055,0.028
			c1.241,0.604,2.543,0.94,3.965,0.94c-0.02-2.039-0.759-3.672-2.507-4.65c-2.113-1.187-4.323-1.16-6.374,0.146
			C10.382,24.227,9.696,25.808,9.722,27.735z M42.194,27.73c1.442-0.028,2.817-0.255,3.979-1.003c1.12-0.72,2.093-0.823,3.135,0.026
			c0.015,0.014,0.035,0.019,0.053,0.028c1.241,0.603,2.542,0.94,3.93,0.937c0.105-1.964-0.89-3.847-2.58-4.716
			c-2.111-1.088-4.268-1.074-6.275,0.214C42.852,24.234,42.164,25.81,42.194,27.73z M29.197,57.135
			c-0.93-3.626-1.858-7.241-2.797-10.896c-2.22,0.535-4.363,1.055-6.486,1.568C23.025,50.933,26.092,54.013,29.197,57.135z
			 M33.896,56.96c3.053-3.05,6.102-6.096,9.175-9.164c-2.085-0.498-4.229-1.014-6.428-1.543
			C35.712,49.88,34.794,53.456,33.896,56.96z M22.212,36.995c-0.847,0.754-1.709,1.422-2.43,2.219
			c-0.259,0.284-0.214,0.877-0.22,1.33c-0.002,0.106,0.34,0.265,0.547,0.32c1.496,0.406,3.005,0.771,4.496,1.193
			c0.489,0.139,0.94,0.407,1.462,0.64c0-0.524,0.022-0.97-0.014-1.411c-0.013-0.17-0.119-0.396-0.255-0.486
			C24.261,39.8,23.055,38.495,22.212,36.995z M36.973,42.502c2.198-0.621,4.339-1.227,6.489-1.835
			c0.129-0.755,0.171-1.485-0.74-1.882c-0.248-0.108-0.455-0.338-0.643-0.544c-0.402-0.436-0.781-0.891-1.144-1.305
			c-0.551,0.723-1.033,1.481-1.642,2.113c-0.625,0.646-1.384,1.164-2.068,1.755c-0.121,0.104-0.23,0.284-0.241,0.438
			C36.953,41.698,36.973,42.16,36.973,42.502z M45.914,40.32c0.026,0.479-0.021,1.011,0.096,1.506
			c0.411,1.744,0.866,3.478,1.334,5.206c0.081,0.299,0.312,0.557,0.473,0.834c0.054-0.017,0.107-0.033,0.163-0.051
			c0.529-2.078,1.078-4.154,1.576-6.242c0.099-0.41,0.016-0.865,0.016-1.253C48.327,40.32,47.163,40.32,45.914,40.32z
			 M15.052,47.938c0.248-0.263,0.507-0.409,0.552-0.604c0.525-2.337,1.461-4.593,1.535-7.014c-1.274,0-2.45,0-3.735,0
			C13.505,42.915,14.558,45.302,15.052,47.938z M39.365,44.247c0.004,0.048,0.008,0.095,0.012,0.141
			c1.686,0.429,3.371,0.858,5.112,1.302c-0.234-0.893-0.447-1.703-0.668-2.541C42.297,43.523,40.831,43.886,39.365,44.247z
			 M19.207,43.151c-0.222,0.873-0.43,1.682-0.647,2.533c1.755-0.45,3.437-0.88,5.117-1.311c0-0.045,0-0.09-0.001-0.135
			C22.212,43.883,20.749,43.526,19.207,43.151z"/>
		<path fill-rule="evenodd" clip-rule="evenodd" fill="#214260" stroke="#EDEDED" stroke-miterlimit="10" d="M31.88,0.5
			c0.675,0.376,0.879,0.96,0.859,1.714c-0.038,1.471-0.007,2.943-0.013,4.416c-0.004,0.911-0.504,1.496-1.239,1.473
			c-0.717-0.023-1.176-0.586-1.181-1.475c-0.006-1.473,0.024-2.943-0.013-4.414C30.275,1.46,30.475,0.875,31.153,0.5
			C31.396,0.5,31.637,0.5,31.88,0.5z"/>
		<path fill-rule="evenodd" clip-rule="evenodd" fill="#214260" stroke="#EDEDED" stroke-miterlimit="10" d="M46.472,6.611
			c-0.27,0.452-0.405,0.821-0.657,1.08c-1.479,1.515-2.98,3.009-4.486,4.497c-0.603,0.596-1.318,0.638-1.825,0.146
			c-0.508-0.492-0.487-1.234,0.095-1.825C41.1,8.987,42.615,7.481,44.13,5.97c0.402-0.4,0.907-0.636,1.415-0.344
			C45.904,5.831,46.142,6.249,46.472,6.611z"/>
		<path fill-rule="evenodd" clip-rule="evenodd" fill="#214260" stroke="#EDEDED" stroke-miterlimit="10" d="M18.049,5.538
			c0.434,0.259,0.782,0.393,1.025,0.631c1.429,1.395,2.838,2.809,4.242,4.227c0.588,0.595,0.632,1.326,0.144,1.826
			c-0.514,0.529-1.235,0.49-1.869-0.139c-1.404-1.391-2.796-2.793-4.192-4.189c-0.422-0.42-0.661-0.939-0.355-1.466
			C17.249,6.073,17.682,5.851,18.049,5.538z"/>
		<path fill-rule="evenodd" clip-rule="evenodd" fill="#214260" stroke="#EDEDED" stroke-miterlimit="10" d="M31.535,9.923
			c0.657,0.009,1.195,0.56,1.184,1.206s-0.575,1.184-1.224,1.173c-0.65-0.014-1.2-0.574-1.184-1.213
			C30.324,10.435,30.872,9.913,31.535,9.923z"/>
	</g>
</g>
</svg>
