<?xml version="1.0" encoding="utf-8"?>
<!-- Generator: Adobe Illustrator 16.0.0, SVG Export Plug-In . SVG Version: 6.00 Build 0)  -->
<!DOCTYPE svg PUBLIC "-//W3C//DTD SVG 1.1//EN" "http://www.w3.org/Graphics/SVG/1.1/DTD/svg11.dtd">
<svg version="1.1" id="Layer_1" xmlns="http://www.w3.org/2000/svg" xmlns:xlink="http://www.w3.org/1999/xlink" x="0px" y="0px"
	 width="63.036px" height="63.051px" viewBox="0 0 63.036 63.051" enable-background="new 0 0 63.036 63.051" xml:space="preserve">
<g id="_x39_MoMZW_1_">
	<g>
		<path fill-rule="evenodd" clip-rule="evenodd" fill="#214260" stroke="#FFFFFF" stroke-miterlimit="10" d="M-87.419,9.696
			c0.413-0.774,0.942-1.048,1.55-0.78c0.539,0.236,0.699,0.691,0.697,1.247c-0.006,2.341-0.002,4.681-0.002,7.021
			c0,0.19,0,0.38,0,0.642c0.23,0,0.417,0,0.603,0c1.601,0,3.203-0.002,4.803,0.001c3.432,0.007,5.853,2.421,5.864,5.843
			c0.001,0.279,0,0.559,0,0.914c0.248,0,0.468,0,0.689,0c12.738,0,25.479,0,38.219,0c1.292,0,1.637,0.34,1.637,1.615
			c0.001,4.205,0.002,8.411-0.001,12.616c-0.001,0.211-0.001,0.426-0.045,0.629c-0.125,0.574-0.577,0.912-1.142,0.885
			c-0.557-0.029-1.004-0.42-1.029-1.006c-0.041-0.912-0.021-1.828-0.027-2.744c-0.001-0.223,0-0.445,0-0.695
			c-16.547,0-33.025,0-49.57,0c0,0.902,0,1.777,0,2.652c0,0.123,0.002,0.246,0.002,0.369c-0.002,0.811-0.278,1.266-0.846,1.398
			c-0.597,0.139-1.016-0.109-1.401-0.832C-87.419,29.546-87.419,19.621-87.419,9.696z M-35.637,26.869c-16.533,0-33.01,0-49.503,0
			c0,2.248,0,4.456,0,6.688c16.513,0,32.992,0,49.503,0C-35.637,31.322-35.637,29.115-35.637,26.869z M-85.168,24.55
			c3.043,0,6.008,0,9.017,0c0-0.364,0.015-0.695-0.002-1.025c-0.105-2.008-1.342-3.337-3.349-3.429
			c-1.772-0.082-3.551-0.023-5.328-0.007c-0.113,0.001-0.322,0.177-0.324,0.273C-85.175,21.748-85.168,23.133-85.168,24.55z"/>
	</g>
</g>
<g>
	<g>
		<g>
			<path fill="#214260" stroke="#FFFFFF" stroke-width="0.5" stroke-miterlimit="10" d="M-33.45-14.271
				c-0.171-0.176-0.406-0.27-0.65-0.27c-0.24,0-0.477,0.094-0.648,0.27c-0.173,0.169-0.271,0.41-0.271,0.648
				c0,0.24,0.099,0.478,0.271,0.65c0.172,0.174,0.408,0.27,0.648,0.27c0.244,0,0.479-0.096,0.65-0.27
				c0.173-0.173,0.271-0.41,0.271-0.65C-33.179-13.86-33.277-14.102-33.45-14.271z"/>
		</g>
	</g>
	<g>
		<g>
			<path fill="#214260" stroke="#FFFFFF" stroke-width="0.5" stroke-miterlimit="10" d="M-63.822-11.325
				c-0.171-0.172-0.409-0.27-0.65-0.27c-0.243,0-0.478,0.098-0.651,0.27c-0.171,0.171-0.27,0.408-0.27,0.65
				c0,0.243,0.098,0.479,0.27,0.65c0.173,0.174,0.409,0.27,0.651,0.27c0.241,0,0.479-0.096,0.65-0.27
				c0.171-0.171,0.269-0.407,0.269-0.65C-63.553-10.917-63.65-11.154-63.822-11.325z"/>
		</g>
	</g>
	<g>
		<g>
			<path fill="#214260" stroke="#FFFFFF" stroke-width="0.5" stroke-miterlimit="10" d="M-32.143-35.989
				c-2.25-3.944-6.037-6.895-10.395-8.103c-0.49-0.134-0.998,0.153-1.134,0.641c-0.135,0.491,0.153,0.999,0.643,1.133
				c3.893,1.078,7.276,3.717,9.285,7.24c0.17,0.296,0.482,0.463,0.8,0.463c0.156,0,0.313-0.038,0.456-0.121
				C-32.046-34.985-31.892-35.547-32.143-35.989z"/>
		</g>
	</g>
	<g>
		<g>
			<path fill="#214260" stroke="#FFFFFF" stroke-width="0.5" stroke-miterlimit="10" d="M-47.059-44.716h-0.098
				c-0.509,0-0.921,0.412-0.921,0.92c0,0.509,0.412,0.921,0.921,0.921h0.087c0.003,0,0.005,0,0.005,0c0.507,0,0.917-0.41,0.92-0.917
				C-46.14-44.296-46.551-44.714-47.059-44.716z"/>
		</g>
	</g>
	<g>
		<g>
			<path fill="#214260" stroke="#FFFFFF" stroke-width="0.5" stroke-miterlimit="10" d="M-24.255-26.784
				c0-0.507-0.414-0.922-0.921-0.922H-26.3c-0.228-5.404-2.439-10.455-6.289-14.306c-3.13-3.132-7.056-5.178-11.322-5.954v-0.497
				c0-2.156-1.752-3.905-3.905-3.905c-2.152,0-3.901,1.749-3.901,3.905v0.497c-4.268,0.776-8.196,2.822-11.326,5.954
				c-3.85,3.852-6.063,8.902-6.288,14.306h-1.124c-0.508,0-0.921,0.415-0.921,0.922c0,2.709,1.84,4.995,4.334,5.683l-3.815,1.847
				c-0.457,0.222-0.646,0.77-0.426,1.229c0.221,0.458,0.772,0.647,1.23,0.428l4.638-2.245l5.135,10.599l-4.638,2.247
				c-0.458,0.223-0.648,0.771-0.429,1.228c0.161,0.331,0.488,0.522,0.831,0.522c0.135,0,0.27-0.03,0.399-0.092l5.468-2.649
				c0.219-0.105,0.387-0.296,0.468-0.526c0.081-0.23,0.064-0.484-0.041-0.702l-0.436-0.897l13.198,2.682
				c0.617,0.125,1.241,0.188,1.864,0.188c2.274,0,4.514-0.819,6.247-2.331l1.724-1.506c0.384-0.334,0.423-0.914,0.087-1.297
				c-0.333-0.384-0.914-0.42-1.296-0.088l-1.725,1.506c-1.778,1.548-4.221,2.194-6.534,1.726l-14.573-2.964l-2.758-5.69l6.383-2.567
				c1.376-0.554,2.898-0.568,4.287-0.04l6.576,2.507c0.354,0.133,0.624,0.4,0.766,0.753c0.142,0.35,0.127,0.731-0.035,1.07
				c-0.283,0.596-0.95,0.894-1.582,0.706l-5.32-1.559c-0.487-0.143-0.999,0.136-1.143,0.625c-0.143,0.487,0.137,0.997,0.626,1.143
				l5.317,1.562c0.302,0.086,0.605,0.13,0.903,0.13c0.899,0,1.752-0.383,2.354-1.052l0.322,0.021c0.223,0.012,0.444,0.02,0.667,0.02
				c2.325,0,4.597-0.752,6.467-2.153l4.843-3.625c0.391-0.293,0.943-0.274,1.314,0.046c0.233,0.199,0.364,0.483,0.365,0.793
				c0.001,0.309-0.127,0.592-0.359,0.795l-2.684,2.338c-0.384,0.337-0.422,0.918-0.088,1.302c0.334,0.383,0.915,0.424,1.299,0.088
				l2.681-2.34c0.634-0.554,0.996-1.35,0.992-2.188c-0.003-0.643-0.217-1.257-0.6-1.757C-25.845-22.113-24.255-24.263-24.255-26.784
				z M-49.878-48.463L-49.878-48.463c0-1.139,0.925-2.063,2.062-2.063c1.137,0,2.064,0.924,2.064,2.063v0.242
				c-0.683-0.062-1.37-0.097-2.064-0.097c-0.692,0-1.381,0.035-2.062,0.097V-48.463L-49.878-48.463z M-47.816-46.478
				c10.552,0,19.191,8.34,19.673,18.772h-39.345C-67.007-38.138-58.366-46.478-47.816-46.478z M-63.228-19.548l-0.65-1.345h3.994
				L-63.228-19.548z M-36.937-18.196c-1.602,1.198-3.563,1.827-5.558,1.783c0.052-0.506-0.015-1.025-0.21-1.507
				c-0.327-0.824-0.991-1.475-1.817-1.789l-3.107-1.184h14.291L-36.937-18.196z M-30.145-22.735h-35.341
				c-1.916,0-3.525-1.337-3.945-3.127h43.228C-26.619-24.072-28.229-22.735-30.145-22.735z"/>
		</g>
	</g>
	<g>
		<g>
			<path fill="#214260" stroke="#FFFFFF" stroke-width="0.5" stroke-miterlimit="10" d="M-46.089-39.531
				c-0.613,0-1.212,0.181-1.728,0.504c-0.513-0.324-1.115-0.504-1.727-0.504c-1.816,0-3.296,1.522-3.296,3.39
				c0,2.713,4.052,5.49,4.513,5.798c0.154,0.102,0.333,0.153,0.51,0.153c0.178,0,0.358-0.052,0.511-0.153
				c0.463-0.308,4.514-3.085,4.514-5.798C-42.792-38.009-44.271-39.531-46.089-39.531z M-47.814-32.235
				C-49.1-33.196-51-34.949-51-36.141c0-0.851,0.656-1.546,1.458-1.546c0.4,0,0.77,0.166,1.046,0.469
				c0.176,0.193,0.422,0.302,0.68,0.302c0.26,0,0.507-0.109,0.681-0.302c0.277-0.303,0.649-0.469,1.048-0.469
				c0.804,0,1.454,0.696,1.454,1.546C-44.634-35.032-46.354-33.32-47.814-32.235z"/>
		</g>
	</g>
</g>
<g id="Bl9309_1_">
	<g>
		<path fill-rule="evenodd" clip-rule="evenodd" fill="#214260" stroke="#FFFFFF" stroke-width="0.5" stroke-miterlimit="10" d="
			M275.85,25.805c-0.771-0.241-1.477-0.579-2.045-1.188c-1.771-1.898-1.486-5.213,0.613-6.542c0.532-0.337,1.158-0.534,1.752-0.764
			c1.915-0.743,3.834-1.471,5.752-2.206c0.088-0.033,0.173-0.073,0.328-0.138c-1.004-0.384-1.948-0.746-2.894-1.107
			c-1.333-0.511-2.649-1.073-4.003-1.521c-2.827-0.934-3.253-3.832-2.163-5.903c0.884-1.677,2.24-2.33,4.296-2.086
			c-0.032-0.662-0.081-1.321-0.094-1.981c-0.021-1.228,0.25-2.396,0.706-3.536c0.378-0.944,0.715-1.909,1.017-2.878
			c0.197-0.635,0.069-1.294-0.208-1.874c-0.749-1.568-1.551-3.11-2.329-4.665c-0.194-0.386-0.438-0.76-0.558-1.169
			c-0.159-0.547,0.092-0.965,0.578-1.265c1.796-1.106,3.649-0.976,5.531-0.278c0.851,0.315,1.6,0.803,2.287,1.396
			c0.38,0.328,0.778,0.643,1.199,0.914c0.577,0.371,0.812,0.304,1.165-0.267c2.32-3.757,2.816-7.722,1.279-11.885
			c-0.479-1.299-1.091-2.549-1.623-3.829c-0.161-0.387-0.297-0.792-0.382-1.202c-0.183-0.882,0.211-1.514,1.068-1.792
			c0.061-0.019,0.116-0.056,0.174-0.083c0.49,0,0.98,0,1.472,0c0.759,0.188,1.539,0.318,2.273,0.576
			c4.006,1.401,6.836,4.15,8.841,7.82c0.241,0.442,0.107,0.917-0.278,1.141c-0.423,0.245-0.904,0.108-1.176-0.379
			c-0.777-1.402-1.686-2.706-2.841-3.822c-2.047-1.981-4.388-3.387-7.292-3.667c-0.187-0.018-0.376-0.002-0.63-0.002
			c0.096,0.26,0.172,0.487,0.262,0.708c0.664,1.637,1.443,3.237,1.974,4.917c1.391,4.402,0.658,8.551-1.766,12.433
			c-0.797,1.276-1.957,1.566-3.26,0.802c-0.548-0.321-1.051-0.729-1.538-1.139c-1.3-1.096-2.771-1.659-4.48-1.472
			c-0.355,0.039-0.7,0.187-1.112,0.303c0.117,0.189,0.189,0.312,0.268,0.432c1.006,1.547,1.752,3.224,2.445,4.926
			c0.543,1.337,0.429,2.665-0.062,3.983c-0.247,0.664-0.506,1.321-0.782,1.973c-0.739,1.742-0.711,3.524-0.301,5.328
			c0.026,0.112,0.131,0.253,0.232,0.293c1.693,0.66,3.394,1.307,5.06,1.944c-0.053-0.973-0.146-1.934-0.146-2.895
			c-0.001-0.984,0.147-1.957,0.543-2.87c0.14-0.321,0.312-0.638,0.525-0.916c0.62-0.811,1.525-0.956,2.387-0.404
			c0.733,0.47,1.107,1.216,1.497,1.954c0.26,0.491,0.485,1.012,0.821,1.448c0.695,0.901,1.575,0.847,2.045-0.185
			c0.372-0.817,0.593-1.721,0.766-2.608c0.323-1.66,0.354-3.329-0.191-4.964c-0.099-0.296-0.237-0.578-0.356-0.866
			c-0.072-0.177-0.153-0.351-0.213-0.531c-0.266-0.807-0.378-1.616,0.247-2.312c0.627-0.699,1.46-0.725,2.307-0.566
			c1.281,0.239,2.289,0.974,3.216,1.841c1.589,1.487,2.772,3.244,3.476,5.31c0.077,0.228,0.088,0.518,0.021,0.745
			c-0.097,0.323-0.382,0.489-0.73,0.485c-0.381-0.004-0.614-0.212-0.781-0.552c-0.472-0.961-0.909-1.947-1.464-2.86
			c-0.64-1.055-1.53-1.913-2.521-2.65c-0.564-0.42-1.186-0.71-1.912-0.741c-0.371-0.015-0.463,0.152-0.383,0.47
			c0.05,0.197,0.103,0.398,0.192,0.579c1.089,2.185,1.136,4.488,0.739,6.824c-0.153,0.907-0.388,1.813-0.704,2.676
			c-0.427,1.162-1.21,2.008-2.525,2.162c-0.81,0.095-1.542-0.176-2.069-0.766c-0.491-0.55-0.873-1.201-1.275-1.826
			c-0.24-0.376-0.409-0.799-0.643-1.181c-0.131-0.213-0.328-0.385-0.585-0.679c-0.196,0.44-0.39,0.765-0.487,1.118
			c-0.494,1.768-0.364,3.531,0.115,5.28c0.035,0.127,0.181,0.27,0.309,0.32c2.231,0.866,4.467,1.722,6.707,2.565
			c0.158,0.06,0.379,0.055,0.54-0.005c1.834-0.686,3.664-1.384,5.489-2.095c0.137-0.054,0.282-0.215,0.326-0.357
			c0.539-1.712,0.825-3.465,0.766-5.266c-0.02-0.58,0.295-0.967,0.799-0.981c0.515-0.014,0.83,0.329,0.851,0.93
			c0.053,1.534-0.132,3.043-0.48,4.534c-0.018,0.077-0.032,0.154-0.062,0.301c0.53-0.199,1.005-0.376,1.479-0.558
			c1.601-0.612,3.197-1.234,4.805-1.831c0.309-0.115,0.484-0.28,0.598-0.589c0.998-2.709,1.358-5.517,1.297-8.386
			c-0.042-1.927-0.278-3.829-0.971-5.646c-0.135-0.355-0.297-0.701-0.476-1.037c-0.097-0.181-0.252-0.33-0.445-0.574
			c-0.21,0.706-0.382,1.301-0.562,1.894c-0.401,1.318-1.178,2.301-2.534,2.71c-1.397,0.42-2.784-0.258-3.525-1.673
			c-0.508-0.967-0.643-2.015-0.673-3.083c-0.06-2.077-0.326-4.122-0.906-6.122c-0.165-0.572,0.06-1.012,0.546-1.143
			c0.485-0.13,0.88,0.138,1.047,0.711c0.637,2.184,0.88,4.423,0.991,6.688c0.034,0.707,0.171,1.444,0.434,2.097
			c0.486,1.213,1.755,1.348,2.543,0.296c0.284-0.379,0.434-0.869,0.603-1.323c0.188-0.509,0.301-1.047,0.496-1.553
			c0.452-1.167,1.542-1.503,2.53-0.736c0.405,0.314,0.757,0.755,0.998,1.21c0.914,1.722,1.296,3.604,1.464,5.527
			c0.284,3.275,0.004,6.5-0.957,9.653c-0.02,0.063-0.019,0.132-0.026,0.193c0.426,0.032,0.856,0.009,1.257,0.104
			c1.725,0.417,2.666,1.621,3.063,3.269c0.517,2.145-0.452,3.903-2.511,4.688c-2.198,0.837-4.396,1.678-6.594,2.518
			c-0.101,0.039-0.201,0.08-0.361,0.143c0.169,0.078,0.289,0.141,0.416,0.189c2.133,0.817,4.244,1.702,6.407,2.43
			c2.345,0.789,3.234,3.333,2.525,5.415c-0.479,1.407-1.38,2.388-2.874,2.739c-0.035,0.007-0.063,0.044-0.096,0.067
			c-0.354,0-0.708,0-1.062,0c-0.252-0.093-0.506-0.184-0.757-0.28c-5.247-2.001-10.493-4.005-15.745-5.993
			c-0.217-0.083-0.516-0.093-0.73-0.012c-5.516,2.085-11.027,4.187-16.538,6.285C276.559,25.805,276.205,25.805,275.85,25.805z
			 M309.284,18.265c-0.228-0.091-0.39-0.158-0.554-0.221c-7.849-3.001-15.697-6.002-23.546-9.003
			c-2.528-0.967-5.057-1.93-7.582-2.901c-0.578-0.224-1.158-0.316-1.75-0.087c-0.907,0.352-1.564,1.469-1.559,2.619
			c0.004,1.055,0.465,1.67,1.557,2.087c10.023,3.827,20.047,7.654,30.07,11.48c0.604,0.23,1.207,0.458,1.861,0.708
			C307.426,21.094,307.879,19.549,309.284,18.265z M296.145,11.438c0.096,0.053,0.129,0.077,0.167,0.091
			c2.158,0.828,4.315,1.659,6.478,2.474c0.145,0.054,0.35,0.031,0.5-0.026c2.836-1.072,5.668-2.154,8.501-3.236
			c1.127-0.431,1.571-1.119,1.51-2.322c-0.097-1.89-1.626-2.912-3.387-2.245c-3.038,1.154-6.071,2.32-9.106,3.48
			C299.272,10.242,297.736,10.829,296.145,11.438z M291.455,18.506c-0.102-0.051-0.144-0.076-0.188-0.094
			c-2.157-0.827-4.312-1.656-6.475-2.469c-0.144-0.054-0.348-0.021-0.5,0.036c-1.704,0.64-3.404,1.293-5.104,1.943
			c-0.274,0.105-0.548,0.214-0.871,0.34c1.403,1.284,1.854,2.841,1.504,4.687C283.714,21.461,287.557,19.994,291.455,18.506z
			 M274.291,21.557c0.011,0.812,0.279,1.561,0.937,2.136c0.773,0.676,1.793,0.601,2.471-0.17c0.996-1.133,0.699-3.238-0.572-4.053
			c-0.723-0.465-1.56-0.369-2.156,0.254C274.492,20.223,274.3,20.833,274.291,21.557z M313.401,21.516
			c-0.158-0.469-0.249-0.977-0.486-1.401c-0.615-1.102-1.892-1.245-2.792-0.358c-0.893,0.878-1.084,2.399-0.437,3.471
			c0.651,1.077,1.911,1.237,2.805,0.353C313.055,23.022,313.289,22.329,313.401,21.516z"/>
	</g>
</g>
<g>
	<path fill="#214260" stroke="#FFFFFF" stroke-width="0.5" stroke-miterlimit="10" d="M-150.287,155.982
		c0.486,0,0.883-0.395,0.883-0.881c0-0.487-0.396-0.881-0.883-0.881s-0.881,0.394-0.881,0.881
		C-151.167,155.588-150.773,155.982-150.287,155.982z"/>
	<path fill="#214260" stroke="#FFFFFF" stroke-width="0.5" stroke-miterlimit="10" d="M-159.099,155.982
		c0.486,0,0.881-0.395,0.881-0.881c0-0.487-0.395-0.881-0.881-0.881c-0.488,0-0.88,0.394-0.88,0.881
		C-159.979,155.588-159.587,155.982-159.099,155.982z"/>
	<path fill="#214260" stroke="#FFFFFF" stroke-width="0.5" stroke-miterlimit="10" d="M-157.049,162.039
		c0.739,0.35,1.534,0.526,2.356,0.526c0.806,0,1.583-0.17,2.31-0.505c0.444-0.203,0.637-0.727,0.433-1.17
		c-0.204-0.441-0.728-0.635-1.168-0.432c-0.497,0.227-1.026,0.344-1.575,0.344c-0.562,0-1.102-0.121-1.604-0.356
		c-0.44-0.21-0.966-0.021-1.173,0.421C-157.678,161.305-157.49,161.832-157.049,162.039z"/>
	<path fill="#214260" stroke="#FFFFFF" stroke-width="0.5" stroke-miterlimit="10" d="M-135.257,175.877
		c0-4.845-5.519-8.646-10.251-8.827l-2.414-2.167c2.94-2.145,4.725-5.592,4.725-9.252v-5.817c0-5.345-4.361-9.694-9.724-9.694
		h-3.526c-5.354,0-9.663,4.334-9.663,9.694v5.817c0,3.656,1.761,7.096,4.663,9.236l-2.432,2.183
		c-4.721,0.182-10.251,3.974-10.251,8.827v8.479c0,0.49,0.396,0.885,0.882,0.885h37.108c0.487,0,0.882-0.395,0.882-0.885V175.877z
		 M-156.646,179.424h3.9l0.924,4.053h-5.775L-156.646,179.424z M-152.669,177.66h-4.032l-0.677-2.105l2.686-1.344l2.743,1.373
		L-152.669,177.66z M-154.693,171.565l-3.062-4.899c0.994,0.275,2.028,0.42,3.07,0.42c1.034,0,2.061-0.145,3.05-0.414
		L-154.693,171.565z M-153.433,172.871l4.232-6.77l2.283,2.051l-2.904,6.526L-153.433,172.871z M-156.447,141.883h3.526
		c4.39,0,7.96,3.557,7.96,7.931v0.729l-1.654-2.385c-0.148-0.215-0.387-0.352-0.649-0.376c-0.263-0.022-0.521,0.075-0.703,0.261
		c-1.791,1.834-3.866,2.652-6.726,2.652c-2.858,0-4.934-0.818-6.727-2.652c-0.184-0.188-0.443-0.283-0.707-0.261
		c-0.262,0.024-0.5,0.164-0.649,0.382l-1.571,2.302v-0.652C-164.347,145.439-160.802,141.883-156.447,141.883z M-164.347,155.631
		v-2.039l2.447-3.588c1.962,1.668,4.279,2.453,7.207,2.453c2.932,0,5.25-0.785,7.212-2.457l2.521,3.632v1.999
		c0,5.275-4.312,9.691-9.725,9.691C-160.078,165.322-164.347,160.92-164.347,155.631z M-160.185,166.104l4.232,6.768l-3.61,1.808
		l-2.904-6.526L-160.185,166.104z M-172.366,175.877c0-3.629,4.412-6.764,8.27-7.048l3.296,7.407
		c0.098,0.219,0.282,0.389,0.51,0.471c0.226,0.082,0.475,0.066,0.691-0.039l0.627-0.316l0.714,2.228l-1.148,4.897h-12.96V175.877z
		 M-137.021,183.477h-12.994l-1.113-4.883l0.768-2.217l0.574,0.291c0.218,0.107,0.469,0.121,0.69,0.039
		c0.229-0.082,0.412-0.252,0.511-0.471l3.296-7.407c3.858,0.284,8.269,3.419,8.269,7.048V183.477z"/>
	<path fill="#214260" stroke="#FFFFFF" stroke-width="0.5" stroke-miterlimit="10" d="M-143.237,179.424h-3.524
		c-0.486,0-0.881,0.395-0.881,0.881s0.395,0.881,0.881,0.881h3.524c0.486,0,0.883-0.395,0.883-0.881
		S-142.75,179.424-143.237,179.424z"/>
	<path fill="#214260" stroke="#FFFFFF" stroke-width="0.5" stroke-miterlimit="10" d="M-139.76,179.424
		c0.486,0,0.883,0.395,0.883,0.881c0,0.484-0.396,0.881-0.883,0.881s-0.881-0.396-0.881-0.881
		C-140.641,179.818-140.247,179.424-139.76,179.424z"/>
</g>
<g>
	<g>
		<g>
			<path fill="#214260" stroke="#FFFFFF" stroke-width="0.5" stroke-miterlimit="10" d="M87.463,139.126
				c1.062,0.93,2.619,0.949,3.707,0.047l2.658-2.219L92.68,147.88h1.913l1.284-12.207h9.702l1.284,12.207h1.914l-0.993-9.416
				l1.561,2.34l0.388,1.932c0.188,0.934,0.772,1.729,1.609,2.182c0.474,0.256,0.992,0.385,1.516,0.385
				c0.4,0,0.804-0.074,1.187-0.229c0.825-0.328,1.479-0.996,1.798-1.826c0.313-0.834,0.271-1.764-0.131-2.562l-0.812-1.629
				l-0.013-0.016c-0.002-0.004-0.002-0.012-0.004-0.014l-5.707-10.467c-0.106-0.193-0.279-0.344-0.483-0.43l-2.579-1.031
				c1.935-1.571,3.177-3.967,3.177-6.647c0-1.432-0.378-2.846-1.072-4.108l-0.492-4.913c1.532-0.646,2.516-1.92,2.516-3.348
				c0-2.046-2.033-3.725-4.57-3.799c-1.012-1.754-2.886-2.859-4.945-2.859c-2.055,0-3.931,1.105-4.942,2.859
				c-2.535,0.074-4.568,1.753-4.568,3.799c0,1.428,0.98,2.701,2.514,3.348l-0.49,4.913c-0.697,1.263-1.072,2.677-1.072,4.108
				c0,2.681,1.238,5.076,3.175,6.647l-2.579,1.031c-0.149,0.061-0.285,0.162-0.387,0.291l-3.213,4.014l-3.879-3.104l-1.036-1.725
				c-0.175-0.297-0.4-0.547-0.642-0.773v-2.574c0-1.239-0.799-2.286-1.904-2.679v-3.981h0.953c1.57,0,2.854-1.282,2.854-2.856
				v-5.707c0-1.572-1.283-2.854-2.854-2.854h-3.807c-1.574,0-2.854,1.281-2.854,2.854v5.707c0,1.574,1.28,2.856,2.854,2.856h0.951
				v3.981c-1.105,0.393-1.903,1.439-1.903,2.679v3.809c-0.236,0.564-0.344,1.184-0.268,1.814c0.138,1.102,0.759,2.059,1.708,2.631
				l1.801,1.08L87.463,139.126z M79.796,115.697h-0.951c-0.524,0-0.951-0.428-0.951-0.955v-5.707c0-0.524,0.427-0.953,0.951-0.953
				h0.951V115.697z M96.253,133.772l1.404-5.334c0.036,0.014,0.075,0.025,0.112,0.037c0.191,0.074,0.386,0.143,0.582,0.195
				c0.076,0.025,0.152,0.041,0.226,0.059c0.184,0.049,0.364,0.098,0.551,0.129c0.092,0.018,0.187,0.029,0.279,0.043
				c0.172,0.025,0.344,0.057,0.521,0.072c0.121,0.01,0.245,0.014,0.367,0.02c0.144,0.006,0.287,0.021,0.431,0.021
				c0.148,0,0.29-0.016,0.434-0.021c0.124-0.006,0.245-0.01,0.37-0.02c0.174-0.016,0.346-0.045,0.518-0.072
				c0.094-0.014,0.188-0.025,0.28-0.043c0.186-0.031,0.368-0.082,0.549-0.129c0.076-0.02,0.152-0.033,0.227-0.059
				c0.198-0.053,0.393-0.121,0.581-0.195c0.037-0.014,0.077-0.023,0.113-0.037l1.404,5.334H96.253z M114.012,141.536
				c0.163,0.326,0.178,0.693,0.053,1.033c-0.131,0.34-0.389,0.602-0.728,0.738c-0.353,0.143-0.753,0.117-1.089-0.064
				c-0.337-0.186-0.577-0.504-0.65-0.881l-0.246-1.227l2.186-0.547L114.012,141.536z M107.67,129.772l4.953,9.082l-1.961,0.488
				l-3.346-5.014l-1.383-5.25L107.67,129.772z M93.118,108.082c0-1.028,1.306-1.9,2.854-1.9c0.054,0,0.107,0.006,0.16,0.012
				l0.153,0.015c0.401,0.024,0.785-0.198,0.946-0.573c0.603-1.402,1.977-2.309,3.495-2.309c1.523,0,2.897,0.906,3.5,2.309
				c0.159,0.375,0.55,0.604,0.944,0.573l0.155-0.015c0.052-0.006,0.104-0.012,0.16-0.012c1.546,0,2.852,0.872,2.852,1.9
				c0,0.762-0.768,1.49-1.87,1.77c-0.454,0.117-0.757,0.549-0.709,1.018l0.579,5.777H95.12l0.576-5.777
				c0.049-0.467-0.254-0.898-0.713-1.018C93.885,109.572,93.118,108.844,93.118,108.082z M94.069,120.451
				c0-0.646,0.096-1.285,0.28-1.902h12.757c0.185,0.617,0.282,1.257,0.282,1.902c0,2.643-1.551,4.922-3.784,6.001
				c-0.215,0.102-0.438,0.192-0.662,0.271c-0.009,0.006-0.02,0.008-0.03,0.012c-1.417,0.496-2.953,0.496-4.371,0
				c-0.01-0.004-0.019-0.006-0.03-0.012c-0.222-0.079-0.444-0.17-0.661-0.271C95.618,125.373,94.069,123.094,94.069,120.451z
				 M84.625,131.243l4.091,3.27c0.407,0.33,1.009,0.266,1.338-0.146l3.647-4.561l1.819-0.727l-1.346,5.107l-4.225,3.523
				c-0.36,0.301-0.881,0.297-1.236-0.016l-5.621-4.92L84.625,131.243z M81.699,108.082h0.951c0.526,0,0.954,0.429,0.954,0.953v5.707
				c0,0.527-0.428,0.955-0.954,0.955h-0.951V108.082z M79.796,124.259c0-0.526,0.429-0.952,0.951-0.952
				c0.524,0,0.951,0.426,0.951,0.952v1.652c-0.005,0-0.011,0-0.017-0.002c-0.023-0.002-0.042-0.013-0.066-0.015
				c-0.052-0.007-0.104,0.002-0.156-0.002c-0.163-0.015-0.329-0.019-0.494-0.009c-0.08,0.006-0.164,0.006-0.244,0.017
				c-0.195,0.026-0.387,0.071-0.576,0.129c-0.08,0.022-0.158,0.05-0.239,0.079c-0.035,0.014-0.072,0.021-0.109,0.037V124.259z
				 M79.516,129.649c-0.041-0.336,0.027-0.666,0.179-0.955c0.002-0.01,0.008-0.014,0.012-0.021c0.042-0.08,0.081-0.146,0.125-0.207
				c0.05-0.07,0.101-0.145,0.163-0.205c0.133-0.137,0.287-0.236,0.452-0.314c0.011-0.006,0.024-0.018,0.04-0.025
				c0.161-0.07,0.335-0.115,0.511-0.135c0.013,0,0.026-0.004,0.042-0.004c0.17-0.016,0.344,0,0.518,0.039
				c0.016,0.006,0.035,0.01,0.052,0.014c0.177,0.049,0.351,0.121,0.51,0.23c0,0,0.009,0.006,0.015,0.006
				c0.189,0.135,0.357,0.307,0.482,0.514l0.74,1.234l-1.801,1.805l-1.236-0.744C79.871,130.614,79.579,130.163,79.516,129.649z"/>
		</g>
	</g>
	<g>
		<g>
			<path fill="#214260" stroke="#FFFFFF" stroke-width="0.5" stroke-miterlimit="10" d="M103.582,139.481h-5.706
				c-0.525,0-0.953,0.422-0.953,0.949v2.854c0,2.1,1.706,3.805,3.804,3.805c2.101,0,3.809-1.705,3.809-3.805v-2.854
				C104.535,139.903,104.107,139.481,103.582,139.481z M102.63,143.284c0,1.051-0.853,1.904-1.904,1.904
				c-1.05,0-1.902-0.854-1.902-1.904v-1.902h3.807V143.284z"/>
		</g>
	</g>
</g>
<g>
	<g>
		<g>
			<path fill="#214260" stroke="#FFFFFF" stroke-width="0.5" stroke-miterlimit="10" d="M52.443,42.518h-2.281
				c-0.474,0-0.854,0.381-0.854,0.854c0,0.469,0.381,0.85,0.854,0.85h1.997v0.504H28.797v-0.504h8.69
				c0.782,0,1.419-0.637,1.419-1.418v-6.334h3.141v6.334c0,0.781,0.639,1.418,1.423,1.418h2.71c0.472,0,0.853-0.381,0.853-0.85
				c0-0.473-0.381-0.854-0.853-0.854h-2.427v-6.332c0-0.506-0.264-0.947-0.661-1.201V21.98c0-0.471-0.381-0.852-0.852-0.852
				c-0.472,0-0.853,0.381-0.853,0.852v12.784h-1.82V19.958h1.82v-1.844c0,0.469,0.381,0.854,0.853,0.854
				c0.471,0,0.852-0.385,0.852-0.854v0.991v-5.053V9.587c0-1.115-0.909-2.025-2.025-2.025h-1.176c-1.12,0-2.029,0.91-2.029,2.025
				v4.466v5.053v15.878c-0.396,0.254-0.659,0.695-0.659,1.201v6.332h-3.29l0.045-0.674c1.481-0.242,2.615-1.535,2.615-3.084v-5.893
				c0.429-0.367,0.699-0.909,0.699-1.511v-0.243c0-1.098-0.893-1.99-1.989-1.99h-1.241c-0.109-1.714-1.541-3.08-3.283-3.08
				c-0.224,0-0.447,0.023-0.666,0.068c-0.509-1.533-1.959-2.645-3.654-2.645c-0.045,0-0.085,0.002-0.129,0.002
				c-0.626-0.861-1.641-1.394-2.726-1.394c-1.205,0-2.3,0.65-2.894,1.653c-0.193-0.035-0.392-0.053-0.59-0.053
				c-1.29,0-2.451,0.717-3.036,1.832c-1.917,0.355-3.461,1.785-4.011,3.615h-1.448c-1.099,0-1.991,0.893-1.991,1.99v0.243
				c0,0.61,0.277,1.16,0.715,1.523c-0.011,0.049-0.015,0.102-0.015,0.152v5.729c0,1.549,1.133,2.842,2.614,3.084l0.588,9.281
				c0.055,0.875,0.785,1.559,1.66,1.559h37.267c0.784,0,1.421-0.639,1.421-1.424v-2.205v-2.908v-2.207
				C53.864,43.154,53.227,42.518,52.443,42.518z M39.568,9.587c0-0.172,0.147-0.319,0.323-0.319h1.176
				c0.174,0,0.321,0.147,0.321,0.319v8.664h-1.82V9.587z M34.869,38.76c0,0.557-0.326,1.041-0.795,1.273l0.421-6.689h0.374V38.76z
				 M17.723,27.136c0.341-0.028,0.635-0.256,0.74-0.579c0.236-0.704,0.895-1.175,1.637-1.175c0.247,0,0.486,0.053,0.712,0.154
				c0.227,0.103,0.488,0.103,0.715-0.004c0.226-0.104,0.396-0.301,0.461-0.543c0.198-0.711,0.854-1.211,1.596-1.211
				c0.639,0,1.229,0.375,1.501,0.957c0.165,0.357,0.55,0.555,0.937,0.477c0.138-0.027,0.279-0.04,0.417-0.04
				c1.173,0,2.133,0.954,2.144,2.124c0.002,0.312,0.175,0.596,0.448,0.746c0.272,0.145,0.604,0.131,0.866-0.039
				c0.258-0.164,0.556-0.252,0.862-0.252c0.802,0,1.465,0.598,1.569,1.371H14.874C15.391,28.033,16.459,27.239,17.723,27.136z
				 M12.018,38.76v-5.416h0.374l0.423,6.689C12.345,39.801,12.018,39.316,12.018,38.76z M14.1,33.344h13.09
				c0.472,0,0.853-0.379,0.853-0.852c0-0.471-0.381-0.853-0.853-0.853H11.605c-0.154,0-0.285-0.131-0.285-0.283v-0.243
				c0-0.154,0.131-0.285,0.285-0.285h23.678c0.152,0,0.283,0.131,0.283,0.285v0.243c0,0.152-0.131,0.283-0.283,0.283H31.17
				c-0.471,0-0.852,0.382-0.852,0.853c0,0.473,0.381,0.852,0.852,0.852h1.615l-0.433,6.838h-3.47
				c-0.203-0.881-0.996-1.543-1.937-1.543h-7.008c-0.94,0-1.733,0.662-1.937,1.543h-3.469L14.1,33.344z M27.23,40.631v0.426
				c0,0.156-0.129,0.285-0.283,0.285h-7.008c-0.152,0-0.283-0.129-0.283-0.285v-0.426c0-0.154,0.131-0.285,0.283-0.285h7.008
				C27.101,40.346,27.23,40.477,27.23,40.631z M27.093,50.977H15.216l-0.056-0.879h11.933V50.977z M27.093,43.938v2.209v2.246
				H15.051l-0.41-6.506h3.49c0.315,0.684,1.006,1.162,1.808,1.162h7.008c0.183,0,0.357-0.027,0.524-0.072
				C27.237,43.229,27.093,43.566,27.093,43.938z M28.27,42.543c0.203-0.184,0.37-0.41,0.484-0.656h3.492l-0.04,0.631h-3.692
				C28.429,42.518,28.351,42.527,28.27,42.543z M52.159,50.977H28.797v-4.545h23.361V50.977z"/>
		</g>
	</g>
	<g>
		<g>
			<path fill="#214260" stroke="#FFFFFF" stroke-width="0.5" stroke-miterlimit="10" d="M27.68,26.958
				c-0.483-0.822-1.376-1.332-2.329-1.332c-0.951,0-1.846,0.51-2.33,1.332c-0.238,0.404-0.105,0.926,0.301,1.166
				c0.137,0.082,0.287,0.121,0.433,0.121c0.292,0,0.575-0.15,0.736-0.42c0.18-0.309,0.503-0.492,0.86-0.492
				c0.354,0,0.679,0.184,0.86,0.492c0.241,0.404,0.764,0.539,1.169,0.299C27.784,27.884,27.919,27.363,27.68,26.958z"/>
		</g>
	</g>
	<g>
		<g>
			<path fill="#214260" stroke="#FFFFFF" stroke-width="0.5" stroke-miterlimit="10" d="M22.139,27.427
				c-0.389-0.662-1.111-1.074-1.879-1.074c-0.77,0-1.49,0.412-1.882,1.074c-0.238,0.406-0.104,0.929,0.301,1.166
				c0.135,0.082,0.285,0.119,0.433,0.119c0.292,0,0.578-0.15,0.736-0.418c0.087-0.146,0.241-0.234,0.412-0.234
				c0.169,0,0.323,0.088,0.412,0.234c0.239,0.406,0.762,0.541,1.167,0.299C22.246,28.356,22.38,27.833,22.139,27.427z"/>
		</g>
	</g>
</g>
<g id="Bl9309_2_">
	<g>
		<path fill-rule="evenodd" clip-rule="evenodd" fill="#214260" stroke="#FFFFFF" stroke-width="0.5" stroke-miterlimit="10" d="
			M136.824,61.036c-0.771-0.24-1.477-0.578-2.045-1.188c-1.771-1.898-1.486-5.213,0.613-6.542c0.532-0.337,1.158-0.534,1.752-0.765
			c1.915-0.742,3.834-1.471,5.752-2.205c0.088-0.033,0.173-0.072,0.328-0.138c-1.004-0.384-1.948-0.746-2.894-1.106
			c-1.333-0.512-2.649-1.074-4.003-1.521c-2.827-0.934-3.253-3.832-2.163-5.902c0.884-1.678,2.24-2.33,4.296-2.086
			c-0.032-0.662-0.081-1.321-0.094-1.982c-0.021-1.228,0.25-2.395,0.706-3.535c0.378-0.945,0.715-1.909,1.017-2.879
			c0.197-0.635,0.069-1.294-0.208-1.874c-0.749-1.568-1.551-3.11-2.329-4.665c-0.194-0.386-0.438-0.759-0.558-1.168
			c-0.159-0.547,0.092-0.965,0.578-1.265c1.796-1.106,3.649-0.976,5.531-0.278c0.851,0.315,1.6,0.803,2.287,1.396
			c0.38,0.328,0.778,0.643,1.199,0.914c0.577,0.371,0.812,0.304,1.165-0.267c2.32-3.757,2.816-7.722,1.279-11.885
			c-0.479-1.299-1.091-2.549-1.623-3.829c-0.161-0.387-0.297-0.792-0.382-1.202c-0.183-0.882,0.211-1.514,1.068-1.792
			c0.061-0.019,0.116-0.056,0.174-0.083c0.49,0,0.98,0,1.472,0c0.759,0.188,1.539,0.318,2.273,0.576
			c4.006,1.401,6.836,4.15,8.841,7.82c0.241,0.442,0.107,0.917-0.278,1.141c-0.423,0.245-0.904,0.108-1.176-0.379
			c-0.777-1.402-1.686-2.706-2.841-3.822c-2.047-1.981-4.388-3.387-7.292-3.667c-0.187-0.018-0.376-0.002-0.63-0.002
			c0.096,0.26,0.172,0.487,0.262,0.708c0.664,1.637,1.443,3.237,1.974,4.917c1.391,4.402,0.658,8.551-1.766,12.433
			c-0.797,1.276-1.957,1.566-3.26,0.802c-0.548-0.321-1.051-0.729-1.538-1.139c-1.3-1.097-2.771-1.659-4.48-1.473
			c-0.355,0.039-0.7,0.187-1.112,0.303c0.117,0.189,0.189,0.312,0.268,0.432c1.006,1.546,1.752,3.224,2.445,4.926
			c0.543,1.337,0.429,2.665-0.062,3.983c-0.247,0.663-0.506,1.32-0.782,1.973c-0.739,1.742-0.711,3.524-0.301,5.328
			c0.026,0.111,0.131,0.252,0.232,0.293c1.693,0.66,3.394,1.307,5.06,1.943c-0.053-0.973-0.146-1.934-0.146-2.895
			c-0.001-0.984,0.147-1.957,0.543-2.87c0.14-0.321,0.312-0.638,0.525-0.916c0.62-0.812,1.525-0.956,2.387-0.403
			c0.733,0.469,1.107,1.215,1.497,1.953c0.26,0.491,0.485,1.012,0.821,1.447c0.695,0.901,1.575,0.848,2.045-0.184
			c0.372-0.818,0.593-1.721,0.766-2.609c0.323-1.66,0.354-3.328-0.191-4.963c-0.099-0.297-0.237-0.578-0.356-0.866
			c-0.072-0.177-0.153-0.351-0.213-0.531c-0.266-0.807-0.378-1.616,0.247-2.312c0.627-0.699,1.46-0.725,2.307-0.566
			c1.281,0.238,2.289,0.975,3.216,1.841c1.589,1.487,2.772,3.244,3.476,5.31c0.077,0.228,0.088,0.518,0.021,0.745
			c-0.097,0.323-0.382,0.489-0.73,0.485c-0.381-0.005-0.614-0.213-0.781-0.553c-0.472-0.961-0.909-1.947-1.464-2.859
			c-0.64-1.055-1.53-1.912-2.521-2.65c-0.564-0.42-1.186-0.71-1.912-0.741c-0.371-0.015-0.463,0.152-0.383,0.47
			c0.05,0.197,0.103,0.398,0.192,0.58c1.089,2.184,1.136,4.488,0.739,6.823c-0.153,0.907-0.388,1.813-0.704,2.677
			c-0.427,1.162-1.21,2.008-2.525,2.162c-0.81,0.094-1.542-0.176-2.069-0.766c-0.491-0.551-0.873-1.201-1.275-1.826
			c-0.24-0.377-0.409-0.8-0.643-1.182c-0.131-0.213-0.328-0.385-0.585-0.679c-0.196,0.44-0.39,0.765-0.487,1.118
			c-0.494,1.768-0.364,3.531,0.115,5.279c0.035,0.127,0.181,0.27,0.309,0.32c2.231,0.865,4.467,1.722,6.707,2.564
			c0.158,0.061,0.379,0.056,0.54-0.005c1.834-0.687,3.664-1.384,5.489-2.095c0.137-0.055,0.282-0.215,0.326-0.357
			c0.539-1.713,0.825-3.465,0.766-5.266c-0.02-0.58,0.295-0.967,0.799-0.982c0.515-0.014,0.83,0.329,0.851,0.93
			c0.053,1.534-0.132,3.043-0.48,4.534c-0.018,0.077-0.032,0.153-0.062,0.301c0.53-0.199,1.005-0.376,1.479-0.558
			c1.601-0.612,3.197-1.234,4.805-1.832c0.309-0.114,0.484-0.279,0.598-0.589c0.998-2.709,1.358-5.517,1.297-8.386
			c-0.042-1.927-0.278-3.829-0.971-5.646c-0.135-0.355-0.297-0.701-0.476-1.037c-0.097-0.181-0.252-0.33-0.445-0.573
			c-0.21,0.706-0.382,1.301-0.562,1.894c-0.401,1.318-1.178,2.302-2.534,2.711c-1.397,0.42-2.784-0.258-3.525-1.673
			c-0.508-0.967-0.643-2.015-0.673-3.083c-0.06-2.077-0.326-4.122-0.906-6.122c-0.165-0.572,0.06-1.012,0.546-1.143
			c0.485-0.13,0.88,0.138,1.047,0.711c0.637,2.184,0.88,4.423,0.991,6.688c0.034,0.708,0.171,1.444,0.434,2.097
			c0.486,1.213,1.755,1.349,2.543,0.296c0.284-0.379,0.434-0.869,0.603-1.323c0.188-0.509,0.301-1.047,0.496-1.553
			c0.452-1.167,1.542-1.503,2.53-0.736c0.405,0.314,0.757,0.755,0.998,1.21c0.914,1.722,1.296,3.603,1.464,5.527
			c0.284,3.275,0.004,6.5-0.957,9.653c-0.02,0.063-0.019,0.132-0.026,0.192c0.426,0.033,0.856,0.01,1.257,0.105
			c1.725,0.417,2.666,1.621,3.063,3.269c0.517,2.146-0.452,3.903-2.511,4.688c-2.198,0.838-4.396,1.678-6.594,2.518
			c-0.101,0.039-0.201,0.08-0.361,0.143c0.169,0.078,0.289,0.141,0.416,0.189c2.133,0.816,4.244,1.701,6.407,2.43
			c2.345,0.789,3.234,3.333,2.525,5.416c-0.479,1.406-1.38,2.387-2.874,2.738c-0.035,0.008-0.063,0.044-0.096,0.066
			c-0.354,0-0.708,0-1.062,0c-0.252-0.093-0.506-0.184-0.757-0.279c-5.247-2.002-10.493-4.006-15.745-5.993
			c-0.217-0.083-0.516-0.093-0.73-0.012c-5.516,2.085-11.027,4.187-16.538,6.284C137.533,61.036,137.178,61.036,136.824,61.036z
			 M170.257,53.496c-0.228-0.091-0.39-0.158-0.554-0.222c-7.849-3-15.697-6.002-23.546-9.003c-2.528-0.967-5.057-1.931-7.582-2.901
			c-0.578-0.224-1.158-0.316-1.75-0.088c-0.907,0.352-1.564,1.469-1.559,2.619c0.004,1.055,0.465,1.671,1.557,2.088
			c10.023,3.826,20.047,7.654,30.07,11.48c0.604,0.23,1.207,0.459,1.861,0.708C168.4,56.325,168.853,54.78,170.257,53.496z
			 M157.119,46.669c0.096,0.053,0.129,0.077,0.167,0.092c2.158,0.827,4.315,1.658,6.478,2.473c0.145,0.055,0.35,0.031,0.5-0.025
			c2.836-1.072,5.668-2.154,8.501-3.236c1.127-0.431,1.571-1.118,1.51-2.322c-0.097-1.89-1.626-2.912-3.387-2.244
			c-3.038,1.154-6.071,2.32-9.106,3.48C160.246,45.474,158.709,46.061,157.119,46.669z M152.428,53.737
			c-0.102-0.051-0.144-0.076-0.188-0.094c-2.157-0.826-4.312-1.656-6.475-2.469c-0.144-0.055-0.348-0.021-0.5,0.035
			c-1.704,0.641-3.404,1.293-5.104,1.943c-0.274,0.105-0.548,0.214-0.871,0.34c1.403,1.284,1.854,2.841,1.504,4.687
			C144.688,56.692,148.531,55.226,152.428,53.737z M135.264,56.788c0.011,0.812,0.279,1.562,0.937,2.137
			c0.773,0.676,1.793,0.601,2.471-0.17c0.996-1.133,0.699-3.238-0.572-4.053c-0.723-0.465-1.56-0.369-2.156,0.254
			C135.465,55.454,135.274,56.064,135.264,56.788z M174.375,56.747c-0.158-0.469-0.249-0.977-0.486-1.4
			c-0.615-1.103-1.892-1.245-2.792-0.359c-0.893,0.879-1.084,2.399-0.437,3.471c0.651,1.077,1.911,1.237,2.805,0.354
			C174.029,58.253,174.262,57.561,174.375,56.747z"/>
	</g>
</g>
<g>
	<path fill="#214260" stroke="#FFFFFF" stroke-width="0.5" stroke-miterlimit="10" d="M-42.658,55.908
		c0.515,0,0.935-0.418,0.935-0.934s-0.42-0.934-0.935-0.934c-0.516,0-0.934,0.418-0.934,0.934S-43.173,55.908-42.658,55.908z"/>
	<path fill="#214260" stroke="#FFFFFF" stroke-width="0.5" stroke-miterlimit="10" d="M-51.991,55.908
		c0.515,0,0.933-0.418,0.933-0.934s-0.417-0.934-0.933-0.934c-0.517,0-0.932,0.418-0.932,0.934S-52.508,55.908-51.991,55.908z"/>
	<path fill="#214260" stroke="#FFFFFF" stroke-width="0.5" stroke-miterlimit="10" d="M-49.819,62.322
		c0.782,0.37,1.624,0.557,2.495,0.557c0.853,0,1.677-0.18,2.447-0.534c0.47-0.215,0.674-0.77,0.459-1.239
		c-0.217-0.467-0.771-0.672-1.237-0.457c-0.526,0.24-1.087,0.364-1.668,0.364c-0.596,0-1.167-0.128-1.699-0.378
		c-0.466-0.223-1.023-0.021-1.242,0.446C-50.486,61.545-50.287,62.103-49.819,62.322z"/>
	<path fill="#214260" stroke="#FFFFFF" stroke-width="0.5" stroke-miterlimit="10" d="M-26.741,76.977
		c0-5.13-5.844-9.155-10.855-9.348l-2.557-2.296c3.115-2.271,5.004-5.921,5.004-9.798v-6.161c0-5.661-4.619-10.267-10.298-10.267
		h-3.735c-5.671,0-10.234,4.59-10.234,10.267v6.161c0,3.872,1.865,7.516,4.939,9.781l-2.575,2.312
		c-5,0.192-10.857,4.208-10.857,9.348v8.979c0,0.52,0.419,0.938,0.934,0.938h39.302c0.515,0,0.933-0.418,0.933-0.938V76.977z
		 M-49.393,80.733h4.13l0.979,4.292H-50.4L-49.393,80.733z M-45.182,78.865h-4.27l-0.717-2.229l2.844-1.423l2.906,1.454
		L-45.182,78.865z M-47.324,72.412l-3.244-5.19c1.053,0.292,2.148,0.445,3.252,0.445c1.095,0,2.182-0.153,3.23-0.438L-47.324,72.412
		z M-45.99,73.794l4.481-7.17l2.418,2.172l-3.075,6.913L-45.99,73.794z M-49.182,40.975h3.735c4.648,0,8.43,3.768,8.43,8.399v0.772
		l-1.752-2.525c-0.157-0.227-0.41-0.373-0.687-0.398c-0.279-0.024-0.553,0.08-0.745,0.277c-1.896,1.941-4.094,2.808-7.124,2.808
		c-3.027,0-5.225-0.866-7.124-2.808c-0.194-0.199-0.47-0.302-0.749-0.277c-0.277,0.025-0.53,0.174-0.688,0.404l-1.664,2.438v-0.69
		C-57.549,44.742-53.794,40.975-49.182,40.975z M-57.549,55.535v-2.16l2.592-3.799c2.078,1.767,4.532,2.598,7.633,2.598
		c3.104,0,5.56-0.831,7.638-2.602l2.669,3.846v2.117c0,5.587-4.567,10.264-10.299,10.264
		C-53.027,65.799-57.549,61.137-57.549,55.535z M-53.141,66.626l4.482,7.168l-3.823,1.915l-3.076-6.913L-53.141,66.626z
		 M-66.042,76.977c0-3.843,4.673-7.163,8.758-7.463l3.491,7.844c0.104,0.231,0.299,0.412,0.54,0.499
		c0.239,0.087,0.502,0.07,0.732-0.042l0.664-0.335l0.757,2.36l-1.216,5.186h-13.726V76.977z M-28.609,85.025h-13.762l-1.179-5.171
		l0.812-2.348l0.608,0.308c0.231,0.114,0.496,0.129,0.732,0.042c0.241-0.087,0.437-0.268,0.54-0.499l3.491-7.844
		c4.085,0.3,8.756,3.62,8.756,7.463V85.025z"/>
	<path fill="#214260" stroke="#FFFFFF" stroke-width="0.5" stroke-miterlimit="10" d="M-35.191,80.733h-3.733
		c-0.516,0-0.933,0.418-0.933,0.933c0,0.516,0.417,0.934,0.933,0.934h3.733c0.516,0,0.936-0.418,0.936-0.934
		C-34.255,81.151-34.675,80.733-35.191,80.733z"/>
	<path fill="#214260" stroke="#FFFFFF" stroke-width="0.5" stroke-miterlimit="10" d="M-31.508,80.733
		c0.515,0,0.935,0.418,0.935,0.933c0,0.514-0.42,0.934-0.935,0.934c-0.516,0-0.934-0.42-0.934-0.934
		C-32.442,81.151-32.024,80.733-31.508,80.733z"/>
</g>
</svg>
