<?xml version="1.0" encoding="utf-8"?>
<!-- Generator: Adobe Illustrator 16.0.0, SVG Export Plug-In . SVG Version: 6.00 Build 0)  -->
<!DOCTYPE svg PUBLIC "-//W3C//DTD SVG 1.1//EN" "http://www.w3.org/Graphics/SVG/1.1/DTD/svg11.dtd">
<svg version="1.1" id="Layer_1" xmlns="http://www.w3.org/2000/svg" xmlns:xlink="http://www.w3.org/1999/xlink" x="0px" y="0px"
	 width="63.036px" height="63.051px" viewBox="0 0 63.036 63.051" enable-background="new 0 0 63.036 63.051" xml:space="preserve">
<g>
	<g>
		<g>
			<path fill="#214260" stroke="#FFFFFF" stroke-width="0.7" stroke-miterlimit="10" d="M55.498,45.881h-2.642
				c-0.549,0-0.99,0.44-0.99,0.987c0,0.544,0.441,0.985,0.99,0.985h2.312v0.583H28.112v-0.583h10.065
				c0.905,0,1.643-0.737,1.643-1.643v-7.337h3.638v7.337c0,0.905,0.74,1.643,1.648,1.643h3.139c0.546,0,0.987-0.441,0.987-0.985
				c0-0.547-0.441-0.987-0.987-0.987h-2.812v-7.335c0-0.586-0.305-1.098-0.766-1.392v-15.06c0-0.546-0.44-0.987-0.986-0.987
				s-0.987,0.441-0.987,0.987v14.805h-2.108V19.754h2.108v-2.137c0,0.544,0.441,0.988,0.987,0.988s0.986-0.444,0.986-0.988v1.147
				v-5.852V7.741c0-1.291-1.053-2.346-2.346-2.346H40.96c-1.298,0-2.351,1.055-2.351,2.346v5.172v5.852v18.39
				c-0.458,0.294-0.763,0.806-0.763,1.392v7.335h-3.811l0.053-0.78c1.716-0.282,3.028-1.778,3.028-3.572v-6.824
				c0.497-0.426,0.811-1.054,0.811-1.751v-0.281c0-1.271-1.034-2.306-2.305-2.306h-1.438C34.059,28.382,32.4,26.8,30.382,26.8
				c-0.259,0-0.518,0.027-0.771,0.079c-0.59-1.775-2.27-3.062-4.232-3.062c-0.053,0-0.099,0.002-0.149,0.002
				c-0.726-0.999-1.9-1.615-3.157-1.615c-1.396,0-2.663,0.754-3.352,1.915c-0.224-0.041-0.453-0.06-0.683-0.06
				c-1.494,0-2.839,0.83-3.517,2.12c-2.22,0.413-4.009,2.069-4.646,4.188H8.2c-1.272,0-2.307,1.035-2.307,2.306v0.281
				c0,0.708,0.321,1.344,0.828,1.763c-0.013,0.058-0.017,0.118-0.017,0.177v6.635c0,1.795,1.312,3.291,3.027,3.573l0.681,10.749
				c0.063,1.014,0.91,1.806,1.923,1.806h43.162c0.908,0,1.646-0.741,1.646-1.65v-2.554v-3.369v-2.556
				C57.143,46.618,56.406,45.881,55.498,45.881z M40.585,7.741c0-0.198,0.171-0.37,0.375-0.37h1.361c0.201,0,0.372,0.172,0.372,0.37
				v10.034h-2.108V7.741z M35.143,41.528c0,0.645-0.378,1.206-0.921,1.476l0.488-7.748h0.433V41.528z M15.286,28.066
				c0.395-0.034,0.735-0.296,0.857-0.672c0.273-0.814,1.036-1.359,1.896-1.359c0.286,0,0.563,0.062,0.824,0.179
				c0.263,0.118,0.565,0.118,0.828-0.005c0.262-0.12,0.458-0.349,0.535-0.63c0.229-0.822,0.988-1.402,1.848-1.402
				c0.74,0,1.423,0.436,1.738,1.109c0.191,0.413,0.637,0.642,1.085,0.553c0.159-0.032,0.323-0.048,0.483-0.048
				c1.358,0,2.47,1.106,2.482,2.461c0.002,0.362,0.202,0.689,0.519,0.863c0.316,0.167,0.7,0.151,1.004-0.045
				c0.299-0.19,0.644-0.291,0.998-0.291c0.929,0,1.697,0.692,1.818,1.587H11.984C12.584,29.104,13.822,28.185,15.286,28.066z
				 M8.678,41.528v-6.272h0.433l0.49,7.748C9.057,42.734,8.678,42.173,8.678,41.528z M11.089,35.256h15.16
				c0.547,0,0.988-0.44,0.988-0.987c0-0.546-0.441-0.987-0.988-0.987H8.2c-0.179,0-0.33-0.152-0.33-0.328v-0.281
				c0-0.179,0.151-0.331,0.33-0.331h27.423c0.177,0,0.328,0.152,0.328,0.331v0.281c0,0.176-0.151,0.328-0.328,0.328h-4.763
				c-0.544,0-0.986,0.441-0.986,0.987c0,0.547,0.441,0.987,0.986,0.987h1.872l-0.501,7.919h-4.019
				c-0.235-1.02-1.154-1.787-2.243-1.787h-8.116c-1.09,0-2.008,0.768-2.244,1.787h-4.017L11.089,35.256z M26.296,43.694v0.494
				c0,0.181-0.149,0.329-0.328,0.329h-8.116c-0.177,0-0.328-0.148-0.328-0.329v-0.494c0-0.179,0.151-0.329,0.328-0.329h8.116
				C26.147,43.365,26.296,43.516,26.296,43.694z M26.138,55.677H12.382l-0.065-1.017h13.821V55.677z M26.138,47.525v2.557v2.603
				H12.19l-0.474-7.536h4.042c0.365,0.793,1.165,1.347,2.094,1.347h8.116c0.212,0,0.414-0.031,0.607-0.084
				C26.304,46.704,26.138,47.096,26.138,47.525z M27.5,45.909c0.235-0.213,0.429-0.475,0.562-0.761h4.044l-0.046,0.732h-4.276
				C27.685,45.881,27.594,45.891,27.5,45.909z M55.168,55.677H28.112v-5.263h27.057V55.677z"/>
		</g>
	</g>
	<g>
		<g>
			<path fill="#214260" stroke="#FFFFFF" stroke-width="0.7" stroke-miterlimit="10" d="M26.817,27.86
				c-0.559-0.952-1.593-1.542-2.697-1.542c-1.103,0-2.138,0.59-2.699,1.542c-0.276,0.469-0.122,1.072,0.349,1.351
				c0.158,0.094,0.332,0.14,0.501,0.14c0.337,0,0.666-0.175,0.853-0.485c0.208-0.358,0.583-0.571,0.997-0.571
				c0.41,0,0.785,0.213,0.996,0.571c0.279,0.468,0.885,0.624,1.354,0.346C26.938,28.933,27.095,28.329,26.817,27.86z"/>
		</g>
	</g>
	<g>
		<g>
			<path fill="#214260" stroke="#FFFFFF" stroke-width="0.7" stroke-miterlimit="10" d="M20.399,28.403
				c-0.45-0.767-1.287-1.244-2.175-1.244c-0.892,0-1.727,0.478-2.18,1.244c-0.276,0.471-0.12,1.075,0.349,1.351
				c0.156,0.096,0.33,0.139,0.501,0.139c0.337,0,0.669-0.175,0.853-0.484c0.101-0.171,0.279-0.271,0.478-0.271
				c0.195,0,0.374,0.101,0.478,0.271c0.276,0.471,0.882,0.625,1.352,0.346C20.523,29.479,20.679,28.874,20.399,28.403z"/>
		</g>
	</g>
</g>
</svg>
