<?xml version="1.0" encoding="utf-8"?>
<!-- Generator: Adobe Illustrator 16.0.0, SVG Export Plug-In . SVG Version: 6.00 Build 0)  -->
<!DOCTYPE svg PUBLIC "-//W3C//DTD SVG 1.1//EN" "http://www.w3.org/Graphics/SVG/1.1/DTD/svg11.dtd">
<svg version="1.1" id="Layer_1" xmlns="http://www.w3.org/2000/svg" xmlns:xlink="http://www.w3.org/1999/xlink" x="0px" y="0px"
	 width="31.156px" height="31.155px" viewBox="0 0 31.156 31.155" enable-background="new 0 0 31.156 31.155" xml:space="preserve">
<g>
	<circle fill="none" stroke="#FFFFFF" stroke-miterlimit="10" cx="15.578" cy="15.577" r="15.078"/>
</g>
<g>
	<g>
		<g>
			<path fill="#FFFFFF" stroke="#231F20" stroke-width="0.1" stroke-miterlimit="10" d="M18.751,8.35H12.01
				c-2.186,0-3.963,1.777-3.963,3.962v6.742c0,2.185,1.777,3.962,3.963,3.962h6.741c2.185,0,3.963-1.777,3.963-3.962v-6.742
				C22.714,10.127,20.936,8.35,18.751,8.35z M21.529,19.054c0,1.531-1.246,2.777-2.778,2.777H12.01
				c-1.532,0-2.778-1.246-2.778-2.777v-6.742c0-1.531,1.246-2.777,2.778-2.777h6.741c1.532,0,2.778,1.246,2.778,2.777V19.054z"/>
		</g>
	</g>
	<g>
		<g>
			<path fill="#FFFFFF" stroke="#231F20" stroke-width="0.1" stroke-miterlimit="10" d="M18.663,15.171
				c-0.104-0.703-0.425-1.34-0.928-1.843s-1.141-0.825-1.844-0.928c-0.319-0.047-0.645-0.047-0.965,0
				c-0.868,0.129-1.635,0.589-2.159,1.294c-0.523,0.705-0.74,1.573-0.611,2.442s0.589,1.635,1.294,2.159
				c0.572,0.425,1.252,0.647,1.952,0.647c0.163,0,0.326-0.012,0.489-0.036c0.869-0.129,1.636-0.588,2.159-1.293
				C18.574,16.907,18.792,16.04,18.663,15.171z M15.718,17.734c-0.556,0.082-1.11-0.056-1.562-0.392
				c-0.452-0.334-0.745-0.825-0.828-1.381c-0.082-0.557,0.057-1.111,0.392-1.562s0.825-0.744,1.381-0.827
				c0.104-0.015,0.206-0.022,0.31-0.022c0.103,0,0.205,0.008,0.308,0.023c0.924,0.136,1.635,0.848,1.772,1.771
				C17.661,16.492,16.865,17.564,15.718,17.734z"/>
		</g>
	</g>
	<g>
		<g>
			<path fill="#FFFFFF" stroke="#231F20" stroke-width="0.1" stroke-miterlimit="10" d="M19.507,11.557
				c-0.111-0.11-0.264-0.174-0.419-0.174c-0.156,0-0.309,0.063-0.419,0.174s-0.173,0.262-0.173,0.419
				c0,0.156,0.062,0.309,0.173,0.418s0.263,0.174,0.419,0.174c0.155,0,0.308-0.064,0.419-0.174c0.11-0.109,0.174-0.263,0.174-0.418
				C19.681,11.82,19.617,11.667,19.507,11.557z"/>
		</g>
	</g>
</g>
</svg>
