<?xml version="1.0" encoding="utf-8"?>
<!-- Generator: Adobe Illustrator 16.0.0, SVG Export Plug-In . SVG Version: 6.00 Build 0)  -->
<!DOCTYPE svg PUBLIC "-//W3C//DTD SVG 1.1//EN" "http://www.w3.org/Graphics/SVG/1.1/DTD/svg11.dtd">
<svg version="1.1" id="Layer_1" xmlns="http://www.w3.org/2000/svg" xmlns:xlink="http://www.w3.org/1999/xlink" x="0px" y="0px"
	 width="63.036px" height="63.051px" viewBox="0 0 63.036 63.051" enable-background="new 0 0 63.036 63.051" xml:space="preserve">
<g id="bCkU5L.tif_2_">
	<g>
		<path fill="#214260" stroke="#FFFFFF" stroke-width="0.4" stroke-miterlimit="10" d="M21.367,6.246c0.45,0,0.899,0,1.35,0
			c0.09,0.029,0.179,0.066,0.272,0.086c2.413,0.518,4.043,1.925,4.66,4.325c0.236,0.918,0.178,1.918,0.211,2.883
			c0.013,0.367,0.09,0.664,0.312,0.965c0.94,1.278,1.526,2.709,1.725,4.284c0.085,0.663,0.114,1.331,0.168,2.007
			c1.156,0,2.29,0,3.475,0c0-0.172,0-0.32,0-0.471c0-1.717,0.279-3.408,1.246-4.822c0.764-1.119,0.937-2.245,0.934-3.537
			c-0.009-2.075,0.986-3.661,2.71-4.807c0.739-0.492,1.581-0.688,2.417-0.914c0.45,0,0.899,0,1.35,0
			c0.079,0.025,0.158,0.059,0.239,0.073c1.471,0.244,2.695,0.917,3.652,2.066c0.688,0.826,1.026,1.828,1.443,2.792
			c0.089,0.201,0.255,0.41,0.44,0.52c1.986,1.14,3.392,2.777,4.262,4.89c2.024,4.914,4.066,9.821,6.073,14.739
			c0.667,1.633,1.298,3.283,1.862,4.955c0.245,0.719,0.282,1.506,0.413,2.264c0,0.646,0,1.293,0,1.94
			c-0.111,0.648-0.193,1.302-0.334,1.943c-1.479,6.672-7.799,11.239-14.586,10.516c-3.135-0.334-5.853-1.613-8.097-3.84
			c-2.185-2.167-3.497-4.785-3.89-7.846c-0.096-0.748-0.119-1.505-0.177-2.281c-1.146,0-2.291,0-3.409,0
			c-0.096,0.974-0.131,1.93-0.294,2.865c-1.213,6.93-7.739,12.213-15.353,10.988c-5.606-0.9-9.265-4.275-10.949-9.714
			c-0.262-0.849-0.344-1.753-0.511-2.63c0-0.703,0-1.407,0-2.108c0.026-0.095,0.056-0.186,0.076-0.278
			c0.226-1.012,0.321-2.073,0.694-3.026c1.479-3.757,3.042-7.482,4.582-11.217c0.067-0.162,0.186-0.322,0.326-0.425
			c0.331-0.243,0.694-0.233,1.016,0.021c0.337,0.266,0.402,0.631,0.243,1.023c-0.528,1.287-1.058,2.57-1.586,3.854
			c-0.052,0.128-0.094,0.26-0.173,0.482c3.375-2.467,7.011-3.368,11.005-2.567c3.984,0.797,6.959,3.065,9.136,6.617
			c0-0.294,0-0.449,0-0.602c0-3.863,0.004-7.728-0.004-11.593c-0.001-0.531-0.024-1.07-0.095-1.597
			c-0.735-5.562-6.938-8.768-12.011-5.737c-1.529,0.914-2.619,2.219-3.275,3.89c-0.583,1.477-1.21,2.93-1.813,4.396
			c-0.15,0.366-0.431,0.555-0.812,0.557c-0.374,0.004-0.68-0.191-0.769-0.544c-0.061-0.251-0.026-0.565,0.071-0.81
			c0.567-1.433,1.179-2.85,1.753-4.283c0.705-1.755,1.776-3.258,3.384-4.245c0.958-0.589,1.475-1.357,1.834-2.358
			c0.451-1.262,1.303-2.249,2.483-2.867C19.764,6.693,20.59,6.514,21.367,6.246z M47.067,27.683
			c-6.645,0.029-11.637,5.37-11.812,11.36c-0.204,7.024,5.458,12.286,11.805,12.254c6.465-0.031,11.814-5.311,11.814-11.712
			C58.874,33.019,53.588,27.688,47.067,27.683z M55.397,28.811c-0.055-0.171-0.075-0.248-0.106-0.322
			c-1.565-3.799-3.1-7.612-4.71-11.391c-1.538-3.612-5.264-5.559-8.942-4.765c-3.656,0.787-6.373,3.986-6.378,7.532
			c-0.007,4.158,0.001,8.317,0.005,12.476c0,0.129,0.015,0.26,0.025,0.455C39.322,25.781,48.692,23.717,55.397,28.811z
			 M16.51,27.682C9.967,27.709,4.852,32.912,4.69,39.079c-0.186,7.134,5.562,12.247,11.799,12.22
			c6.472-0.03,11.789-5.276,11.807-11.708C28.316,33.023,23.04,27.695,16.51,27.682z M33.518,22.543c-1.163,0-2.308,0-3.473,0
			c0,2.725,0,5.424,0,8.148c1.165,0,2.308,0,3.473,0C33.518,27.967,33.518,25.268,33.518,22.543z M18.099,10.717
			c2.941-0.632,5.602-0.045,8.033,1.665c0.214-1.956-1.222-3.854-3.231-4.329C20.932,7.588,18.806,8.746,18.099,10.717z
			 M37.422,12.398c1.192-0.873,2.463-1.443,3.85-1.731c1.388-0.288,2.781-0.274,4.183,0.052c-0.635-1.909-2.729-3.086-4.72-2.687
			C38.713,8.439,37.258,10.32,37.422,12.398z M30.054,32.443c0,1.606,0,3.167,0,4.734c1.172,0,2.314,0,3.45,0
			c0-1.593,0-3.158,0-4.734C32.343,32.443,31.222,32.443,30.054,32.443z"/>
		<path fill-rule="evenodd" clip-rule="evenodd" fill="#214260" stroke="#FFFFFF" stroke-width="0.4" stroke-miterlimit="10" d="
			M37.249,39.722c0.024-5.279,3.861-9.552,8.823-10.007c2.309-0.211,4.463,0.324,6.415,1.604c0.43,0.283,0.56,0.764,0.318,1.168
			c-0.251,0.421-0.757,0.556-1.211,0.274c-0.976-0.608-2.017-1.036-3.15-1.245c-3.978-0.734-8.014,1.759-9.121,5.656
			c-0.062,0.213-0.062,0.475,0,0.689c1.353,4.717,6.661,7.098,11.166,4.999c2.178-1.016,3.614-2.708,4.323-5.004
			c0.069-0.22,0.076-0.52-0.015-0.722c-0.377-0.827-0.785-1.639-1.219-2.437c-0.241-0.442-0.281-0.81-0.014-1.131
			c0.374-0.449,1.002-0.423,1.371,0.077c0.977,1.321,1.623,2.795,1.827,4.427c0.449,3.552-0.64,6.582-3.379,8.885
			c-2.914,2.449-6.276,3.038-9.828,1.674c-3.464-1.329-5.512-3.942-6.171-7.608C37.292,40.51,37.276,39.986,37.249,39.722z
			 M54.843,41.527c-2.048,2.507-4.64,3.826-7.795,3.812c-3.152-0.014-5.746-1.336-7.803-3.848c0.868,3.52,4.256,6.336,8.352,6.072
			C51.575,47.309,54.3,44.208,54.843,41.527z"/>
		<path fill-rule="evenodd" clip-rule="evenodd" fill="#214260" stroke="#FFFFFF" stroke-width="0.4" stroke-miterlimit="10" d="
			M16.513,49.294c-4.981,0.053-9.547-3.874-9.808-9.327c-0.265-5.575,3.997-9.907,9.013-10.263
			c5.856-0.415,10.481,4.129,10.589,9.599C26.415,44.691,22.067,49.287,16.513,49.294z M16.465,43.643
			c0.169-0.011,0.337-0.021,0.506-0.029c3.361-0.164,6.378-2.561,7.289-5.803c0.046-0.166,0.062-0.367,0.019-0.529
			c-0.92-3.411-4.172-5.876-7.756-5.889c-3.589-0.014-6.83,2.407-7.789,5.829c-0.049,0.178-0.052,0.39-0.003,0.566
			C9.656,41.172,12.958,43.667,16.465,43.643z M8.714,41.563c0.734,3.13,3.795,6.011,7.737,6.017
			c4.077,0.006,7.152-2.939,7.836-6.013C20.358,46.654,12.582,46.521,8.714,41.563z"/>
	</g>
</g>
</svg>
