<?xml version="1.0" encoding="utf-8"?>
<!-- Generator: Adobe Illustrator 16.0.0, SVG Export Plug-In . SVG Version: 6.00 Build 0)  -->
<!DOCTYPE svg PUBLIC "-//W3C//DTD SVG 1.1//EN" "http://www.w3.org/Graphics/SVG/1.1/DTD/svg11.dtd">
<svg version="1.1" id="Layer_1" xmlns="http://www.w3.org/2000/svg" xmlns:xlink="http://www.w3.org/1999/xlink" x="0px" y="0px"
	 width="199.058px" height="107.558px" viewBox="0 0 199.058 107.558" enable-background="new 0 0 199.058 107.558"
	 xml:space="preserve">
<g>
	<defs>
		<rect id="SVGID_3_" x="-176.942" y="350.42" width="1600.471" height="658.138"/>
	</defs>
	<clipPath id="SVGID_2_">
		<use xlink:href="#SVGID_3_"  overflow="visible"/>
	</clipPath>
	<g clip-path="url(#SVGID_2_)">
		
			<image overflow="visible" width="6708" height="4472" xlink:href="../../../../../../Job Folder/Xanadu/Photoshoot pics/Xanadu/Superior room 2.jpg"  transform="matrix(0.2446 0 0 0.2446 -193.8955 29.5112)">
		</image>
	</g>
</g>
<g>
	<g>
		<path fill="#231F20" d="M6.374,86.158c0.514,0,0.892-0.09,1.135-0.269c0.243-0.179,0.563-0.496,0.964-0.949l7.624-8.229
			l-6.724-7.3c-0.4-0.452-0.75-0.769-1.049-0.947c-0.3-0.179-0.65-0.268-1.05-0.268v-0.43h6.425v0.43
			c-0.429,0-0.643,0.131-0.643,0.393c0,0.215,0.171,0.49,0.514,0.822l4.541,5.081l4.754-5.081c0.428-0.429,0.642-0.702,0.642-0.822
			c0-0.261-0.257-0.393-0.771-0.393v-0.43h6.125v0.43c-0.429,0-0.742,0.071-0.942,0.213c-0.2,0.144-0.542,0.479-1.028,1.001
			l-6.724,7.157l7.667,8.372c0.456,0.5,0.799,0.83,1.028,0.984c0.229,0.155,0.557,0.233,0.985,0.233v0.429H23.42v-0.429
			c0.343,0,0.578-0.019,0.707-0.054c0.129-0.036,0.193-0.113,0.193-0.232c0-0.168-0.158-0.406-0.472-0.717l-5.738-6.297
			l-5.911,6.297c-0.315,0.264-0.472,0.513-0.472,0.752c0,0.167,0.228,0.251,0.686,0.251v0.429h-6.04V86.158z"/>
		<path fill="#231F20" d="M32.171,86.083c0.536,0,0.897-0.099,1.082-0.295c0.184-0.196,0.36-0.448,0.528-0.757l7.949-15.215
			c0.167-0.336,0.252-0.574,0.252-0.714s-0.094-0.266-0.277-0.378c-0.185-0.111-0.512-0.182-0.981-0.21v-0.42h8.151v0.504
			c-0.269,0-0.528,0.036-0.779,0.105c-0.252,0.07-0.378,0.204-0.378,0.399c0,0.14,0.042,0.281,0.126,0.421
			c0.083,0.139,0.159,0.279,0.227,0.419l8.604,15.299c0.101,0.196,0.251,0.385,0.453,0.567c0.201,0.183,0.57,0.274,1.107,0.274
			v0.504h-6.34v-0.504c0.604,0,1.006-0.043,1.208-0.127c0.202-0.084,0.302-0.21,0.302-0.378c0-0.195-0.034-0.363-0.101-0.504
			c-0.067-0.14-0.135-0.279-0.202-0.42l-2.062-3.53H38.812l-1.71,3.194c-0.134,0.252-0.277,0.491-0.428,0.714
			c-0.151,0.225-0.227,0.406-0.227,0.546c0,0.168,0.102,0.294,0.302,0.378c0.201,0.084,0.554,0.127,1.057,0.127v0.504h-5.635V86.083
			z M39.97,78.769h9.812l-5.083-8.826L39.97,78.769z"/>
		<path fill="#231F20" d="M63.819,86.083c0.536,0,0.897-0.078,1.082-0.232c0.184-0.154,0.276-0.469,0.276-0.946V69.773
			c0-0.475-0.093-0.791-0.276-0.945c-0.185-0.154-0.546-0.231-1.082-0.231v-0.504h7.346v0.504c-0.537,0-0.898,0.036-1.082,0.105
			c-0.185,0.07-0.276,0.162-0.276,0.272c0,0.085,0.184,0.324,0.553,0.716l13.635,13.071V69.773c0-0.475-0.092-0.791-0.276-0.945
			c-0.185-0.154-0.545-0.231-1.082-0.231v-0.504h5.534v0.504c-0.536,0-0.897,0.078-1.081,0.231c-0.185,0.155-0.277,0.47-0.277,0.945
			v15.132c0,0.477,0.092,0.792,0.277,0.946c0.184,0.154,0.545,0.232,1.081,0.232v0.504h-6.742v-0.504
			c0.671,0,1.073-0.029,1.208-0.085c0.133-0.056,0.201-0.153,0.201-0.294c0-0.14-0.059-0.259-0.176-0.357
			c-0.118-0.099-0.26-0.231-0.428-0.4L67.995,71.371v13.535c0,0.477,0.092,0.792,0.277,0.946s0.545,0.232,1.082,0.232v0.504h-5.535
			V86.083z"/>
		<path fill="#231F20" d="M93.706,86.083c0.537,0,0.897-0.099,1.082-0.295c0.185-0.196,0.36-0.448,0.529-0.757l7.949-15.215
			c0.168-0.336,0.252-0.574,0.252-0.714s-0.092-0.266-0.276-0.378c-0.185-0.111-0.512-0.182-0.98-0.21v-0.42h8.15v0.504
			c-0.268,0-0.527,0.036-0.779,0.105c-0.251,0.07-0.377,0.204-0.377,0.399c0,0.14,0.041,0.281,0.125,0.421
			c0.083,0.139,0.159,0.279,0.227,0.419l8.604,15.299c0.101,0.196,0.252,0.385,0.453,0.567c0.202,0.183,0.571,0.274,1.107,0.274
			v0.504h-6.34v-0.504c0.604,0,1.006-0.043,1.208-0.127c0.202-0.084,0.302-0.21,0.302-0.378c0-0.195-0.033-0.363-0.1-0.504
			c-0.068-0.14-0.135-0.279-0.202-0.42l-2.063-3.53h-12.227l-1.71,3.194c-0.134,0.252-0.276,0.491-0.428,0.714
			c-0.151,0.225-0.226,0.406-0.226,0.546c0,0.168,0.101,0.294,0.302,0.378c0.201,0.084,0.554,0.127,1.058,0.127v0.504h-5.636V86.083
			z M101.504,78.769h9.812l-5.083-8.826L101.504,78.769z"/>
		<path fill="#231F20" d="M126.185,68.828c-0.151-0.154-0.495-0.231-1.031-0.231v-0.504h12.176c1.979,0,3.689,0.238,5.132,0.714
			c1.442,0.477,2.625,1.129,3.547,1.955c0.922,0.827,1.601,1.801,2.038,2.921c0.436,1.121,0.654,2.34,0.654,3.656
			c0,1.29-0.218,2.501-0.654,3.636c-0.437,1.136-1.116,2.117-2.038,2.943c-0.923,0.827-2.105,1.479-3.547,1.954
			c-1.443,0.477-3.153,0.715-5.132,0.715h-12.176v-0.504c0.536,0,0.88-0.078,1.031-0.232c0.151-0.154,0.227-0.469,0.227-0.946
			V69.773C126.411,69.298,126.336,68.983,126.185,68.828z M136.725,84.233c1.577,0,2.911-0.182,4-0.547
			c1.09-0.364,1.979-0.862,2.667-1.492c0.687-0.63,1.19-1.358,1.51-2.186c0.318-0.826,0.478-1.716,0.478-2.67
			c0-0.952-0.16-1.841-0.478-2.668c-0.319-0.826-0.823-1.555-1.51-2.186c-0.688-0.63-1.577-1.127-2.667-1.492
			c-1.089-0.364-2.423-0.546-4-0.546h-7.194v13.787H136.725z"/>
		<path fill="#231F20" d="M178.335,83.644c-0.671,0.786-1.542,1.409-2.616,1.871c-1.074,0.462-2.265,0.777-3.573,0.945
			c-1.308,0.168-2.599,0.253-3.874,0.253s-2.566-0.084-3.875-0.253c-1.308-0.168-2.499-0.483-3.572-0.945
			c-1.073-0.462-1.945-1.085-2.616-1.871c-0.672-0.784-1.007-1.766-1.007-2.942V69.773c0-0.475-0.067-0.791-0.201-0.945
			c-0.134-0.154-0.419-0.231-0.855-0.231v-0.504h5.232v0.504c-0.437,0-0.722,0.078-0.855,0.231c-0.135,0.155-0.201,0.47-0.201,0.945
			v10.382c0,1.597,0.722,2.719,2.164,3.362c1.442,0.645,3.371,0.967,5.786,0.967s4.344-0.322,5.787-0.967
			c1.441-0.643,2.163-1.766,2.163-3.362V69.773c0-0.475-0.067-0.791-0.201-0.945c-0.135-0.154-0.42-0.231-0.855-0.231v-0.504h5.232
			v0.504c-0.437,0-0.722,0.078-0.855,0.231c-0.135,0.155-0.202,0.47-0.202,0.945v10.928
			C179.342,81.878,179.007,82.86,178.335,83.644z"/>
	</g>
	<g>
		<path fill="#4D7D95" d="M165.431,37.558c0,0-20.772,6.04-22.808,6.623c0,0-13.456,3.885-17.469,1.938
			c0,0,6.931,4.682,18.388,0.559c0,0,17.48-2.435,24.392-5.877L165.431,37.558z"/>
		<path fill="#4D7D95" d="M168.707,34.44c2.708-0.867,12.847-15.746,15.486-17.915c0,0,9.216-9.982,10.005-16.525
			c0,0,1.411,9.27-7.068,17.19c0,0-8.281,13.538-15.334,20.078l3.072,0.884c0,0-4.212,6.175-9.918,7.222l0.904-3.149
			C165.854,42.225,165.993,35.307,168.707,34.44z"/>
		<path fill="#4D7D95" d="M163.885,38.062c0,0,1.718-4.436,6.939-3.905C170.824,34.157,170.346,39.94,163.885,38.062z"/>
	</g>
	<g>
		<path fill="#231F20" d="M46.434,103.115c-0.478,0.186-1.247,0.35-2.206,0.35c-2.143,0-3.441-1.172-3.441-3.057
			c0-1.392,0.643-2.718,1.815-3.562c0.87-0.646,1.954-0.998,3.202-0.998c0.946,0,1.614,0.209,1.841,0.362l-0.34,0.733
			c-0.315-0.163-0.92-0.306-1.677-0.306c-0.883,0-1.778,0.294-2.433,0.833c-0.794,0.646-1.298,1.688-1.298,2.805
			c0,1.325,0.693,2.411,2.584,2.411c0.643,0,1.348-0.11,1.815-0.318L46.434,103.115z"/>
		<path fill="#231F20" d="M47.567,103.356l1.702-7.78h1.046l-0.757,3.419h0.026c0.517-0.647,1.26-1.063,2.18-1.063
			c0.694,0,1.513,0.373,1.513,1.425c0,0.284-0.038,0.625-0.101,0.899l-0.681,3.1h-1.045l0.681-3.057
			c0.038-0.198,0.076-0.438,0.076-0.735c0-0.493-0.265-0.876-0.945-0.876c-0.808,0-1.829,0.822-2.081,2.016l-0.567,2.652H47.567z"/>
		<path fill="#231F20" d="M58.748,103.049c-0.454,0.231-1.197,0.417-2.017,0.417c-1.614,0-2.32-0.954-2.32-2.126
			c0-1.599,1.362-3.407,3.328-3.407c1.16,0,1.791,0.603,1.791,1.359c0,1.392-1.803,1.764-4.06,1.731
			c-0.05,0.23-0.013,0.722,0.126,1.008c0.24,0.471,0.731,0.712,1.361,0.712c0.719,0,1.261-0.197,1.639-0.373L58.748,103.049z
			 M57.588,98.644c-0.996,0-1.74,0.844-1.992,1.677c1.639,0.011,2.924-0.175,2.924-0.997C58.521,98.885,58.143,98.644,57.588,98.644
			z"/>
		<path fill="#231F20" d="M64.305,103.148c-0.314,0.132-0.946,0.317-1.765,0.317c-1.576,0-2.345-0.92-2.345-2.049
			c0-1.808,1.538-3.473,3.731-3.473c0.568,0,1.084,0.143,1.273,0.23l-0.303,0.723c-0.239-0.099-0.579-0.197-1.033-0.197
			c-1.589,0-2.584,1.358-2.584,2.608c0,0.854,0.517,1.414,1.513,1.414c0.617,0,1.096-0.165,1.411-0.296L64.305,103.148z"/>
		<path fill="#231F20" d="M65.502,103.356l1.689-7.78h1.046l-1.072,4.877h0.025c0.189-0.187,0.417-0.384,0.567-0.538l2.156-1.862
			h1.285l-2.66,2.181l1.828,3.123h-1.16l-1.462-2.619l-0.77,0.602l-0.441,2.017H65.502z"/>
		<path fill="#231F20" d="M73.631,103.356l1.172-5.303h1.046l-1.172,5.303H73.631z M74.992,96.573c0-0.35,0.315-0.614,0.693-0.614
			c0.378,0,0.618,0.242,0.618,0.57c-0.012,0.361-0.303,0.614-0.706,0.614C75.231,97.143,74.992,96.902,74.992,96.573z"/>
		<path fill="#231F20" d="M76.567,103.356l0.82-3.758c0.138-0.592,0.213-1.107,0.289-1.545h0.933l-0.151,1.041h0.025
			c0.542-0.745,1.362-1.162,2.257-1.162c0.731,0,1.55,0.362,1.55,1.479c0,0.229-0.05,0.57-0.113,0.854l-0.681,3.09h-1.047
			l0.668-3.057c0.05-0.209,0.088-0.461,0.088-0.681c0-0.536-0.24-0.931-0.958-0.931c-0.744,0-1.803,0.778-2.08,2.093l-0.555,2.575
			H76.567z"/>
		<path fill="#231F20" d="M83.259,102.83c0-0.405,0.328-0.733,0.794-0.733c0.428,0,0.705,0.273,0.705,0.657
			c0,0.395-0.328,0.722-0.807,0.722C83.536,103.476,83.259,103.192,83.259,102.83z"/>
		<path fill="#231F20" d="M90.027,96.069c0.517-0.086,1.134-0.153,1.828-0.153c0.869,0,1.5,0.164,1.953,0.515
			c0.392,0.273,0.619,0.667,0.619,1.15c0,0.931-0.871,1.622-1.84,1.841v0.021c0.769,0.197,1.411,0.756,1.399,1.644
			c0,0.756-0.466,1.348-1.021,1.709c-0.668,0.439-1.6,0.603-2.748,0.603c-0.731,0-1.362-0.033-1.765-0.099L90.027,96.069z
			 M89.624,102.622c0.265,0.034,0.58,0.044,0.87,0.044c1.236,0.011,2.396-0.438,2.396-1.622c0-0.866-0.845-1.249-1.803-1.249h-0.844
			L89.624,102.622z M90.405,99.104h0.782c1.21,0,2.156-0.547,2.156-1.446c0-0.713-0.619-1.019-1.538-1.019
			c-0.392,0-0.707,0.033-0.871,0.076L90.405,99.104z"/>
		<path fill="#231F20" d="M94.992,103.356l0.744-3.418c0.151-0.691,0.252-1.392,0.315-1.885h0.92
			c-0.05,0.373-0.102,0.745-0.164,1.15h0.038c0.391-0.723,1.046-1.271,1.866-1.271c0.088,0,0.214,0.011,0.29,0.022l-0.202,0.899
			c-0.062-0.011-0.164-0.021-0.277-0.021c-0.908,0-1.714,0.953-1.979,2.191l-0.505,2.333H94.992z"/>
		<path fill="#231F20" d="M103.374,103.049c-0.454,0.231-1.197,0.417-2.017,0.417c-1.613,0-2.319-0.954-2.319-2.126
			c0-1.599,1.362-3.407,3.328-3.407c1.159,0,1.79,0.603,1.79,1.359c0,1.392-1.803,1.764-4.059,1.731
			c-0.051,0.23-0.013,0.722,0.126,1.008c0.239,0.471,0.731,0.712,1.361,0.712c0.719,0,1.261-0.197,1.639-0.373L103.374,103.049z
			 M102.215,98.644c-0.997,0-1.74,0.844-1.992,1.677c1.639,0.011,2.924-0.175,2.924-0.997
			C103.147,98.885,102.77,98.644,102.215,98.644z"/>
		<path fill="#231F20" d="M108.781,103.356c0-0.317,0.062-0.822,0.139-1.37h-0.026c-0.668,1.095-1.5,1.489-2.37,1.489
			c-1.071,0-1.751-0.744-1.751-1.753c0-1.84,1.562-3.791,4.221-3.791c0.581,0,1.224,0.088,1.64,0.208l-0.618,2.762
			c-0.202,0.921-0.29,1.863-0.265,2.455H108.781z M109.462,98.732c-0.151-0.033-0.378-0.076-0.731-0.076
			c-1.576,0-2.862,1.435-2.875,2.903c0,0.592,0.239,1.173,1.046,1.173c0.87,0,1.903-0.987,2.206-2.4L109.462,98.732z"/>
		<path fill="#231F20" d="M114.099,96.628l-0.315,1.425h1.462l-0.164,0.712h-1.462l-0.568,2.574
			c-0.062,0.297-0.112,0.571-0.112,0.855c0,0.317,0.176,0.505,0.579,0.505c0.177,0,0.353-0.011,0.492-0.034l-0.05,0.712
			c-0.189,0.066-0.504,0.098-0.807,0.098c-0.933,0-1.286-0.493-1.286-1.029c0-0.307,0.039-0.613,0.126-0.997l0.604-2.685h-0.882
			l0.164-0.712h0.87l0.265-1.194L114.099,96.628z"/>
		<path fill="#231F20" d="M115.359,103.356l1.701-7.78h1.046l-0.756,3.419h0.025c0.517-0.647,1.261-1.063,2.181-1.063
			c0.693,0,1.513,0.373,1.513,1.425c0,0.284-0.037,0.625-0.101,0.899l-0.681,3.1h-1.046l0.68-3.057
			c0.038-0.198,0.076-0.438,0.076-0.735c0-0.493-0.265-0.876-0.946-0.876c-0.807,0-1.828,0.822-2.08,2.016l-0.567,2.652H115.359z"/>
		<path fill="#231F20" d="M126.539,103.049c-0.454,0.231-1.198,0.417-2.017,0.417c-1.614,0-2.32-0.954-2.32-2.126
			c0-1.599,1.362-3.407,3.328-3.407c1.16,0,1.79,0.603,1.79,1.359c0,1.392-1.803,1.764-4.059,1.731
			c-0.05,0.23-0.013,0.722,0.126,1.008c0.24,0.471,0.731,0.712,1.361,0.712c0.719,0,1.261-0.197,1.639-0.373L126.539,103.049z
			 M125.379,98.644c-0.996,0-1.74,0.844-1.992,1.677c1.639,0.011,2.924-0.175,2.924-0.997
			C126.312,98.885,125.933,98.644,125.379,98.644z"/>
		<path fill="#231F20" d="M136.091,100.146c0,1.633-1.336,3.33-3.378,3.33c-1.525,0-2.383-0.985-2.383-2.18
			c0-1.742,1.399-3.364,3.378-3.364C135.361,97.932,136.091,99.017,136.091,100.146z M131.415,101.263
			c0,0.866,0.542,1.49,1.438,1.49c1.235,0,2.168-1.382,2.168-2.619c0-0.613-0.328-1.479-1.425-1.479
			C132.285,98.656,131.402,100.046,131.415,101.263z"/>
		<path fill="#231F20" d="M142.821,98.053l-0.819,3.758c-0.126,0.592-0.215,1.107-0.277,1.545h-0.945l0.164-0.997h-0.025
			c-0.542,0.69-1.349,1.117-2.156,1.117c-0.782,0-1.602-0.328-1.602-1.533c0-0.252,0.038-0.538,0.114-0.887l0.655-3.002h1.047
			l-0.643,2.958c-0.076,0.296-0.114,0.547-0.114,0.777c0,0.549,0.265,0.921,0.983,0.921c0.756,0,1.726-0.767,1.978-1.938
			l0.593-2.718H142.821z"/>
		<path fill="#231F20" d="M146.287,96.628l-0.315,1.425h1.462l-0.164,0.712h-1.462l-0.567,2.574
			c-0.062,0.297-0.113,0.571-0.113,0.855c0,0.317,0.177,0.505,0.58,0.505c0.177,0,0.353-0.011,0.492-0.034l-0.051,0.712
			c-0.189,0.066-0.504,0.098-0.806,0.098c-0.934,0-1.287-0.493-1.287-1.029c0-0.307,0.038-0.613,0.126-0.997l0.605-2.685h-0.882
			l0.164-0.712h0.87l0.264-1.194L146.287,96.628z"/>
		<path fill="#231F20" d="M147.458,102.83c0-0.405,0.328-0.733,0.794-0.733c0.429,0,0.706,0.273,0.706,0.657
			c0,0.395-0.328,0.722-0.807,0.722C147.736,103.476,147.458,103.192,147.458,102.83z"/>
	</g>
	<g>
		<g>
			<path fill="#231F20" d="M9.443,61.311v0.215H7.146v-0.215c0.07,0,0.132-0.018,0.187-0.054c0.054-0.035,0.082-0.089,0.082-0.16
				v-4.742h-2.46c-0.089,0-0.176,0.019-0.26,0.058c-0.084,0.042-0.126,0.116-0.126,0.227H4.3v-1.668h0.269
				c0,0.112,0.042,0.188,0.126,0.227c0.084,0.04,0.171,0.06,0.26,0.06h6.62c0.089,0,0.176-0.02,0.26-0.06
				c0.084-0.039,0.127-0.115,0.127-0.227h0.269v1.668h-0.269c0-0.111-0.043-0.186-0.127-0.227c-0.084-0.039-0.171-0.058-0.26-0.058
				h-2.46v4.742C9.115,61.24,9.224,61.311,9.443,61.311z"/>
			<path fill="#231F20" d="M15.854,61.133c0,0.064,0.022,0.109,0.066,0.137c0.045,0.028,0.097,0.042,0.156,0.042v0.215h-1.878
				v-0.215c0.06,0,0.112-0.014,0.157-0.042c0.044-0.028,0.067-0.073,0.067-0.137v-4.456c0-0.062-0.023-0.109-0.067-0.137
				c-0.045-0.028-0.097-0.042-0.157-0.042v-0.214h1.878v0.214c-0.059,0-0.111,0.014-0.156,0.042
				c-0.044,0.028-0.066,0.074-0.066,0.137v1.68h3.995v-1.68c0-0.062-0.022-0.109-0.067-0.137c-0.044-0.028-0.097-0.042-0.156-0.042
				v-0.214h1.878v0.214c-0.059,0-0.112,0.014-0.156,0.042c-0.044,0.028-0.067,0.074-0.067,0.137v4.456
				c0,0.064,0.023,0.109,0.067,0.137c0.044,0.028,0.097,0.042,0.156,0.042v0.215h-1.878v-0.215c0.059,0,0.112-0.014,0.156-0.042
				c0.045-0.028,0.067-0.073,0.067-0.137v-1.799h-3.995V61.133z"/>
			<path fill="#231F20" d="M29.867,57.392c0-0.15-0.155-0.227-0.462-0.227h-3.638v1.191h2.296c0.169,0,0.293-0.01,0.373-0.029
				c0.08-0.021,0.119-0.074,0.119-0.161h0.268v1.262h-0.298c0.03-0.086-0.01-0.141-0.119-0.161s-0.264-0.03-0.462-0.03h-2.177v1.406
				h3.816c0.119,0,0.218-0.021,0.298-0.065c0.08-0.044,0.119-0.102,0.119-0.174h0.268v1.251h-0.268c0-0.071-0.04-0.111-0.119-0.12
				c-0.08-0.007-0.18-0.01-0.298-0.01h-5.471v-0.215c0.049,0,0.099-0.014,0.149-0.042c0.049-0.028,0.075-0.073,0.075-0.137v-4.456
				c0-0.062-0.025-0.109-0.075-0.137c-0.05-0.028-0.1-0.042-0.149-0.042v-0.214h5.292c0.307,0,0.462-0.072,0.462-0.214h0.269v1.323
				H29.867z"/>
		</g>
	</g>
</g>
</svg>
