<?xml version="1.0" encoding="utf-8"?>
<!-- Generator: Adobe Illustrator 16.0.0, SVG Export Plug-In . SVG Version: 6.00 Build 0)  -->
<!DOCTYPE svg PUBLIC "-//W3C//DTD SVG 1.1//EN" "http://www.w3.org/Graphics/SVG/1.1/DTD/svg11.dtd">
<svg version="1.1" id="Layer_1" xmlns="http://www.w3.org/2000/svg" xmlns:xlink="http://www.w3.org/1999/xlink" x="0px" y="0px"
	 width="63.036px" height="63.051px" viewBox="0 0 63.036 63.051" enable-background="new 0 0 63.036 63.051" xml:space="preserve">
<g id="GDyNEx_1_">
	<g>
		<path fill="#214260" stroke="#FFFFFF" stroke-width="0.4" stroke-miterlimit="10" d="M57.224,61c-2.912,0-5.825,0-8.737,0
			c-0.346-0.301-0.701-0.6-0.49-1.138c0.203-0.523,0.642-0.582,1.121-0.567c0.227,0.007,0.453,0.001,0.681,0.001
			c0.863,0,1.726,0,2.619,0c-0.235-4.456-0.465-8.833-0.697-13.211c-0.046-0.888-0.118-1.772-0.146-2.661
			c-0.019-0.572,0.329-0.957,0.813-0.976c0.49-0.02,0.826,0.325,0.88,0.907c0.011,0.112,0.016,0.226,0.022,0.339
			c0.057,0.955,0.113,1.91,0.172,2.905c1.472-0.16,2.87-0.312,4.292-0.467c-0.269-2.411-0.539-4.737-0.784-7.065
			c-0.259-2.454-2.011-3.776-4.209-4.088c-0.18,0.907-0.302,1.829-0.551,2.713c-0.334,1.183-0.948,2.203-2.194,2.634
			c-1.001,0.346-2.007,0.185-2.916-0.282c-1.035-0.53-2.009-1.178-2.94-1.736c-1.298,0.741-2.627,1.5-3.989,2.277
			c0.032,0.144,0.125,0.413,0.15,0.691c0.118,1.26-0.529,2.196-1.872,2.785c-0.188,0.082-0.451,0.226-0.487,0.383
			c-0.426,1.849-1.45,3.242-3.027,4.285c-0.201,0.132-0.203,0.628-0.21,0.959c-0.002,0.101,0.275,0.256,0.449,0.303
			c1.038,0.281,2.097,0.489,3.121,0.813c1.631,0.516,2.748,1.567,3.048,3.314c0.153,0.893,0.229,1.798,0.339,2.697
			c0.101,0.818,0.201,1.638,0.303,2.476c0.876,0,1.688,0.009,2.5-0.003c0.484-0.007,0.924,0.061,1.114,0.579
			c0.194,0.532-0.139,0.847-0.515,1.131c-9.115,0-18.229,0-27.345,0c-0.208-0.27-0.529-0.513-0.601-0.815
			c-0.121-0.51,0.33-0.88,0.98-0.886c1.012-0.01,2.024-0.002,3.058-0.002c0.032-0.26,0.058-0.445,0.08-0.631
			c0.178-1.461,0.335-2.927,0.539-4.386c0.208-1.498,0.996-2.633,2.412-3.173c1.175-0.449,2.421-0.709,3.627-1.08
			c0.233-0.072,0.57-0.225,0.614-0.403c0.096-0.382,0.089-0.763-0.388-1.049c-1.437-0.866-2.358-2.164-2.776-3.784
			c-0.114-0.439-0.299-0.651-0.719-0.81c-1.734-0.651-2.34-2.728-1.158-4.064c0.105-0.12,0.205-0.289,0.216-0.441
			c0.077-1.02,0.13-2.042,0.19-3.061c-0.227,0.286-0.47,0.593-0.714,0.901c-1.023,1.293-1.843,1.378-3.08,0.318
			c-0.02-0.018-0.068-0.002-0.154-0.002c0,1.07,0,2.143,0,3.215c0,1.14-0.231,1.554-0.869,1.55
			c-0.614-0.006-0.833-0.403-0.833-1.512c0-1.088,0-2.176,0-3.34c-0.137,0.082-0.2,0.11-0.252,0.153
			c-1.129,0.96-2.027,0.874-2.928-0.282c-0.709-0.909-1.43-1.81-2.122-2.731c-0.19-0.254-0.369-0.314-0.664-0.233
			c-0.784,0.211-1.581,0.372-2.361,0.594c-2.104,0.601-3.442,1.883-3.663,4.159C6.032,40.672,5.86,42.135,5.699,43.6
			c-0.092,0.837-0.188,1.673-0.286,2.543c1.478,0.154,2.88,0.303,4.33,0.455c0.019-0.354,0.037-0.653,0.052-0.952
			c0.04-0.774,0.064-1.547,0.122-2.321c0.04-0.541,0.396-0.879,0.861-0.876c0.473,0.003,0.81,0.356,0.832,0.889
			c0.008,0.189-0.002,0.378-0.012,0.567c-0.21,3.906-0.424,7.812-0.633,11.719c-0.064,1.202-0.117,2.405-0.177,3.669
			c1,0,1.94,0.009,2.879-0.003c0.487-0.007,0.93,0.072,1.1,0.595c0.169,0.523-0.134,0.855-0.547,1.115c-2.76,0-5.521,0-8.284,0
			c-0.66-0.3-1.37-0.524-1.971-0.916c-0.871-0.566-1.167-1.534-1.432-2.488c0-0.529,0-1.058,0-1.589
			c0.032-0.106,0.083-0.212,0.095-0.321c0.614-5.502,1.234-11.003,1.832-16.508c0.202-1.87,0.877-3.457,2.434-4.61
			c1-0.742,2.156-1.065,3.328-1.368c1.24-0.321,2.48-0.604,3.652-1.177c0.679-0.333,0.991-0.68,0.889-1.438
			c-0.054-0.395-0.023-0.715-0.465-0.974c-2.883-1.691-4.418-4.255-4.698-7.565c-0.04-0.475-0.198-0.666-0.636-0.816
			c-1.599-0.551-2.527-2.27-1.905-3.695c0.312-0.72,0.335-1.41,0.342-2.14c0.004-0.436,0.003-0.869,0.012-1.305
			c0.103-4.612,3.322-9.021,7.706-10.487c0.923-0.309,1.896-0.469,2.846-0.697c0.681,0,1.362,0,2.042,0
			c0.126,0.033,0.25,0.083,0.377,0.097c4.748,0.527,8.833,4.091,9.845,8.764c0.316,1.459,0.251,2.999,0.369,4.503
			c0.018,0.238,0.011,0.518,0.131,0.706c0.913,1.436,0.322,3.529-1.752,4.288c-0.412,0.151-0.538,0.334-0.564,0.751
			c-0.197,3.08-1.534,5.579-4.135,7.232c-0.895,0.57-1.074,1.172-0.965,2.049c0.018,0.152,0.135,0.352,0.265,0.421
			c0.566,0.3,1.153,0.562,1.733,0.835c0.482,0.226,0.879,0.206,1.323-0.191c0.872-0.777,1.913-1.31,3.063-1.512
			c1.012-0.177,2.049-0.207,3.049-0.299c-0.031-0.135-0.117-0.37-0.136-0.61c-0.087-1.111-0.162-2.224-0.231-3.336
			c-0.184-2.981-0.377-5.962-0.541-8.943c-0.129-2.334-0.017-4.652,0.766-6.884c0.693-1.971,1.847-3.539,3.906-4.279
			c0.197-0.071,0.382-0.237,0.518-0.405c0.936-1.165,2.104-2.019,3.511-2.494c0.885-0.3,1.816-0.465,2.728-0.692
			c0.756,0,1.513,0,2.269,0C46.091,3,46.658,3.052,47.2,3.196c3.012,0.796,5.379,2.515,7.113,5.094
			c0.939,1.397,1.547,2.935,1.83,4.597c0.098,0.57-0.134,0.999-0.603,1.119c-0.49,0.124-0.898-0.17-1.054-0.765
			c-0.042-0.165-0.068-0.332-0.109-0.498c-0.804-3.226-2.682-5.641-5.606-7.188c-1.979-1.046-4.127-1.134-6.298-0.754
			c-1.72,0.301-3.145,1.111-4.238,2.506c-0.251,0.319-0.63,0.606-1.008,0.738c-1.158,0.403-1.973,1.159-2.543,2.21
			c-0.861,1.589-1.136,3.329-1.151,5.091c-0.017,1.793,0.111,3.588,0.209,5.382c0.156,2.868,0.332,5.736,0.513,8.604
			c0.041,0.662,0.187,0.779,0.845,0.782c1.437,0.005,2.874,0.003,4.31,0c0.141,0,0.281-0.023,0.422-0.036
			c0.019-0.044,0.038-0.09,0.057-0.135c-0.233-0.154-0.465-0.312-0.701-0.465c-2.613-1.702-4.19-4.074-4.417-7.204
			c-0.137-1.882-0.077-3.779-0.077-5.669c0-0.998,0.385-1.484,1.371-1.737c1.301-0.333,2.392-0.994,3.325-1.95
			c0.829-0.85,1.658-0.81,2.413,0.093c1.297,1.553,2.899,2.693,4.734,3.519c1.675,0.752,3.44,1.128,5.267,1.231
			c1.245,0.07,1.8,0.646,1.808,1.904c0.004,0.585,0.004,1.173-0.009,1.758c-0.078,3.622-1.692,6.354-4.774,8.233
			c-0.145,0.089-0.28,0.194-0.438,0.304c0.095,0.085,0.122,0.13,0.148,0.13c1.607,0.009,3.212,0.02,4.817,0.011
			c0.377-0.002,0.567-0.237,0.587-0.625c0.044-0.85,0.11-1.698,0.158-2.547c0.175-3.115,0.356-6.228,0.514-9.342
			c0.042-0.844,0.313-1.285,0.881-1.271c0.578,0.016,0.863,0.427,0.816,1.304c-0.21,3.907-0.433,7.814-0.66,11.721
			c-0.099,1.718-0.913,2.475-2.643,2.48c-1.343,0.003-2.687-0.003-4.027,0c-0.185,0-0.369,0.029-0.554,0.044
			c-0.001,0.056-0.006,0.111-0.009,0.167c0.171,0.054,0.339,0.114,0.513,0.16c1.862,0.488,3.75,0.897,5.581,1.482
			c2.062,0.658,3.453,2.069,3.938,4.229c0.207,0.917,0.294,1.864,0.401,2.801c0.447,3.904,0.876,7.811,1.322,11.716
			c0.137,1.195,0.3,2.389,0.451,3.584c0,0.531,0,1.06,0,1.589c-0.257,0.601-0.45,1.239-0.782,1.794
			C59.262,60.358,58.276,60.754,57.224,61z M26.758,19.681c0-0.851,0.014-1.701-0.01-2.551c-0.004-0.183-0.083-0.43-0.215-0.532
			c-1.115-0.852-1.636-2.004-1.739-3.363c-0.035-0.462-0.246-0.594-0.66-0.527c-3.407,0.545-6.814,0.445-10.22-0.008
			c-0.498-0.064-0.681,0.131-0.717,0.611c-0.097,1.3-0.602,2.397-1.653,3.223c-0.159,0.125-0.278,0.401-0.28,0.609
			c-0.019,1.53-0.031,3.062,0.008,4.591c0.091,3.625,2.745,6.663,6.383,7.35c3.476,0.656,7.113-1.323,8.489-4.609
			C26.791,22.931,26.782,21.307,26.758,19.681z M51.861,19.48c-4.494-0.254-8.297-1.926-11.272-5.238
			c-0.641,0.479-1.192,0.98-1.827,1.34c-0.649,0.369-1.388,0.579-2.066,0.902c-0.148,0.071-0.293,0.323-0.298,0.495
			c-0.034,1.341-0.064,2.685-0.04,4.025c0.05,2.623,0.946,4.829,3.056,6.53c3.211,2.588,8.263,2.002,10.799-1.254
			C51.793,24.252,52.047,21.963,51.861,19.48z M28.825,15.485c0.531-3.405-1.427-7.385-4.569-9.335
			c-3.455-2.144-7.757-2.038-10.995,0.295c-3.205,2.309-4.487,6.064-4.054,9.192c0.566-0.259,1.156-0.421,1.608-0.764
			c0.536-0.404,0.632-1.081,0.696-1.737c0.149-1.524,0.98-2.224,2.504-2.101c0.865,0.07,1.727,0.185,2.591,0.272
			c2.463,0.253,4.907,0.008,7.349-0.28c1.445-0.169,2.379,0.578,2.517,2.012C26.629,14.669,27.155,15.224,28.825,15.485z
			 M40.263,59.266c-0.202-1.627-0.389-3.214-0.599-4.801c-0.126-0.953-0.697-1.596-1.575-1.904c-0.797-0.282-1.63-0.471-2.454-0.67
			c-0.122-0.029-0.313,0.081-0.424,0.18c-2.246,2.009-5.022,2.008-7.259,0.006c-0.126-0.112-0.371-0.19-0.531-0.154
			c-0.718,0.154-1.437,0.326-2.136,0.551c-0.829,0.267-1.549,0.75-1.705,1.654c-0.289,1.688-0.477,3.392-0.713,5.136
			c0.269,0.015,0.434,0.031,0.6,0.032c0.562,0.003,1.124,0.001,1.727,0.001c0.015-0.322,0.024-0.582,0.04-0.842
			c0.017-0.283,0.028-0.566,0.061-0.849c0.078-0.651,0.385-0.959,0.912-0.928c0.532,0.031,0.815,0.431,0.781,1.1
			c-0.024,0.485-0.05,0.971-0.077,1.479c3.146,0,6.233,0,9.32,0c0-0.322,0.003-0.604-0.001-0.886
			c-0.003-0.283-0.034-0.567-0.021-0.85c0.036-0.705,0.756-1.124,1.272-0.702c0.228,0.187,0.363,0.56,0.414,0.871
			c0.083,0.513,0.066,1.043,0.091,1.575C38.761,59.266,39.472,59.266,40.263,59.266z M26.782,40.388c0,1.069-0.044,2.087,0.009,3.1
			c0.127,2.429,2.269,4.447,4.67,4.449c2.606,0.002,4.769-1.954,4.895-4.468c0.053-1.057,0.026-2.117,0.018-3.177
			c-0.001-0.142-0.077-0.333-0.184-0.419c-0.67-0.528-1.358-1.034-2.065-1.566C32.182,40.43,29.622,40.872,26.782,40.388z
			 M37.764,38.66c0.22-1.944-1.126-4.39-3.033-5.482c-2.277-1.305-4.921-1.128-7.017,0.473c-1.487,1.137-2.583,3.258-2.31,4.974
			c0.474,0,0.928-0.021,1.379,0.008c0.318,0.021,0.63,0.128,0.948,0.159c2.21,0.218,4.171-0.168,5.494-2.205
			c0.513-0.79,1.564-0.757,2.066,0.084C35.883,37.659,36.659,38.355,37.764,38.66z M9.051,59.28
			c0.184-3.694,0.365-7.326,0.548-10.981c-1.502-0.155-2.922-0.302-4.379-0.453c-0.125,1.087-0.248,2.117-0.361,3.146
			c-0.207,1.896-0.432,3.791-0.601,5.689c-0.13,1.45,0.691,2.504,2.005,2.588C7.166,59.327,8.074,59.28,9.051,59.28z M54.119,59.273
			c0.983,0,1.91,0.051,2.831-0.012c1.031-0.073,1.69-0.711,1.882-1.737c0.072-0.385,0.1-0.792,0.061-1.181
			c-0.211-2.067-0.45-4.131-0.681-6.197c-0.086-0.761-0.183-1.521-0.277-2.308c-1.488,0.158-2.908,0.308-4.39,0.465
			C53.738,51.986,53.927,55.62,54.119,59.273z M48.695,33.921c-0.691-0.246-1.601-0.211-1.814-1.11
			c-0.169-0.715-0.174-1.47-0.256-2.253c-1.678,0.413-3.341,0.471-4.986-0.005c-0.077,0.798-0.062,1.563-0.24,2.281
			c-0.219,0.877-1.131,0.849-1.824,1.092C41.913,36.88,46.531,36.744,48.695,33.921z M19.001,34.206
			c0.708-0.664,1.344-1.341,2.063-1.911c0.617-0.488,0.564-1.056,0.462-1.749c-1.688,0.451-3.348,0.431-5.132-0.001
			c0.073,0.527-0.019,1.091,0.221,1.366C17.331,32.729,18.178,33.432,19.001,34.206z M51.111,34.554
			c-0.084-0.06-0.168-0.121-0.252-0.182c-0.173,0.108-0.37,0.191-0.518,0.328c-0.636,0.584-1.207,1.255-1.901,1.754
			c-0.654,0.472-1.434,0.773-2.273,1.207c0.741,0.354,1.409,0.745,2.125,0.994c1.042,0.362,1.771,0.051,2.117-0.987
			C50.743,36.662,50.885,35.594,51.111,34.554z M29.82,51.334c0.978,0.717,2.503,0.719,3.512,0.002
			c-0.159-0.621-0.309-1.204-0.45-1.756c-0.877,0-1.77,0-2.606,0C30.125,50.161,29.978,50.729,29.82,51.334z M21.492,36.611
			c0.751-0.964,1.498-1.921,2.266-2.902c-0.333-0.161-0.595-0.322-0.879-0.413c-0.141-0.043-0.376-0.019-0.48,0.074
			c-0.729,0.655-1.436,1.336-2.153,2.012C20.666,35.796,21.061,36.187,21.492,36.611z M17.74,35.369
			c-0.713-0.671-1.418-1.349-2.144-2.005c-0.093-0.083-0.306-0.108-0.43-0.065c-0.295,0.101-0.569,0.261-0.91,0.424
			c0.78,0.995,1.518,1.939,2.25,2.873C16.915,36.188,17.3,35.805,17.74,35.369z M39.19,36.151c0.125,0.818,0.26,1.699,0.417,2.724
			c0.84-0.408,1.646-0.802,2.476-1.205C41.027,37.116,40.09,36.625,39.19,36.151z M35.913,31.861
			c0.336,0.274,0.598,0.507,0.881,0.709c0.124,0.087,0.312,0.177,0.445,0.148c0.823-0.187,1.639-0.405,2.457-0.614
			c0.09-0.022,0.182-0.04,0.273-0.061c-0.048-0.061-0.094-0.122-0.143-0.183C38.551,31.861,37.276,31.861,35.913,31.861z
			 M9.502,19.587c0-0.812,0-1.549,0-2.327c-0.595,0.243-0.941,0.633-0.917,1.216C8.607,19.019,8.932,19.397,9.502,19.587z
			 M28.508,19.545c0.592-0.198,0.945-0.618,0.913-1.132c-0.035-0.552-0.334-0.917-0.913-1.129
			C28.508,18.069,28.508,18.804,28.508,19.545z M38.128,42.276c0.681-0.513,0.675-1.011,0-1.46
			C38.128,41.295,38.128,41.748,38.128,42.276z M25.001,40.834c-0.676,0.422-0.668,1.037,0,1.395
			C25.001,41.766,25.001,41.309,25.001,40.834z"/>
	</g>
</g>
</svg>
