<?xml version="1.0" encoding="utf-8"?>
<!-- Generator: Adobe Illustrator 16.0.0, SVG Export Plug-In . SVG Version: 6.00 Build 0)  -->
<!DOCTYPE svg PUBLIC "-//W3C//DTD SVG 1.1//EN" "http://www.w3.org/Graphics/SVG/1.1/DTD/svg11.dtd">
<svg version="1.1" id="Layer_1" xmlns="http://www.w3.org/2000/svg" xmlns:xlink="http://www.w3.org/1999/xlink" x="0px" y="0px"
	 width="51.494px" height="51.495px" viewBox="0 0 51.494 51.495" enable-background="new 0 0 51.494 51.495" xml:space="preserve">
<g id="GDyNEx_1_">
	<g>
		<path fill="#214260" stroke="#FFFFFF" stroke-width="0.4" stroke-miterlimit="10" d="M48.301,51.295c-2.562,0-5.123,0-7.685,0
			c-0.305-0.265-0.616-0.527-0.431-1.001c0.179-0.46,0.564-0.512,0.985-0.499c0.199,0.007,0.398,0.001,0.599,0.001
			c0.759,0,1.518,0,2.304,0c-0.207-3.919-0.409-7.769-0.613-11.619c-0.041-0.78-0.104-1.559-0.128-2.34
			c-0.017-0.503,0.289-0.842,0.715-0.858c0.431-0.018,0.727,0.286,0.774,0.798c0.01,0.099,0.014,0.198,0.02,0.298
			c0.05,0.84,0.1,1.68,0.151,2.556c1.295-0.141,2.524-0.274,3.774-0.411c-0.236-2.12-0.474-4.166-0.689-6.214
			c-0.228-2.158-1.769-3.321-3.702-3.596c-0.158,0.798-0.265,1.608-0.484,2.387c-0.294,1.04-0.834,1.938-1.93,2.316
			c-0.881,0.304-1.766,0.162-2.564-0.248c-0.91-0.466-1.767-1.036-2.586-1.526c-1.142,0.651-2.311,1.319-3.509,2.003
			c0.028,0.126,0.109,0.363,0.132,0.607c0.104,1.108-0.465,1.932-1.646,2.449c-0.165,0.072-0.396,0.198-0.428,0.337
			c-0.375,1.626-1.275,2.852-2.663,3.769c-0.177,0.116-0.179,0.553-0.185,0.844c-0.002,0.089,0.242,0.226,0.395,0.267
			c0.913,0.247,1.845,0.431,2.745,0.716c1.435,0.453,2.417,1.378,2.681,2.915c0.135,0.785,0.201,1.581,0.298,2.372
			c0.089,0.72,0.177,1.44,0.267,2.178c0.771,0,1.484,0.008,2.199-0.003c0.426-0.006,0.812,0.054,0.979,0.509
			c0.171,0.468-0.122,0.745-0.453,0.995c-8.017,0-16.033,0-24.05,0c-0.184-0.237-0.465-0.451-0.528-0.717
			c-0.106-0.448,0.29-0.774,0.862-0.779c0.89-0.009,1.78-0.002,2.689-0.002c0.028-0.229,0.051-0.392,0.07-0.555
			c0.156-1.285,0.295-2.574,0.474-3.857c0.183-1.317,0.876-2.315,2.121-2.791c1.033-0.395,2.129-0.624,3.19-0.949
			c0.205-0.063,0.501-0.198,0.54-0.354c0.084-0.336,0.078-0.671-0.341-0.923c-1.264-0.762-2.074-1.903-2.442-3.328
			c-0.1-0.387-0.263-0.573-0.633-0.712c-1.525-0.573-2.058-2.399-1.019-3.575c0.092-0.105,0.181-0.254,0.19-0.388
			c0.067-0.897,0.114-1.796,0.167-2.692c-0.199,0.251-0.413,0.521-0.628,0.792c-0.899,1.138-1.621,1.212-2.709,0.28
			c-0.018-0.016-0.06-0.002-0.135-0.002c0,0.941,0,1.885,0,2.828c0,1.003-0.204,1.367-0.764,1.363
			c-0.54-0.005-0.732-0.354-0.732-1.329c0-0.957,0-1.914,0-2.938c-0.12,0.072-0.176,0.097-0.222,0.135
			c-0.993,0.845-1.783,0.769-2.575-0.248c-0.624-0.8-1.258-1.592-1.866-2.402c-0.167-0.224-0.324-0.276-0.584-0.205
			c-0.689,0.186-1.391,0.327-2.076,0.522c-1.851,0.528-3.027,1.656-3.221,3.658c-0.124,1.289-0.275,2.576-0.417,3.864
			c-0.081,0.736-0.165,1.472-0.251,2.236c1.299,0.136,2.533,0.267,3.808,0.4c0.017-0.312,0.032-0.574,0.046-0.837
			c0.035-0.681,0.057-1.361,0.107-2.041c0.035-0.476,0.348-0.773,0.757-0.771c0.416,0.003,0.712,0.313,0.731,0.781
			c0.007,0.167-0.002,0.333-0.011,0.499c-0.185,3.436-0.373,6.871-0.557,10.307c-0.057,1.058-0.103,2.115-0.155,3.228
			c0.879,0,1.706,0.008,2.532-0.003c0.429-0.006,0.818,0.063,0.968,0.523c0.149,0.46-0.118,0.752-0.481,0.98
			c-2.428,0-4.856,0-7.286,0c-0.581-0.264-1.205-0.461-1.734-0.806c-0.766-0.498-1.026-1.35-1.259-2.188c0-0.466,0-0.931,0-1.397
			c0.028-0.094,0.073-0.187,0.083-0.282c0.54-4.839,1.086-9.678,1.611-14.519c0.178-1.645,0.771-3.04,2.141-4.055
			c0.879-0.652,1.896-0.937,2.927-1.203c1.091-0.282,2.182-0.531,3.212-1.035c0.598-0.293,0.872-0.598,0.782-1.265
			c-0.048-0.348-0.021-0.629-0.409-0.856c-2.536-1.487-3.886-3.742-4.132-6.654c-0.035-0.417-0.174-0.585-0.56-0.718
			c-1.406-0.484-2.223-1.996-1.676-3.25c0.274-0.633,0.295-1.24,0.301-1.882c0.004-0.383,0.002-0.765,0.011-1.147
			c0.09-4.057,2.922-7.935,6.777-9.224c0.812-0.271,1.668-0.412,2.503-0.613c0.599,0,1.198,0,1.796,0
			c0.111,0.029,0.22,0.073,0.332,0.085c4.175,0.464,7.769,3.598,8.659,7.708c0.278,1.283,0.221,2.638,0.324,3.96
			c0.016,0.21,0.01,0.455,0.115,0.621c0.803,1.263,0.283,3.104-1.541,3.771c-0.362,0.133-0.473,0.294-0.496,0.66
			c-0.174,2.709-1.35,4.907-3.637,6.361c-0.787,0.501-0.944,1.03-0.849,1.802c0.016,0.134,0.119,0.31,0.233,0.37
			c0.498,0.264,1.014,0.494,1.524,0.734c0.424,0.198,0.773,0.182,1.164-0.168c0.767-0.684,1.683-1.152,2.694-1.33
			c0.89-0.155,1.802-0.182,2.682-0.263c-0.027-0.118-0.103-0.325-0.119-0.536c-0.077-0.978-0.143-1.956-0.203-2.935
			c-0.162-2.622-0.332-5.243-0.476-7.865c-0.113-2.053-0.015-4.092,0.674-6.055c0.609-1.733,1.624-3.112,3.436-3.764
			c0.173-0.062,0.336-0.209,0.455-0.356c0.823-1.024,1.851-1.775,3.088-2.193c0.778-0.264,1.598-0.409,2.399-0.608
			c0.665,0,1.331,0,1.996,0c0.488,0.083,0.986,0.129,1.463,0.256c2.649,0.7,4.731,2.212,6.256,4.48
			c0.826,1.229,1.36,2.581,1.609,4.043c0.086,0.502-0.118,0.879-0.53,0.984c-0.431,0.109-0.79-0.149-0.927-0.673
			c-0.037-0.145-0.06-0.292-0.096-0.438c-0.707-2.837-2.358-4.961-4.931-6.321c-1.74-0.92-3.63-0.997-5.539-0.663
			c-1.513,0.265-2.766,0.978-3.728,2.204c-0.221,0.28-0.554,0.533-0.887,0.649c-1.019,0.354-1.735,1.02-2.236,1.944
			c-0.758,1.397-0.999,2.928-1.013,4.478c-0.015,1.577,0.098,3.156,0.184,4.733c0.138,2.522,0.292,5.045,0.451,7.567
			c0.036,0.582,0.164,0.686,0.743,0.688c1.264,0.005,2.527,0.003,3.791,0c0.124,0,0.247-0.021,0.371-0.031
			c0.017-0.039,0.033-0.079,0.05-0.119c-0.205-0.136-0.409-0.274-0.616-0.409c-2.298-1.497-3.686-3.583-3.885-6.336
			c-0.12-1.655-0.067-3.324-0.067-4.986c0-0.877,0.339-1.305,1.206-1.527c1.144-0.293,2.104-0.874,2.924-1.715
			c0.729-0.747,1.458-0.712,2.122,0.082c1.141,1.365,2.55,2.368,4.164,3.095c1.473,0.662,3.026,0.992,4.632,1.083
			c1.095,0.062,1.583,0.568,1.59,1.675c0.004,0.515,0.004,1.031-0.008,1.546c-0.068,3.186-1.488,5.588-4.199,7.241
			c-0.127,0.078-0.246,0.171-0.385,0.268c0.084,0.075,0.107,0.114,0.131,0.114c1.413,0.008,2.825,0.018,4.237,0.01
			c0.332-0.002,0.499-0.209,0.516-0.55c0.039-0.747,0.097-1.493,0.139-2.24c0.154-2.739,0.313-5.478,0.452-8.217
			c0.037-0.742,0.275-1.13,0.775-1.118c0.508,0.014,0.759,0.375,0.718,1.146c-0.185,3.437-0.381,6.873-0.58,10.309
			c-0.087,1.511-0.803,2.177-2.324,2.182c-1.181,0.003-2.363-0.003-3.542,0c-0.162,0-0.324,0.025-0.487,0.039
			c-0.001,0.049-0.005,0.098-0.008,0.146c0.15,0.047,0.298,0.101,0.451,0.141c1.638,0.43,3.298,0.789,4.908,1.304
			c1.813,0.579,3.037,1.82,3.464,3.72c0.182,0.807,0.259,1.64,0.353,2.464c0.393,3.434,0.771,6.869,1.163,10.304
			c0.12,1.052,0.264,2.102,0.396,3.152c0,0.467,0,0.932,0,1.397c-0.226,0.528-0.396,1.09-0.688,1.578
			C50.094,50.73,49.227,51.078,48.301,51.295z M21.506,14.954c0-0.748,0.012-1.496-0.009-2.243
			c-0.004-0.161-0.073-0.378-0.189-0.468c-0.98-0.749-1.438-1.763-1.529-2.958c-0.03-0.406-0.216-0.522-0.58-0.464
			c-2.996,0.479-5.993,0.392-8.988-0.007C9.772,8.758,9.611,8.93,9.579,9.352c-0.085,1.144-0.529,2.108-1.454,2.835
			c-0.14,0.109-0.244,0.353-0.246,0.535c-0.017,1.346-0.027,2.693,0.007,4.038c0.08,3.188,2.414,5.86,5.614,6.464
			c3.057,0.577,6.256-1.164,7.466-4.054C21.535,17.812,21.527,16.385,21.506,14.954z M43.584,14.778
			c-3.952-0.224-7.297-1.694-9.914-4.607c-0.563,0.421-1.049,0.862-1.606,1.179c-0.571,0.324-1.221,0.509-1.817,0.793
			c-0.13,0.062-0.258,0.284-0.262,0.436c-0.03,1.18-0.057,2.361-0.035,3.54c0.044,2.307,0.832,4.247,2.688,5.743
			c2.824,2.276,7.268,1.761,9.498-1.103C43.524,18.975,43.748,16.962,43.584,14.778z M23.324,11.265
			c0.467-2.995-1.255-6.495-4.019-8.211c-3.038-1.886-6.823-1.792-9.67,0.26c-2.819,2.03-3.946,5.334-3.565,8.085
			c0.498-0.228,1.017-0.37,1.415-0.672c0.471-0.355,0.556-0.95,0.612-1.527c0.131-1.341,0.862-1.956,2.202-1.848
			c0.761,0.062,1.519,0.162,2.279,0.239c2.166,0.223,4.315,0.007,6.463-0.246c1.271-0.149,2.093,0.508,2.214,1.77
			C21.393,10.547,21.855,11.034,23.324,11.265z M33.384,49.77c-0.178-1.431-0.342-2.827-0.527-4.223
			c-0.111-0.838-0.613-1.403-1.385-1.675c-0.701-0.248-1.434-0.414-2.158-0.589c-0.107-0.025-0.275,0.071-0.373,0.158
			c-1.976,1.767-4.417,1.766-6.385,0.005c-0.111-0.099-0.326-0.167-0.467-0.136c-0.632,0.136-1.264,0.287-1.879,0.484
			c-0.729,0.234-1.362,0.66-1.499,1.455c-0.254,1.484-0.419,2.983-0.627,4.517c0.236,0.014,0.382,0.027,0.527,0.028
			c0.494,0.003,0.988,0.001,1.519,0.001c0.013-0.283,0.021-0.512,0.035-0.74c0.015-0.249,0.024-0.498,0.054-0.746
			c0.068-0.573,0.339-0.844,0.802-0.816c0.468,0.027,0.717,0.379,0.687,0.968c-0.021,0.427-0.044,0.854-0.067,1.301
			c2.768,0,5.482,0,8.197,0c0-0.283,0.003-0.531-0.001-0.779c-0.003-0.249-0.03-0.499-0.019-0.747
			c0.032-0.62,0.665-0.988,1.119-0.617c0.2,0.164,0.319,0.492,0.364,0.766c0.073,0.451,0.058,0.918,0.08,1.386
			C32.062,49.77,32.688,49.77,33.384,49.77z M21.527,33.166c0,0.94-0.039,1.836,0.008,2.727c0.111,2.136,1.995,3.911,4.107,3.913
			c2.292,0.002,4.194-1.719,4.305-3.93c0.047-0.93,0.023-1.862,0.016-2.794c-0.001-0.125-0.067-0.293-0.162-0.368
			c-0.589-0.465-1.194-0.91-1.816-1.378C26.276,33.203,24.025,33.592,21.527,33.166z M31.186,31.646
			c0.193-1.71-0.99-3.861-2.668-4.821c-2.003-1.147-4.328-0.992-6.171,0.416c-1.308,1-2.272,2.865-2.031,4.375
			c0.417,0,0.816-0.019,1.213,0.007c0.28,0.018,0.555,0.112,0.834,0.14c1.944,0.191,3.669-0.147,4.832-1.939
			c0.451-0.694,1.376-0.666,1.817,0.074C29.531,30.767,30.214,31.379,31.186,31.646z M5.933,49.782
			c0.162-3.249,0.321-6.443,0.482-9.658c-1.321-0.137-2.57-0.266-3.852-0.398c-0.11,0.956-0.218,1.862-0.317,2.768
			c-0.182,1.668-0.38,3.334-0.528,5.004c-0.114,1.275,0.607,2.202,1.764,2.276C4.274,49.823,5.073,49.782,5.933,49.782z
			 M45.57,49.776c0.864,0,1.68,0.045,2.489-0.011c0.907-0.064,1.486-0.626,1.655-1.527c0.063-0.339,0.088-0.697,0.054-1.039
			c-0.186-1.818-0.396-3.634-0.599-5.45c-0.076-0.669-0.161-1.338-0.244-2.029c-1.309,0.139-2.558,0.271-3.86,0.409
			C45.235,43.367,45.401,46.563,45.57,49.776z M40.8,27.479c-0.608-0.216-1.408-0.186-1.596-0.977
			c-0.148-0.629-0.153-1.293-0.226-1.981c-1.476,0.363-2.938,0.414-4.385-0.004c-0.068,0.701-0.055,1.375-0.211,2.006
			c-0.192,0.771-0.995,0.747-1.604,0.961C34.835,30.081,38.896,29.962,40.8,27.479z M14.684,27.729
			c0.622-0.584,1.182-1.18,1.814-1.681c0.543-0.43,0.496-0.929,0.406-1.538c-1.484,0.396-2.944,0.379-4.514-0.001
			c0.064,0.464-0.017,0.96,0.194,1.201C13.215,26.43,13.96,27.049,14.684,27.729z M42.925,28.035
			c-0.074-0.053-0.148-0.106-0.222-0.16c-0.152,0.095-0.325,0.168-0.455,0.288c-0.56,0.514-1.062,1.104-1.672,1.543
			c-0.575,0.415-1.261,0.68-1.999,1.062c0.651,0.311,1.239,0.655,1.869,0.874c0.916,0.318,1.558,0.045,1.861-0.868
			C42.601,29.89,42.726,28.95,42.925,28.035z M24.199,42.794c0.86,0.631,2.202,0.633,3.089,0.002
			c-0.14-0.546-0.271-1.059-0.396-1.544c-0.771,0-1.557,0-2.292,0C24.468,41.762,24.338,42.262,24.199,42.794z M16.874,29.845
			c0.661-0.848,1.318-1.689,1.993-2.553c-0.293-0.142-0.523-0.283-0.773-0.363c-0.124-0.038-0.331-0.017-0.422,0.065
			c-0.642,0.576-1.263,1.175-1.894,1.77C16.147,29.128,16.495,29.472,16.874,29.845z M13.574,28.752
			c-0.627-0.591-1.247-1.187-1.886-1.764c-0.082-0.073-0.269-0.096-0.378-0.058c-0.26,0.089-0.5,0.229-0.8,0.373
			c0.686,0.875,1.335,1.705,1.979,2.526C12.849,29.473,13.188,29.136,13.574,28.752z M32.44,29.44
			c0.109,0.72,0.229,1.494,0.366,2.396c0.739-0.359,1.448-0.705,2.178-1.06C34.056,30.289,33.231,29.856,32.44,29.44z
			 M29.558,25.667c0.296,0.241,0.525,0.446,0.774,0.624c0.109,0.076,0.274,0.155,0.392,0.13c0.724-0.164,1.441-0.356,2.161-0.54
			c0.079-0.02,0.16-0.035,0.24-0.053c-0.042-0.054-0.083-0.107-0.126-0.161C31.878,25.667,30.757,25.667,29.558,25.667z
			 M6.329,14.872c0-0.714,0-1.362,0-2.047c-0.523,0.214-0.828,0.557-0.807,1.069C5.542,14.372,5.828,14.705,6.329,14.872z
			 M23.045,14.835c0.521-0.175,0.831-0.544,0.803-0.996c-0.031-0.485-0.294-0.807-0.803-0.993
			C23.045,13.537,23.045,14.183,23.045,14.835z M31.506,34.827c0.599-0.451,0.594-0.889,0-1.284
			C31.506,33.964,31.506,34.362,31.506,34.827z M19.961,33.559c-0.595,0.371-0.588,0.912,0,1.227
			C19.961,34.378,19.961,33.977,19.961,33.559z"/>
	</g>
</g>
</svg>
