<?xml version="1.0" encoding="utf-8"?>
<!-- Generator: Adobe Illustrator 16.0.0, SVG Export Plug-In . SVG Version: 6.00 Build 0)  -->
<!DOCTYPE svg PUBLIC "-//W3C//DTD SVG 1.1//EN" "http://www.w3.org/Graphics/SVG/1.1/DTD/svg11.dtd">
<svg version="1.1" id="Layer_1" xmlns="http://www.w3.org/2000/svg" xmlns:xlink="http://www.w3.org/1999/xlink" x="0px" y="0px"
	 width="63.036px" height="63.051px" viewBox="0 0 63.036 63.051" enable-background="new 0 0 63.036 63.051" xml:space="preserve">
<g id="GBQL22_3_">
	<g>
		<path fill-rule="evenodd" clip-rule="evenodd" fill="#214260" stroke="#FFFFFF" stroke-width="0.4" stroke-miterlimit="10" d="
			M5.023,24.206c0.676-1.862,1.519-3.599,3.092-4.923c0.404-0.34,0.528-1.044,0.721-1.602c0.359-1.04,0.59-2.136,1.053-3.124
			c0.169-0.361,0.85-0.482,1.297-0.713c0.172,0.464,0.551,0.963,0.479,1.387c-0.244,1.441-0.591,2.873-1.025,4.271
			c-0.144,0.466-0.623,0.871-1.029,1.207c-4.201,3.484-3.304,9.718,1.681,11.901c0.666,0.291,1.241,0.924,1.706,1.519
			c1.008,1.29,2.112,2.358,3.917,2.572c0.472-1.606,0.266-2.873-1.142-3.888c-0.841-0.605-1.553-1.392-2.31-2.111
			c-0.535-0.51-1.239-1.092-0.576-1.853c0.668-0.768,1.322-0.166,1.887,0.336c0.674,0.598,1.344,1.199,2.342,2.091
			c0-3.032-0.002-5.642,0-8.252c0.001-0.553-0.131-1.159,0.053-1.644c0.179-0.472,0.686-0.821,1.049-1.224
			c0.294,0.405,0.806,0.79,0.845,1.218c0.116,1.281,0.043,2.578,0.054,3.869c0.002,0.284,0.044,0.568,0.096,1.201
			c0.931-0.829,1.584-1.557,2.377-2.063c0.475-0.304,1.39-0.562,1.718-0.317c0.684,0.511,0.245,1.196-0.302,1.697
			c-0.045,0.041-0.079,0.101-0.131,0.129c-4.377,2.435-4.066,6.489-3.622,10.71c1.59-0.066,2.667-1.001,3.486-2.22
			c0.645-0.959,1.401-1.532,2.52-1.946c4.581-1.7,5.466-8.443,1.522-11.555c-0.985-0.777-1.491-1.525-1.671-2.814
			c-0.572-4.131-3.765-6.954-7.473-6.666c-1.117,0.087-2.219,0.613-3.281,1.052c-0.657,0.271-1.289,0.676-1.779-0.088
			c-0.584-0.91,0.211-1.32,0.819-1.721c4.865-3.198,11.678-0.463,13.339,5.511c0.461,1.661,1.18,2.913,2.339,4.154
			c4.027,4.315,2.481,11.546-2.868,13.964c-0.491,0.222-1.035,0.442-1.395,0.816c-2.467,2.574-2.453,2.587-5.632,4.001
			c0,0.573,0,1.175,0,1.563c1.402,0.973,2.68,1.859,3.868,2.685c1.225-0.575,2.6-1.185,3.937-1.869
			c0.466-0.239,0.868-0.635,1.246-1.012c2.684-2.675,6.945-2.123,8.744,1.21c0.459,0.851,1.069,1.346,1.838,1.896
			c1.822,1.302,3.543,2.773,5.146,4.339c0.697,0.682,1.002,1.766,1.562,2.812c0-1.68,0-3.227,0-4.896
			c-2.605-0.62-4.729-1.937-6.175-4.253c-0.227-0.363-0.791-0.536-1.224-0.745C32.305,38,31.126,30.013,35.916,25.622
			c0.669-0.612,1.008-1.213,1.205-2.126c0.306-1.412,0.916-2.78,1.568-4.081c0.189-0.379,0.96-0.467,1.464-0.688
			c0.092,0.535,0.36,1.113,0.242,1.597c-0.402,1.645-0.895,3.272-1.454,4.871c-0.186,0.529-0.595,1.062-1.048,1.403
			c-4.86,3.66-3.228,11.173,1.815,12.684c0.605,0.182,1.132,0.865,1.536,1.43c1.038,1.451,2.288,2.527,4.165,2.863
			c0.486-1.805,0.266-3.255-1.33-4.398c-0.942-0.673-1.803-1.5-2.553-2.384c-0.3-0.354-0.204-1.045-0.288-1.583
			c0.54,0.048,1.205-0.087,1.593,0.18c0.883,0.608,1.629,1.414,2.781,2.458c0-2.698,0-4.942,0.001-7.186
			c0-0.86-0.021-1.722,0.009-2.582c0.026-0.786-0.063-1.805,1.029-1.839c1.102-0.035,1.09,0.966,1.109,1.769
			c0.025,1.044-0.001,2.09,0.016,3.134c0.006,0.409,0.068,0.817,0.138,1.581c0.877-0.782,1.531-1.389,2.211-1.965
			c0.593-0.503,1.247-1.303,2.014-0.426c0.65,0.744-0.016,1.334-0.583,1.847c-0.637,0.576-1.189,1.275-1.897,1.743
			c-1.629,1.077-2.084,2.534-1.919,4.411c0.145,1.637,0.03,3.297,0.03,5.058c2.006-0.159,3.044-1.381,4.082-2.687
			c0.464-0.584,1.09-1.181,1.768-1.428c2.779-1.016,4.3-3.022,4.698-5.849c0.379-2.688-0.512-5.033-2.719-6.645
			c-1.058-0.773-1.46-1.605-1.61-2.861c-0.62-5.163-5.893-8.629-10.521-6.282c-0.697,0.354-1.474,0.66-1.875-0.284
			c-0.406-0.955,0.462-1.265,1.107-1.591c4.521-2.285,10.321-0.141,12.393,4.899c0.994,2.42,1.789,4.798,3.74,6.693
			c0.777,0.755,1.018,2.061,1.503,3.115c0,1.353,0,2.704,0,4.057c-1.033,3.114-2.77,5.588-6.051,6.666
			c-0.219,0.071-0.461,0.223-0.581,0.408c-1.392,2.155-3.37,3.508-5.772,4.156c0,1.814,0,3.493,0,5.323
			c3.469,0,6.779-0.025,10.087,0.019c0.773,0.011,1.544,0.254,2.316,0.39c0,0.369,0,0.738,0,1.106
			c-0.692,0.177-1.384,0.506-2.076,0.507c-17.055,0.028-34.109,0.028-51.164,0c-0.691-0.001-1.383-0.33-2.073-0.507
			c0-0.368,0-0.737,0-1.106c1.414-0.282,2.505-0.912,3.103-2.356c0.234-0.566,0.943-0.928,1.407-1.409
			c0.363-0.377,0.802-0.744,1-1.205c0.704-1.641,1.911-2.609,3.584-3.173c2.149-0.725,3.117-2.272,2.82-4.378
			c-2.459-0.53-4.465-1.824-5.835-4.029c-0.12-0.194-0.352-0.362-0.568-0.444c-2.936-1.112-4.529-3.402-5.511-6.236
			C5.023,26.909,5.023,25.558,5.023,24.206z M24.812,45.077c1.174,2.334,4.559,2.858,4.705,5.909c4.637,0,9.08,0,13.69,0
			c-0.21-0.582-0.241-1.174-0.553-1.45c-1.74-1.539-3.442-3.167-5.382-4.418c-0.854-0.551-1.534-0.835-1.853-1.93
			c-0.578-1.985-3.115-3.294-4.497-2.041c-1.792,1.625-4.027,2.244-5.895,3.575C24.982,44.756,24.964,44.825,24.812,45.077z
			 M9.363,50.989c6.173,0,12.026,0,18.305,0c-1.495-1.919-3.31-2.985-4.799-4.383c-0.042-0.039-0.109-0.063-0.168-0.071
			c-0.93-0.12-1.27-0.739-1.556-1.568c-0.45-1.307-1.651-2.249-2.611-1.784c-2.001,0.971-4.241,1.934-5.608,3.554
			c-0.931,1.104-1.647,2.401-2.905,3.262C9.798,50.151,9.693,50.479,9.363,50.989z"/>
	</g>
</g>
</svg>
