<?xml version="1.0" encoding="utf-8"?>
<!-- Generator: Adobe Illustrator 16.0.0, SVG Export Plug-In . SVG Version: 6.00 Build 0)  -->
<!DOCTYPE svg PUBLIC "-//W3C//DTD SVG 1.1//EN" "http://www.w3.org/Graphics/SVG/1.1/DTD/svg11.dtd">
<svg version="1.1" id="Layer_1" xmlns="http://www.w3.org/2000/svg" xmlns:xlink="http://www.w3.org/1999/xlink" x="0px" y="0px"
	 width="63.036px" height="63.051px" viewBox="0 0 63.036 63.051" enable-background="new 0 0 63.036 63.051" xml:space="preserve">
<g>
	<g>
		<path fill="#214260" stroke="#FFFFFF" stroke-width="2" stroke-miterlimit="10" d="M35.53,6.354v23.319L24.584,6.354H13.236
			v50.733l1.728-0.282c2.891-0.478,5.845-0.82,8.779-1.022l1.384-0.097V33.5l10.418,22.193l0.877,0.056
			c3.1,0.198,6.22,0.553,9.271,1.056l1.728,0.283V6.354H35.53z M22.154,52.922c-1.987,0.166-3.977,0.395-5.945,0.682v-39.1
			l5.945,12.664V52.922z M37.491,52.843L17.062,9.326h5.634l20.715,44.131C41.446,53.193,39.465,52.986,37.491,52.843z
			 M44.448,48.673l-5.945-12.665V9.326h5.945V48.673z"/>
	</g>
</g>
</svg>
