<?xml version="1.0" encoding="utf-8"?>
<!-- Generator: Adobe Illustrator 16.0.0, SVG Export Plug-In . SVG Version: 6.00 Build 0)  -->
<!DOCTYPE svg PUBLIC "-//W3C//DTD SVG 1.1//EN" "http://www.w3.org/Graphics/SVG/1.1/DTD/svg11.dtd">
<svg version="1.1" id="Layer_1" xmlns="http://www.w3.org/2000/svg" xmlns:xlink="http://www.w3.org/1999/xlink" x="0px" y="0px"
	 width="63.036px" height="63.051px" viewBox="0 0 63.036 63.051" enable-background="new 0 0 63.036 63.051" xml:space="preserve">
<g id="dvjC3u_3_">
	<g>
		<path fill-rule="evenodd" clip-rule="evenodd" fill="#214260" stroke="#FFFFFF" stroke-miterlimit="10" d="M29.383,53.819
			c-2.572-0.941-4.957-2.233-7.174-3.834c-4.928-3.562-7.912-8.373-9.147-14.3c-0.557-2.67-0.79-5.375-0.697-8.092
			c0.102-2.975,0.306-5.946,0.512-8.915c0.161-2.313,2.224-4.201,4.549-4.242c1.977-0.036,3.938-0.19,5.854-0.72
			c2.463-0.682,4.684-1.831,6.644-3.466c0.612-0.511,1.246-0.944,2.05-1.067c0.284,0.017,0.567,0.033,0.85,0.049
			c0.859,0.231,1.449,0.829,2.049,1.442c2.399,2.45,5.27,4.094,8.614,4.872c1.155,0.27,2.342,0.401,3.5,0.656
			c2.248,0.494,3.806,2.481,3.701,4.783c-0.129,2.897-0.253,5.798-0.514,8.686c-0.331,3.675-1.117,7.26-2.653,10.64
			c-2.243,4.936-5.818,8.604-10.642,11.073c-1.879,0.962-3.834,1.716-5.858,2.301c-0.259,0.074-0.525,0.124-0.788,0.186
			C29.949,53.852,29.666,53.836,29.383,53.819z M47.815,25.415c0.087-1.492,0.186-2.983,0.255-4.476
			c0.034-0.741-0.248-1.361-0.845-1.825c-0.465-0.361-1.023-0.406-1.573-0.478c-1.878-0.243-3.71-0.672-5.474-1.362
			c-2.933-1.146-5.456-2.896-7.601-5.196c-0.312-0.334-0.345-0.337-0.69-0.041c-1.132,0.967-2.354,1.803-3.665,2.51
			c-2.14,1.153-4.408,1.938-6.825,2.229c-1.295,0.156-2.605,0.208-3.91,0.277c-1.007,0.053-1.922,0.837-2.004,1.822
			c-0.31,3.739-0.644,7.479-0.468,11.239c0.108,2.315,0.41,4.6,1.059,6.831c1.106,3.813,3.11,7.061,6.113,9.678
			c2.243,1.955,4.795,3.394,7.528,4.528c0.171,0.071,0.417,0.067,0.595,0.003c1.464-0.529,2.951-1.007,4.37-1.639
			c3.348-1.491,6.174-3.667,8.346-6.65c2.257-3.101,3.438-6.63,4.117-10.356C47.571,30.164,47.776,27.796,47.815,25.415z"/>
		<path fill-rule="evenodd" clip-rule="evenodd" fill="#214260" stroke="#FFFFFF" stroke-miterlimit="10" d="M42.228,32.222
			c-0.32,6.02-5.664,10.786-11.755,10.429c-6.203-0.363-10.869-5.644-10.5-11.908c0.354-5.973,5.68-10.684,11.761-10.35
			C37.861,20.73,42.557,26.023,42.228,32.222z M22.588,31.202c-0.162,4.667,3.409,8.646,8.138,8.833
			c4.931,0.196,8.668-3.626,8.873-8.027c0.234-4.989-3.569-8.817-8.135-8.998C26.411,22.81,22.687,26.862,22.588,31.202z"/>
		<path fill-rule="evenodd" clip-rule="evenodd" fill="#214260" stroke="#FFFFFF" stroke-miterlimit="10" d="M29.089,33.194
			c0.09-0.124,0.145-0.238,0.233-0.317c1.716-1.532,3.433-3.064,5.156-4.588c0.722-0.638,1.752-0.406,2.1,0.469
			c0.198,0.499,0.11,0.963-0.25,1.366c-0.086,0.098-0.188,0.183-0.285,0.27c-2.019,1.799-4.039,3.598-6.059,5.396
			c-0.8,0.711-1.499,0.673-2.202-0.12c-0.65-0.735-1.303-1.468-1.95-2.205c-0.549-0.623-0.536-1.416,0.024-1.923
			c0.552-0.499,1.373-0.428,1.923,0.177C28.196,32.177,28.603,32.645,29.089,33.194z"/>
	</g>
</g>
</svg>
