<?xml version="1.0" encoding="utf-8"?>
<!-- Generator: Adobe Illustrator 16.0.0, SVG Export Plug-In . SVG Version: 6.00 Build 0)  -->
<!DOCTYPE svg PUBLIC "-//W3C//DTD SVG 1.1//EN" "http://www.w3.org/Graphics/SVG/1.1/DTD/svg11.dtd">
<svg version="1.1" id="Layer_1" xmlns="http://www.w3.org/2000/svg" xmlns:xlink="http://www.w3.org/1999/xlink" x="0px" y="0px"
	 width="31.154px" height="31.156px" viewBox="0 0 31.154 31.156" enable-background="new 0 0 31.154 31.156" xml:space="preserve">
<g>
	<circle fill="none" stroke="#FFFFFF" stroke-miterlimit="10" cx="15.578" cy="15.577" r="15.078"/>
	<g>
		<g>
			<path fill="#FFFFFF" d="M18.296,9.738c0.606,0.086,1.2,0.238,1.786,0.418c1.024,0.315,1.99,0.753,2.899,1.322
				c0.063,0.039,0.147,0.064,0.222,0.064c1.068,0.004,2.135,0.002,3.201,0.003c0.086,0,0.172,0.009,0.258,0.014
				c0,0.021,0.003,0.029-0.001,0.034c-0.05,0.077-0.1,0.152-0.15,0.229c-0.361,0.555-0.671,1.136-0.854,1.778
				c-0.021,0.069-0.024,0.126,0.022,0.194c0.95,1.364,1.253,2.862,0.856,4.477c-0.349,1.416-1.16,2.521-2.394,3.303
				c-0.882,0.559-1.855,0.825-2.896,0.831c-0.437,0.002-0.872-0.057-1.299-0.167c-1.041-0.271-1.933-0.789-2.668-1.574
				c-0.097-0.104-0.188-0.211-0.292-0.327c-0.389,0.579-0.771,1.148-1.162,1.733c-0.391-0.583-0.768-1.147-1.145-1.71
				c-0.026,0.014-0.033,0.016-0.038,0.021c-0.009,0.007-0.017,0.016-0.023,0.023c-0.889,1.051-2.007,1.693-3.37,1.909
				c-0.758,0.12-1.509,0.077-2.245-0.126c-1.043-0.286-1.93-0.837-2.646-1.649c-0.7-0.794-1.135-1.716-1.299-2.765
				c-0.187-0.979,0.041-1.922,0.098-2.15c0.165-0.666,0.452-1.276,0.847-1.838c0.027-0.04,0.037-0.11,0.024-0.158
				c-0.161-0.59-0.438-1.126-0.763-1.64c-0.083-0.131-0.182-0.251-0.272-0.377c0-0.014,0-0.029,0-0.044
				c0.018,0.002,0.036,0.006,0.054,0.006c1.092,0,2.184,0.001,3.276-0.001c0.048,0,0.101-0.02,0.141-0.045
				c0.767-0.492,1.585-0.882,2.444-1.186c0.619-0.219,1.252-0.389,1.896-0.514c0.625-0.121,1.253-0.206,1.887-0.248
				C16.238,9.459,17.474,9.623,18.296,9.738z M16.927,16.951c0,2.398,1.946,4.357,4.336,4.348c2.398-0.008,4.335-1.912,4.333-4.337
				c-0.001-2.499-2.028-4.377-4.427-4.328C18.802,12.682,16.948,14.591,16.927,16.951z M10.424,12.617
				c-2.333-0.021-4.367,1.926-4.326,4.406c0.038,2.312,1.944,4.273,4.375,4.253c2.376-0.021,4.286-1.961,4.29-4.312
				C14.767,14.55,12.833,12.617,10.424,12.617z M10.639,11.485c1.317,0.081,2.476,0.54,3.453,1.429
				c0.977,0.888,1.548,1.995,1.756,3.297c0.214-1.287,0.771-2.384,1.729-3.263c0.959-0.879,2.102-1.341,3.397-1.439
				c-1.538-0.684-3.16-0.974-4.83-1.006C14.247,10.466,12.402,10.746,10.639,11.485z"/>
			<path fill="#FFFFFF" d="M21.254,14.215c1.483-0.002,2.686,1.193,2.686,2.675c0,1.488-1.182,2.64-2.575,2.692
				c-1.557,0.06-2.803-1.181-2.803-2.686C18.564,15.375,19.818,14.189,21.254,14.215z M23.004,16.897
				c-0.001-0.968-0.782-1.753-1.743-1.753c-0.972,0-1.763,0.782-1.768,1.747c-0.003,0.96,0.792,1.76,1.755,1.762
				C22.212,18.656,23.005,17.863,23.004,16.897z"/>
			<path fill="#FFFFFF" d="M10.367,14.215c1.483-0.001,2.687,1.196,2.683,2.678c-0.004,1.501-1.187,2.626-2.556,2.688
				c-1.563,0.071-2.824-1.175-2.821-2.688C7.676,15.362,8.939,14.189,10.367,14.215z M12.115,16.891
				c-0.003-0.974-0.79-1.749-1.772-1.748c-0.948,0.002-1.742,0.802-1.74,1.753c0.002,0.962,0.796,1.754,1.761,1.756
				C11.323,18.655,12.117,17.856,12.115,16.891z"/>
			<path fill="#FFFFFF" d="M21.255,16.006c0.492,0,0.896,0.403,0.891,0.893s-0.401,0.887-0.885,0.888
				c-0.498,0-0.898-0.395-0.897-0.882C20.365,16.399,20.753,16.007,21.255,16.006z"/>
			<path fill="#FFFFFF" d="M10.362,15.999c0.5,0,0.901,0.398,0.903,0.896c0.002,0.493-0.403,0.898-0.9,0.899
				c-0.509,0.002-0.901-0.392-0.901-0.903C9.464,16.389,9.856,16,10.362,15.999z"/>
		</g>
	</g>
</g>
</svg>
