<?xml version="1.0" encoding="utf-8"?>
<!-- Generator: Adobe Illustrator 16.0.0, SVG Export Plug-In . SVG Version: 6.00 Build 0)  -->
<!DOCTYPE svg PUBLIC "-//W3C//DTD SVG 1.1//EN" "http://www.w3.org/Graphics/SVG/1.1/DTD/svg11.dtd">
<svg version="1.1" id="Layer_1" xmlns="http://www.w3.org/2000/svg" xmlns:xlink="http://www.w3.org/1999/xlink" x="0px" y="0px"
	 width="31.156px" height="31.155px" viewBox="0 0 31.156 31.155" enable-background="new 0 0 31.156 31.155" xml:space="preserve">
<g>
	<circle fill="none" stroke="#FFFFFF" stroke-miterlimit="10" cx="15.578" cy="15.577" r="15.078"/>
	<path fill="#FFFFFF" stroke="#231F20" stroke-width="0.1" stroke-miterlimit="10" d="M24.215,11.769
		c-0.938,0.045-0.917,0.04-1.022,0.049l0.555-1.584c0,0-1.731,0.637-2.171,0.75c-1.153-1.035-2.866-1.082-4.091-0.328
		c-1.003,0.616-1.542,1.676-1.362,2.915c-1.952-0.271-3.598-1.197-4.896-2.756l-0.411-0.494l-0.307,0.564
		c-0.389,0.711-0.518,1.525-0.363,2.293c0.062,0.314,0.17,0.614,0.319,0.896l-0.354-0.136l-0.042,0.587
		c-0.041,0.599,0.158,1.297,0.533,1.868c0.106,0.162,0.243,0.338,0.416,0.512l-0.183-0.027l0.223,0.675
		c0.292,0.886,0.899,1.572,1.687,1.953c-0.786,0.333-1.423,0.547-2.466,0.89l-0.956,0.314l0.883,0.483
		c0.337,0.183,1.525,0.798,2.7,0.982c2.61,0.409,5.55,0.075,7.529-1.708c1.666-1.5,2.213-3.637,2.1-5.857
		c-0.018-0.337,0.075-0.658,0.26-0.904C23.164,13.211,24.213,11.772,24.215,11.769z M22.097,13.182
		c-0.307,0.409-0.46,0.931-0.433,1.471c0.113,2.241-0.495,3.979-1.812,5.166c-1.539,1.387-4.022,1.931-6.812,1.493
		c-0.504-0.078-1.026-0.256-1.459-0.434c0.875-0.301,1.553-0.569,2.645-1.086l1.522-0.722l-1.683-0.108
		c-0.806-0.051-1.477-0.441-1.889-1.076c0.219-0.012,0.43-0.048,0.641-0.106l1.604-0.447l-1.618-0.396
		c-0.786-0.192-1.234-0.664-1.473-1.025c-0.155-0.235-0.257-0.479-0.318-0.703c0.162,0.044,0.351,0.075,0.656,0.105l1.498,0.148
		l-1.187-0.925c-0.855-0.667-1.198-1.67-0.948-2.633c2.669,2.769,5.802,2.561,6.118,2.633c-0.068-0.674-0.071-0.676-0.089-0.741
		c-0.404-1.428,0.481-2.152,0.881-2.398c0.833-0.511,2.156-0.59,3.075,0.255c0.197,0.183,0.465,0.254,0.715,0.192
		c0.226-0.057,0.41-0.115,0.591-0.181l-0.376,1.075h0.479C22.336,12.86,22.228,13.007,22.097,13.182z"/>
</g>
</svg>
