<?xml version="1.0" encoding="utf-8"?>
<!-- Generator: Adobe Illustrator 16.0.0, SVG Export Plug-In . SVG Version: 6.00 Build 0)  -->
<!DOCTYPE svg PUBLIC "-//W3C//DTD SVG 1.1//EN" "http://www.w3.org/Graphics/SVG/1.1/DTD/svg11.dtd">
<svg version="1.1" id="Layer_1" xmlns="http://www.w3.org/2000/svg" xmlns:xlink="http://www.w3.org/1999/xlink" x="0px" y="0px"
	 width="63.036px" height="63.051px" viewBox="0 0 63.036 63.051" enable-background="new 0 0 63.036 63.051" xml:space="preserve">
<g>
	<path fill="#214260" stroke="#FFFFFF" stroke-width="0.5" stroke-miterlimit="10" d="M61.593,52.487
		c-6.452,0-10.291-1.678-14.004-3.301c-3.54-1.547-7.2-3.147-12.864-3.147c-4.893,0-9.584,1.918-13.723,3.611
		c-3.567,1.459-6.937,2.837-9.922,2.837H7.81c1.91-0.851,4.089-1.916,6.473-3.081c9.073-4.434,20.365-9.95,29.041-9.95
		c10.609,0,17.598,5.121,17.668,5.173c0.445,0.334,1.076,0.242,1.409-0.201c0.334-0.447,0.243-1.078-0.202-1.411
		c-0.253-0.19-5.336-3.934-13.568-5.178v-1.706c1.849-0.367,3.225-1.719,3.225-3.326c0-0.788-0.384-2.718-1.003-4.465
		c-0.904-2.555-1.961-3.798-3.229-3.798c-0.885,0-1.668,0.607-2.368,1.844c-0.206-1.237-0.613-2.911-1.164-4.48
		c-1.153-3.288-2.459-4.886-3.99-4.886c-1.533,0-2.839,1.598-3.991,4.886c-0.813,2.318-1.316,4.866-1.316,5.896
		c0,2.075,1.854,3.808,4.299,4.188v4.866c-5.836-3.017-11.699-4.292-17.448-3.789c-4.646,0.406-8.232,1.902-10.472,3.127
		c-2.976-1.143-6.205-1.978-9.763-1.978c-0.557,0-1.007,0.451-1.007,1.008c0,0.556,0.451,1.007,1.007,1.007
		c5.832,0,10.88,2.509,15.335,4.722c1.96,0.974,3.754,1.864,5.446,2.467c-3.05,1.371-6.021,2.822-8.791,4.176
		c-5.149,2.516-10.011,4.892-11.991,4.892c-0.557,0-1.007,0.451-1.007,1.008s0.451,1.008,1.007,1.008h9.673
		c3.382,0,6.929-1.451,10.685-2.987c4.161-1.701,8.464-3.462,12.96-3.462c5.243,0,8.554,1.447,12.057,2.979
		c3.903,1.705,7.938,3.47,14.812,3.47c0.557,0,1.009-0.451,1.009-1.008S62.15,52.487,61.593,52.487L61.593,52.487z M43.323,37.441
		c-0.725,0-1.464,0.035-2.217,0.103V31.99c0.968-0.15,1.843-0.511,2.546-1.022c-0.169,0.784-0.262,1.45-0.262,1.839
		c0,1.607,1.376,2.959,3.225,3.326v1.461C45.56,37.496,44.462,37.441,43.323,37.441z M46.2,29.285
		c0.629-1.877,1.207-2.562,1.422-2.707c0.216,0.145,0.794,0.83,1.423,2.707c0.512,1.522,0.794,3.049,0.794,3.522
		c0,0.523-0.503,1.001-1.209,1.243v-0.976c0-0.556-0.451-1.007-1.008-1.007c-0.556,0-1.007,0.451-1.007,1.007v0.976
		c-0.706-0.242-1.21-0.72-1.21-1.243C45.405,32.334,45.688,30.807,46.2,29.285z M36.807,27.803c0-0.751,0.458-3.104,1.202-5.229
		c1.03-2.938,1.91-3.538,2.09-3.538c0.179,0,1.058,0.601,2.089,3.538c0.745,2.125,1.202,4.477,1.202,5.229
		c0,0.98-0.975,1.838-2.284,2.138v-2.239c0-0.557-0.451-1.008-1.007-1.008c-0.558,0-1.009,0.451-1.009,1.008v2.239
		C37.783,29.641,36.807,28.783,36.807,27.803z M17.639,39.148c-1.289-0.641-2.624-1.304-4.016-1.929
		c2.035-0.93,4.809-1.849,8.195-2.145c5.038-0.44,10.19,0.594,15.352,3.074c-3.879,0.82-7.97,2.276-11.996,3.971
		C23.015,41.816,20.517,40.578,17.639,39.148L17.639,39.148z"/>
	<path fill="#214260" stroke="#FFFFFF" stroke-width="0.5" stroke-miterlimit="10" d="M10.005,19.036h2.313
		c0.139,0.715,0.419,1.38,0.814,1.962l-1.637,1.637c-0.393,0.393-0.393,1.032,0,1.425c0.197,0.197,0.455,0.295,0.713,0.295
		s0.516-0.099,0.712-0.295l1.637-1.637c0.583,0.395,1.247,0.676,1.963,0.814v2.314c0,0.556,0.451,1.007,1.008,1.007
		c0.556,0,1.007-0.451,1.007-1.007v-2.314c0.715-0.138,1.38-0.419,1.963-0.814l1.637,1.637c0.196,0.197,0.455,0.295,0.712,0.295
		s0.516-0.099,0.712-0.295c0.393-0.393,0.393-1.032,0-1.425l-1.637-1.637c0.395-0.582,0.676-1.247,0.814-1.962h2.314
		c0.557,0,1.007-0.451,1.007-1.008c0-0.556-0.451-1.007-1.007-1.007h-2.314c-0.138-0.715-0.419-1.38-0.814-1.963l1.637-1.637
		c0.393-0.394,0.393-1.031,0-1.425c-0.394-0.394-1.032-0.394-1.425,0l-1.637,1.637c-0.583-0.395-1.248-0.676-1.963-0.814v-2.314
		c0-0.556-0.451-1.007-1.007-1.007c-0.557,0-1.008,0.451-1.008,1.007v2.314c-0.716,0.138-1.38,0.419-1.963,0.814l-1.637-1.637
		c-0.394-0.394-1.031-0.394-1.425,0c-0.393,0.394-0.393,1.031,0,1.425l1.637,1.637c-0.395,0.583-0.676,1.248-0.814,1.963h-2.313
		c-0.557,0-1.008,0.451-1.008,1.007C8.998,18.584,9.449,19.036,10.005,19.036z M17.529,14.736c1.814,0,3.292,1.477,3.292,3.292
		c0,1.815-1.477,3.292-3.292,3.292c-1.815,0-3.292-1.477-3.292-3.292C14.237,16.213,15.714,14.736,17.529,14.736z"/>
</g>
</svg>
