<?xml version="1.0" encoding="utf-8"?>
<!-- Generator: Adobe Illustrator 16.0.0, SVG Export Plug-In . SVG Version: 6.00 Build 0)  -->
<!DOCTYPE svg PUBLIC "-//W3C//DTD SVG 1.1//EN" "http://www.w3.org/Graphics/SVG/1.1/DTD/svg11.dtd">
<svg version="1.1" id="Layer_1" xmlns="http://www.w3.org/2000/svg" xmlns:xlink="http://www.w3.org/1999/xlink" x="0px" y="0px"
	 width="63.036px" height="63.051px" viewBox="0 0 63.036 63.051" enable-background="new 0 0 63.036 63.051" xml:space="preserve">
<g>
	<path fill="#214260" stroke="#FFFFFF" stroke-width="0.5" stroke-miterlimit="10" d="M-19.407,52.487
		c-6.452,0-10.291-1.678-14.004-3.301c-3.54-1.547-7.2-3.147-12.864-3.147c-4.893,0-9.584,1.918-13.723,3.611
		c-3.567,1.459-6.937,2.837-9.922,2.837h-3.271c1.91-0.851,4.089-1.916,6.473-3.081c9.073-4.434,20.365-9.95,29.041-9.95
		c10.609,0,17.598,5.121,17.668,5.173c0.445,0.334,1.076,0.242,1.409-0.201c0.334-0.447,0.243-1.078-0.202-1.411
		c-0.253-0.19-5.336-3.934-13.568-5.178v-1.706c1.849-0.367,3.225-1.719,3.225-3.326c0-0.788-0.384-2.718-1.003-4.465
		c-0.904-2.555-1.961-3.798-3.229-3.798c-0.885,0-1.668,0.607-2.368,1.844c-0.206-1.237-0.613-2.911-1.164-4.48
		c-1.153-3.288-2.459-4.886-3.99-4.886c-1.533,0-2.839,1.598-3.991,4.886c-0.813,2.318-1.316,4.866-1.316,5.896
		c0,2.075,1.854,3.808,4.299,4.188v4.866c-5.836-3.017-11.699-4.292-17.448-3.789c-4.646,0.406-8.232,1.902-10.472,3.127
		c-2.976-1.143-6.205-1.978-9.763-1.978c-0.557,0-1.007,0.451-1.007,1.008c0,0.556,0.451,1.007,1.007,1.007
		c5.832,0,10.88,2.509,15.335,4.722c1.96,0.974,3.754,1.864,5.446,2.467c-3.05,1.371-6.021,2.822-8.791,4.176
		c-5.149,2.516-10.011,4.892-11.991,4.892c-0.557,0-1.007,0.451-1.007,1.008s0.451,1.008,1.007,1.008h9.673
		c3.382,0,6.929-1.451,10.685-2.987c4.161-1.701,8.464-3.462,12.96-3.462c5.243,0,8.554,1.447,12.057,2.979
		c3.903,1.705,7.938,3.47,14.812,3.47c0.557,0,1.009-0.451,1.009-1.008S-18.85,52.487-19.407,52.487L-19.407,52.487z
		 M-37.677,37.441c-0.725,0-1.464,0.035-2.217,0.103V31.99c0.968-0.15,1.843-0.511,2.546-1.022c-0.169,0.784-0.262,1.45-0.262,1.839
		c0,1.607,1.376,2.959,3.225,3.326v1.461C-35.44,37.496-36.538,37.441-37.677,37.441z M-34.8,29.285
		c0.629-1.877,1.207-2.562,1.422-2.707c0.216,0.145,0.794,0.83,1.423,2.707c0.512,1.522,0.794,3.049,0.794,3.522
		c0,0.523-0.503,1.001-1.209,1.243v-0.976c0-0.556-0.451-1.007-1.008-1.007c-0.556,0-1.007,0.451-1.007,1.007v0.976
		c-0.706-0.242-1.21-0.72-1.21-1.243C-35.595,32.334-35.312,30.807-34.8,29.285z M-44.193,27.803c0-0.751,0.458-3.104,1.202-5.229
		c1.03-2.938,1.91-3.538,2.09-3.538c0.179,0,1.058,0.601,2.089,3.538c0.745,2.125,1.202,4.477,1.202,5.229
		c0,0.98-0.975,1.838-2.284,2.138v-2.239c0-0.557-0.451-1.008-1.007-1.008c-0.558,0-1.009,0.451-1.009,1.008v2.239
		C-43.217,29.641-44.193,28.783-44.193,27.803z M-63.361,39.148c-1.289-0.641-2.624-1.304-4.016-1.929
		c2.035-0.93,4.809-1.849,8.195-2.145c5.038-0.44,10.19,0.594,15.352,3.074c-3.879,0.82-7.97,2.276-11.996,3.971
		C-57.985,41.816-60.483,40.578-63.361,39.148L-63.361,39.148z"/>
	<path fill="#214260" stroke="#FFFFFF" stroke-width="0.5" stroke-miterlimit="10" d="M-70.995,19.036h2.313
		c0.139,0.715,0.419,1.38,0.814,1.962l-1.637,1.637c-0.393,0.393-0.393,1.032,0,1.425c0.197,0.197,0.455,0.295,0.713,0.295
		s0.516-0.099,0.712-0.295l1.637-1.637c0.583,0.395,1.247,0.676,1.963,0.814v2.314c0,0.556,0.451,1.007,1.008,1.007
		c0.556,0,1.007-0.451,1.007-1.007v-2.314c0.715-0.138,1.38-0.419,1.963-0.814l1.637,1.637c0.196,0.197,0.455,0.295,0.712,0.295
		s0.516-0.099,0.712-0.295c0.393-0.393,0.393-1.032,0-1.425l-1.637-1.637c0.395-0.582,0.676-1.247,0.814-1.962h2.314
		c0.557,0,1.007-0.451,1.007-1.008c0-0.556-0.451-1.007-1.007-1.007h-2.314c-0.138-0.715-0.419-1.38-0.814-1.963l1.637-1.637
		c0.393-0.394,0.393-1.031,0-1.425c-0.394-0.394-1.032-0.394-1.425,0l-1.637,1.637c-0.583-0.395-1.248-0.676-1.963-0.814v-2.314
		c0-0.556-0.451-1.007-1.007-1.007c-0.557,0-1.008,0.451-1.008,1.007v2.314c-0.716,0.138-1.38,0.419-1.963,0.814l-1.637-1.637
		c-0.394-0.394-1.031-0.394-1.425,0c-0.393,0.394-0.393,1.031,0,1.425l1.637,1.637c-0.395,0.583-0.676,1.248-0.814,1.963h-2.313
		c-0.557,0-1.008,0.451-1.008,1.007C-72.002,18.584-71.551,19.036-70.995,19.036z M-63.471,14.736c1.814,0,3.292,1.477,3.292,3.292
		c0,1.815-1.477,3.292-3.292,3.292c-1.815,0-3.292-1.477-3.292-3.292C-66.763,16.213-65.286,14.736-63.471,14.736z"/>
</g>
<g transform="translate(-1)">
	<g>
		<g>
			<path fill="#214260" stroke="#FFFFFF" stroke-width="0.5" stroke-miterlimit="10" d="M60.621,47.353
				c0.53,0,0.962-0.431,0.962-0.962s-0.432-0.962-0.962-0.962h-0.962c0-0.531-0.431-0.962-0.961-0.962
				c-0.532,0-0.963,0.431-0.963,0.962H42.348c0-0.531-0.431-0.962-0.961-0.962c-0.531,0-0.963,0.431-0.963,0.962h-0.961
				c-0.531,0-0.962,0.431-0.962,0.962s0.431,0.962,0.962,0.962h0.961v2.884h-0.961c-0.531,0-0.962,0.432-0.962,0.963
				s0.431,0.961,0.962,0.961h0.961v0.962h-0.961c-0.531,0-0.962,0.431-0.962,0.962s0.431,0.961,0.962,0.961h0.961v2.885H24.077
				v-7.955c1.422,0.801,3.027,1.224,4.66,1.225c5.461-0.078,9.828-4.562,9.765-10.024c0.03-3.797-2.091-7.284-5.476-9.005
				c1.113-1.518,1.711-3.353,1.703-5.235c0.033-4.154-2.881-7.75-6.952-8.577c1.03-2.272,0.853-4.909-0.472-7.022
				c-1.324-2.114-3.62-3.423-6.114-3.486c-0.028,0-0.056,0.004-0.085,0.004c-0.512-3.31-3.379-5.739-6.728-5.7
				C11.03,2.192,8.219,4.688,7.784,8.008c-2.435,0.467-4.115,2.708-3.881,5.177c0.234,2.468,2.307,4.354,4.786,4.354h5.606
				c0.086,0.277,0.189,0.548,0.308,0.813c-4.071,0.831-6.983,4.428-6.95,8.583c-0.008,1.882,0.59,3.717,1.703,5.234
				c-3.385,1.721-5.505,5.208-5.475,9.005c-0.065,5.462,4.303,9.946,9.764,10.024c1.633-0.001,3.238-0.424,4.661-1.225v7.956H4.842
				c-0.531,0-0.961,0.431-0.961,0.962s0.43,0.961,0.961,0.961h55.778c0.53,0,0.962-0.43,0.962-0.961s-0.432-0.962-0.962-0.962
				h-0.962v-2.885h0.962c0.53,0,0.962-0.431,0.962-0.962s-0.432-0.962-0.962-0.962h-0.962V52.16h0.962
				c0.53,0,0.962-0.43,0.962-0.961s-0.432-0.963-0.962-0.963h-0.962v-2.884H60.621L60.621,47.353z M13.941,15.284
				c0,0.111,0.013,0.221,0.019,0.333H8.689c-1.593,0-2.885-1.292-2.885-2.885s1.292-2.885,2.885-2.885
				c0.255,0,0.5-0.101,0.681-0.281c0.18-0.181,0.281-0.426,0.281-0.681c-0.005-2.509,1.925-4.599,4.428-4.793
				c2.502-0.195,4.73,1.572,5.114,4.052C16.056,9.101,13.92,12.004,13.941,15.284z M22.153,57.931h-1.924v-9.37
				c0.346-0.32,0.666-0.666,0.962-1.033c0.296,0.367,0.617,0.713,0.962,1.033V57.931L22.153,57.931z M22.27,45.71l6.333-6.333
				c0.37-0.377,0.367-0.98-0.006-1.354c-0.374-0.373-0.978-0.376-1.354-0.006l-5.09,5.09v-9.783l4.527-4.525
				c0.371-0.377,0.369-0.982-0.005-1.355c-0.374-0.374-0.979-0.377-1.355-0.004l-3.167,3.166v-4.41c0-0.531-0.431-0.962-0.962-0.962
				s-0.962,0.431-0.962,0.962v4.41l-3.166-3.166c-0.377-0.373-0.982-0.37-1.355,0.004c-0.374,0.373-0.376,0.979-0.005,1.355
				l4.526,4.525v9.783l-5.09-5.09c-0.376-0.372-0.982-0.37-1.355,0.004C13.41,38.395,13.408,39,13.78,39.377l6.332,6.333
				c-1.407,2.212-3.844,3.556-6.467,3.565c-4.399-0.077-7.906-3.701-7.841-8.101c-0.041-3.479,2.158-6.591,5.452-7.714
				c0.317-0.104,0.559-0.367,0.635-0.694c0.076-0.326-0.023-0.669-0.262-0.903c-1.322-1.298-2.063-3.076-2.053-4.928
				c-0.062-3.67,2.839-6.707,6.508-6.811c0.396,0.035,0.776-0.17,0.964-0.521c0.164-0.324,0.132-0.711-0.083-1.003
				c-0.713-0.959-1.099-2.122-1.101-3.316c-0.047-2.991,2.335-5.457,5.326-5.512c2.991,0.056,5.373,2.521,5.326,5.512
				c-0.002,1.195-0.388,2.357-1.101,3.316c-0.211,0.294-0.236,0.682-0.068,1.001c0.17,0.325,0.507,0.528,0.873,0.527
				c3.695,0.066,6.641,3.11,6.584,6.807c0.01,1.852-0.73,3.63-2.052,4.928c-0.239,0.234-0.339,0.577-0.263,0.903
				c0.076,0.327,0.317,0.59,0.636,0.694c3.693,1.293,5.944,5.029,5.36,8.898c-0.584,3.868-3.84,6.773-7.75,6.916
				C26.114,49.266,23.677,47.922,22.27,45.71z M57.735,57.931H42.348v-2.885h15.387V57.931z M57.735,53.122H42.348V52.16h15.387
				V53.122z M57.735,50.236H42.348v-2.884h15.387V50.236z"/>
			<path fill="#214260" stroke="#FFFFFF" stroke-width="0.5" stroke-miterlimit="10" d="M45.233,26.195h11.54
				c2.479,0,4.554-1.886,4.788-4.354c0.234-2.468-1.447-4.71-3.883-5.177c-0.439-3.351-3.295-5.855-6.675-5.855
				c-3.379,0-6.235,2.504-6.675,5.855c-2.436,0.467-4.116,2.709-3.882,5.177C40.68,24.31,42.753,26.195,45.233,26.195z
				 M45.233,18.502c0.256,0,0.5-0.102,0.681-0.282s0.282-0.425,0.282-0.68c0-2.655,2.152-4.808,4.808-4.808s4.809,2.153,4.809,4.808
				c0,0.255,0.102,0.5,0.282,0.68c0.18,0.181,0.424,0.282,0.68,0.282c1.594,0,2.885,1.291,2.885,2.885s-1.291,2.885-2.885,2.885
				H45.233c-1.593,0-2.885-1.291-2.885-2.885S43.64,18.502,45.233,18.502z"/>
		</g>
	</g>
</g>
</svg>
